<?xml version="1.0" encoding="UTF-8" standalone="no"?>
<!-- Generator: Gravit.io -->
<svg xmlns="http://www.w3.org/2000/svg" xmlns:xlink="http://www.w3.org/1999/xlink" style="isolation:isolate" viewBox="0 0 1024 1024" width="1024pt" height="1024pt"><defs><clipPath id="_clipPath_uBhaMbs2LL4glMhcj3ZspfF1hGimqV1f"><rect width="1024" height="1024"/></clipPath></defs><g clip-path="url(#_clipPath_uBhaMbs2LL4glMhcj3ZspfF1hGimqV1f)"><clipPath id="_clipPath_HDHMiIuvPiWKf5G4qb8eYl6BfTPSd1NP"><rect x="0" y="0" width="1024" height="1024" transform="matrix(1,0,0,1,0,0)" fill="rgb(255,255,255)"/></clipPath><g clip-path="url(#_clipPath_HDHMiIuvPiWKf5G4qb8eYl6BfTPSd1NP)"><g><g><g><path d=" M 852 302 C 859.26 302 866.52 302 874 302 C 874.227 304.661 874.454 307.321 874.688 310.063 C 875.788 320.918 877.957 333.957 886 342 C 889.657 342.413 891.411 342.421 894.449 340.25 C 895.557 339.136 895.557 339.136 896.688 338 C 900.708 334 900.708 334 904 334 C 904 333.34 904 332.68 904 332 C 914.829 327.219 926.068 322.852 937.926 327.031 C 938.61 327.351 939.295 327.671 940 328 C 940 328.66 940 329.32 940 330 C 940.701 330.124 941.403 330.248 942.125 330.375 C 953.928 332.941 964.068 340.158 971 350 C 983.165 368.926 984.785 390.402 980.813 412.375 C 976.79 428.818 968.065 444.279 957 457 C 956.209 458.023 956.209 458.023 955.402 459.066 C 942.881 474.788 921.439 483.374 902 486 C 884.378 487.284 866.876 483.921 852.781 472.5 C 848.37 468.6 844.979 465.079 842 460 C 841.34 459.67 840.68 459.34 840 459 C 839.289 457.258 839.289 457.258 838.625 455.125 C 837.389 451.635 836.379 449.795 833 448 C 827.626 446.209 822.932 446.288 817.813 448.625 C 812.854 451.402 809.852 454.639 807.887 460.086 C 805.258 469.956 805.115 484.898 810 494 C 812.02 496.916 814.106 499.713 816.355 502.457 C 818.209 505.324 818.579 506.657 818 510 C 813.665 514.335 809.957 516.888 803.688 517.125 C 797.945 515.373 793.901 511.342 790.934 506.125 C 790.218 504.445 789.606 502.722 789 501 C 788.484 500.01 787.969 499.02 787.438 498 C 783.102 488.952 782.82 479.399 782.813 469.563 C 782.8 468.672 782.788 467.782 782.775 466.865 C 782.749 454.638 786.266 444.838 793.25 434.75 C 804.044 423.956 812.965 419.703 828.188 419.563 C 829.596 419.547 829.596 419.547 831.032 419.531 C 838.012 419.62 843.113 421.057 849.375 424.188 C 853.755 425.543 857.487 426.042 862 425 C 870.629 419.82 877.955 412.096 881.407 402.553 C 882.703 396.974 882.3 391.192 882.188 385.5 C 882.174 384.201 882.16 382.901 882.146 381.563 C 882.111 378.375 882.062 375.188 882 372 C 881.393 371.715 880.785 371.43 880.159 371.136 C 870.874 366.251 864.552 356.03 860 347 C 859.602 346.252 859.203 345.505 858.793 344.734 C 855.552 338.18 854.296 331.152 853 324 C 852.866 323.279 852.732 322.559 852.594 321.816 C 851.581 315.276 851.937 308.594 852 302 Z " fill="rgb(252,136,137)"/><path d=" M 956 339 C 960.031 339.098 962.456 340.017 965.375 342.688 C 977.658 355.898 982.401 373.032 982.313 390.625 C 982.305 392.351 982.305 392.351 982.298 394.112 C 981.971 417.915 972.546 439.127 957 457 C 956.473 457.682 955.946 458.364 955.402 459.066 C 942.881 474.788 921.439 483.374 902 486 C 884.378 487.284 866.876 483.921 852.781 472.5 C 848.37 468.6 844.979 465.079 842 460 C 841.34 459.67 840.68 459.34 840 459 C 839.184 457.258 839.184 457.258 838.438 455.125 C 838.064 454.077 838.064 454.077 837.684 453.008 C 837.116 451.341 836.557 449.671 836 448 C 839.932 448.571 841.947 450.468 844.875 453.063 C 858.692 464.498 876.326 472.518 894.727 471.543 C 912.545 468.587 927.37 462.297 941.109 450.469 C 943 449 943 449 945 449 C 945.276 448.407 945.552 447.814 945.836 447.203 C 946.939 445.115 948.116 443.554 949.625 441.75 C 963.887 423.073 967.625 400.391 964.667 377.417 C 963.891 373.23 962.771 369.16 961.578 365.076 C 960.497 361.192 959.671 357.25 958.813 353.313 C 958.646 352.569 958.479 351.826 958.308 351.061 C 957.415 347.055 956.632 343.057 956 339 Z " fill="rgb(243,87,86)"/><path d=" M 941.051 361.098 C 949.559 365.511 955.899 371.306 960 380 C 960 381.32 960 382.64 960 384 C 960.66 384 961.32 384 962 384 C 962.108 386.564 962.187 389.123 962.25 391.688 C 962.3 392.769 962.3 392.769 962.352 393.873 C 962.425 397.882 962.286 399.572 959.984 403.02 C 959.33 403.673 958.675 404.327 958 405 C 953.7 404.779 951.118 403.557 947.688 401.125 C 939.669 395.566 931.741 393.729 922 395 C 912.695 397.512 908.106 400.297 902.813 408.313 C 902.214 409.199 901.616 410.086 901 411 C 900.67 411 900.34 411 900 411 C 899.882 407.354 899.812 403.709 899.75 400.063 C 899.716 399.041 899.683 398.019 899.648 396.967 C 899.56 390.023 900.582 385.05 904 379 C 904.518 378.069 905.036 377.139 905.57 376.18 C 909.799 369.91 914.495 365.836 921 362 C 921.634 361.618 922.268 361.237 922.922 360.844 C 928.556 358.556 935.429 359.075 941.051 361.098 Z " fill="rgb(250,236,206)"/><path d=" M 945 398 C 953.558 403.558 953.558 403.558 957 407 C 957.636 414.862 957.554 420.73 952.371 426.957 C 946.991 432.815 941.048 437.38 932.977 438.371 C 929.938 438.436 927.023 438.302 924 438 C 923.267 437.928 922.533 437.856 921.777 437.781 C 915.022 436.599 909.448 432.262 905.391 426.855 C 904.058 424.617 902.995 422.407 902 420 C 901.674 419.267 901.348 418.533 901.012 417.777 C 899.732 414.057 899.545 411.975 901.234 408.352 C 911.246 393.245 929.08 389.803 945 398 Z " fill="rgb(90,143,167)"/><path d=" M 874 302 C 874.086 303.125 874.173 304.251 874.262 305.41 C 875.386 318.278 877.361 330.226 885 341 C 885.66 341.99 886.32 342.98 887 344 C 880.797 344.433 878.042 342.702 873.375 338.813 C 869.563 334.298 868.073 329.649 867.5 323.813 C 866.997 319.98 866.079 318.164 864 315 C 864 314.01 864 313.02 864 312 C 863.34 312 862.68 312 862 312 C 861.121 305.848 861.121 305.848 861 304 C 863.566 301.434 870.538 302 874 302 Z " fill="rgb(245,88,89)"/><path d=" M 965 380 C 965.33 380 965.66 380 966 380 C 966.089 384.083 966.141 388.166 966.188 392.25 C 966.213 393.39 966.238 394.529 966.264 395.703 C 966.338 404.408 965.959 413.562 961 421 C 958.375 421.688 958.375 421.688 956 422 C 956.012 420.94 956.023 419.881 956.035 418.789 C 956.045 417.401 956.054 416.013 956.063 414.625 C 956.071 413.926 956.079 413.228 956.088 412.508 C 956.184 408.627 956.184 408.627 955 405 C 955.56 404.836 956.12 404.672 956.697 404.503 C 959.164 403.575 960.969 402.691 963 401 C 964.304 397.464 964.39 393.994 964.5 390.25 C 964.559 389.266 964.619 388.283 964.68 387.27 C 964.821 384.846 964.926 382.426 965 380 Z " fill="rgb(248,131,131)"/><path d=" M 839 420 C 839.495 420.99 839.495 420.99 840 422 C 833.73 422 827.46 422 821 422 C 820.67 423.32 820.34 424.64 820 426 C 818.328 426.941 818.328 426.941 816.25 427.563 C 812.851 428.675 810.008 430.026 807 432 C 807 430.02 807 428.04 807 426 C 806.572 426.442 806.144 426.884 805.703 427.34 C 804.121 428.882 802.488 430.202 800.75 431.563 C 795.811 435.735 791.889 441.222 789 447 C 788.34 447 787.68 447 787 447 C 789.329 436.907 797.66 429.498 806 424 C 815.871 418.081 827.923 419.619 839 420 Z " fill="rgb(246,187,177)"/><path d=" M 961 364 C 964.727 367.727 965.099 373.31 965.23 378.402 C 965.228 379.914 965.214 381.426 965.188 382.938 C 965.178 383.725 965.169 384.513 965.159 385.324 C 965.123 387.55 965.067 389.775 965 392 C 964.97 393.022 964.941 394.044 964.91 395.098 C 964.75 397.5 964.75 397.5 964 401 C 961.953 402.219 961.953 402.219 960 403 C 960.33 402.01 960.66 401.02 961 400 C 961.228 397.267 961.417 394.55 961.563 391.813 C 961.606 391.063 961.649 390.313 961.693 389.541 C 961.799 387.694 961.9 385.847 962 384 C 961.34 384 960.68 384 960 384 C 958.922 379.785 959.04 376.074 959.375 371.75 C 959.51 369.886 959.51 369.886 959.648 367.984 C 960 365 960 365 961 364 Z " fill="rgb(252,144,145)"/><path d=" M 978 365 C 982.294 373.084 982.356 381.642 982.313 390.625 C 982.309 391.773 982.306 392.92 982.302 394.103 C 982.155 405.649 980.579 416.315 976 427 C 974.949 423.765 975.081 421.603 975.875 418.313 C 976.058 417.525 976.241 416.737 976.43 415.926 C 977 414 977 414 978 413 C 981.178 400.796 981.5 386.284 978.445 374.023 C 977.773 370.97 977.865 368.113 978 365 Z " fill="rgb(213,105,102)"/><path d=" M 929 367.75 C 932 368 932 368 934 370 C 934.313 373 934.313 373 934 376 C 930.792 378.139 929.723 378.477 926 378 C 923.851 374.776 923.617 373.733 924 370 C 926 368 926 368 929 367.75 Z " fill="rgb(229,78,92)"/><path d=" M 955 422 C 955.33 422 955.66 422 956 422 C 956.438 424.063 956.438 424.063 956 427 C 953.889 429.582 951.477 431.775 949 434 C 948.34 434.66 947.68 435.32 947 436 C 941.589 438.814 936.739 439.289 930.688 439.313 C 929.982 439.318 929.276 439.323 928.548 439.329 C 924.836 439.278 923.162 439.108 920 437 C 921.027 437.07 922.055 437.139 923.113 437.211 C 933.742 437.714 940.867 436.28 949.191 429.113 C 951.512 426.877 953.553 424.894 955 422 Z " fill="rgb(209,162,162)"/><path d=" M 833.5 447.5 C 834.738 448.243 834.738 448.243 836 449 C 833.454 450.273 832.685 449.745 830 449 C 825.894 448.321 822.488 448.129 818.813 450.281 C 814.135 454.179 810.881 458.667 808 464 C 806.851 460.569 806.945 460.121 808.563 456.563 C 814.124 447.626 823.486 443.208 833.5 447.5 Z " fill="rgb(211,194,193)"/><path d=" M 937 382 C 939.689 382.283 941.582 382.735 943.875 384.188 C 945 386 945 386 944.688 389.188 C 944.461 390.116 944.234 391.044 944 392 C 940.625 392.125 940.625 392.125 937 392 C 936.34 391.34 935.68 390.68 935 390 C 935.577 383.423 935.577 383.423 937 382 Z " fill="rgb(208,73,85)"/><path d=" M 912 368 C 912 371 912 371 910.625 373.25 C 908.831 376.006 908.831 376.006 908.063 379.5 C 906.944 383.185 905.526 385.148 903 388 C 901.266 391.467 902.046 395.438 902.16 399.25 C 902 402 902 402 900 404 C 899.342 389.101 901.871 381.076 911 369 C 911.33 368.67 911.66 368.34 912 368 Z " fill="rgb(254,222,178)"/><path d=" M 786 447 C 786.33 447 786.66 447 787 447 C 787.125 452.75 787.125 452.75 786 455 C 785.844 457.478 785.742 459.933 785.684 462.414 C 785.652 463.509 785.652 463.509 785.621 464.625 C 785.555 466.958 785.496 469.292 785.438 471.625 C 785.394 473.206 785.351 474.786 785.307 476.367 C 785.2 480.245 785.098 484.122 785 488 C 784.67 488 784.34 488 784 488 C 783.099 481.822 782.817 475.802 782.813 469.563 C 782.8 468.672 782.788 467.782 782.775 466.865 C 782.76 459.879 783.792 453.623 786 447 Z " fill="rgb(231,152,153)"/><path d=" M 809 494 C 813.184 497.951 817.225 501.823 818.625 507.563 C 817.67 511.288 815.078 512.985 812 515 C 807.779 517.381 804.675 517.147 800 516 C 799.34 515.01 798.68 514.02 798 513 C 798.99 513.33 799.98 513.66 801 514 C 807.482 514.763 810.946 512.676 816 509 C 815.24 504.701 812.979 502.214 810.277 498.902 C 809 497 809 497 809 494 Z " fill="rgb(228,135,131)"/><path d=" M 836 448 C 839.796 448.542 841.472 450.201 844 453 C 843.67 453.66 843.34 454.32 843 455 C 843.281 457.008 843.611 459.01 844 461 C 844.99 461.33 845.98 461.66 847 462 C 847 462.99 847 463.98 847 465 C 847.66 465 848.32 465 849 465 C 849.33 466.32 849.66 467.64 850 469 C 846.336 466.327 844.227 463.925 842 460 C 841.34 459.67 840.68 459.34 840 459 C 839.184 457.258 839.184 457.258 838.438 455.125 C 838.189 454.426 837.94 453.728 837.684 453.008 C 837.116 451.341 836.557 449.671 836 448 Z " fill="rgb(220,116,116)"/><path d=" M 822.301 419.805 C 823.277 419.811 824.254 419.818 825.26 419.824 C 826.267 419.841 827.275 419.858 828.313 419.875 C 829.339 419.884 830.366 419.893 831.424 419.902 C 833.949 419.926 836.475 419.959 839 420 C 839.33 420.66 839.66 421.32 840 422 C 833.73 422 827.46 422 821 422 C 820.67 423.32 820.34 424.64 820 426 C 818.02 426.33 816.04 426.66 814 427 C 814.33 426.01 814.66 425.02 815 424 C 814.01 424 813.02 424 812 424 C 812 423.34 812 422.68 812 422 C 815.594 420.363 818.36 419.759 822.301 419.805 Z " fill="rgb(238,169,166)"/><path d=" M 877 329 C 879.76 330.38 880.136 332.044 881.438 334.813 C 883.024 338.179 884.673 341.09 887 344 C 885.02 344 883.04 344 881 344 C 880.67 342.68 880.34 341.36 880 340 C 879.34 340 878.68 340 878 340 C 876.797 337.595 876.899 336.05 876.938 333.375 C 876.947 332.558 876.956 331.74 876.965 330.898 C 876.976 330.272 876.988 329.645 877 329 Z " fill="rgb(232,81,85)"/><path d=" M 954 436 C 954.613 437.828 954.613 437.828 955 440 C 953.188 442.75 953.188 442.75 951 445 C 950.34 445 949.68 445 949 445 C 948.773 445.949 948.546 446.898 948.313 447.875 C 947 451 947 451 944.688 452.125 C 943.801 452.414 942.914 452.703 942 453 C 940.297 454.287 938.621 455.611 937 457 C 936.34 456.67 935.68 456.34 935 456 C 936.286 454.827 937.579 453.662 938.875 452.5 C 939.594 451.85 940.314 451.201 941.055 450.531 C 943 449 943 449 945 449 C 945.255 448.438 945.51 447.876 945.773 447.297 C 947.157 444.706 948.799 442.549 950.625 440.25 C 951.257 439.451 951.888 438.652 952.539 437.828 C 953.021 437.225 953.503 436.622 954 436 Z " fill="rgb(233,74,77)"/><path d=" M 876 483 C 877.625 482.973 879.25 482.954 880.875 482.938 C 881.78 482.926 882.685 482.914 883.617 482.902 C 886 483 886 483 888 484 C 889.956 484.097 891.916 484.13 893.875 484.125 C 894.924 484.128 895.974 484.13 897.055 484.133 C 899.587 484.019 901.573 483.629 904 483 C 905.582 482.935 907.167 482.914 908.75 482.938 C 909.549 482.947 910.348 482.956 911.172 482.965 C 911.775 482.976 912.378 482.988 913 483 C 913 483.33 913 483.66 913 484 C 906.274 485.659 899.713 486.216 892.813 486.25 C 892.065 486.259 891.318 486.268 890.547 486.277 C 885.4 486.25 880.95 485.413 876 484 C 876 483.67 876 483.34 876 483 Z " fill="rgb(225,106,106)"/><path d=" M 952 404 C 955.875 405.875 955.875 405.875 957 407 C 957.522 413.454 957.917 419.544 954 425 C 951.813 426.875 951.813 426.875 950 428 C 950.309 427.423 950.619 426.845 950.938 426.25 C 951.926 424.157 952.517 422.255 953 420 C 953.66 420 954.32 420 955 420 C 955 415.71 955 411.42 955 407 C 954.01 407 953.02 407 952 407 C 952 406.01 952 405.02 952 404 Z " fill="rgb(111,125,137)"/><path d=" M 961 403 C 960.912 405.063 960.804 407.126 960.688 409.188 C 960.629 410.336 960.571 411.485 960.512 412.668 C 959.977 416.147 959.005 418.145 957 421 C 955.264 417.528 955.989 413.57 956.063 409.75 C 956.197 407.037 956.197 407.037 955 405 C 958.75 403 958.75 403 961 403 Z " fill="rgb(194,124,124)"/><path d=" M 960 384 C 960.66 384 961.32 384 962 384 C 962.108 386.564 962.187 389.123 962.25 391.688 C 962.3 392.769 962.3 392.769 962.352 393.873 C 962.425 397.882 962.286 399.572 959.984 403.02 C 959.33 403.673 958.675 404.327 958 405 C 955.063 404.625 955.063 404.625 952 404 C 951.67 403.34 951.34 402.68 951 402 C 952.32 402.33 953.64 402.66 955 403 C 955 402.01 955 401.02 955 400 C 956.65 400 958.3 400 960 400 C 960 394.72 960 389.44 960 384 Z " fill="rgb(242,211,176)"/><path d=" M 926 386 C 928 388 928 388 928 392 C 931.63 392.33 935.26 392.66 939 393 C 939 393.66 939 394.32 939 395 C 940.32 395.33 941.64 395.66 943 396 C 941.804 395.835 940.608 395.67 939.375 395.5 C 932.93 394.768 926.477 394.917 920 395 C 920 394.01 920 393.02 920 392 C 921.65 391.67 923.3 391.34 925 391 C 925.33 389.35 925.66 387.7 926 386 Z " fill="rgb(238,245,230)"/><path d=" M 920 384 C 922.625 384.375 922.625 384.375 925 385 C 925 386.98 925 388.96 925 391 C 923.02 391 921.04 391 919 391 C 918.375 388.625 918.375 388.625 918 386 C 918.66 385.34 919.32 384.68 920 384 Z " fill="rgb(189,112,95)"/><path d=" M 898 396 C 898.33 396 898.66 396 899 396 C 899.121 397.195 899.242 398.39 899.367 399.621 C 900.596 411.407 900.596 411.407 903 423 C 902.34 423 901.68 423 901 423 C 896.569 415.219 897.864 404.673 898 396 Z " fill="rgb(212,134,129)"/><path d=" M 960 382 C 961.98 382.99 961.98 382.99 964 384 C 964 389.61 964 395.22 964 401 C 962.02 401.99 962.02 401.99 960 403 C 960.495 401.515 960.495 401.515 961 400 C 961.228 397.267 961.417 394.55 961.563 391.813 C 961.606 391.063 961.649 390.313 961.693 389.541 C 961.799 387.694 961.9 385.847 962 384 C 961.34 384 960.68 384 960 384 C 960 383.34 960 382.68 960 382 Z " fill="rgb(251,169,162)"/><path d=" M 799 430 C 799.66 430.33 800.32 430.66 801 431 C 800.469 431.568 799.938 432.137 799.391 432.723 C 795.24 437.26 791.798 441.52 789 447 C 788.34 447 787.68 447 787 447 C 788.597 440.08 793.123 433.918 799 430 Z " fill="rgb(235,170,168)"/><path d=" M 955 422 C 955.33 422 955.66 422 956 422 C 956.438 424.063 956.438 424.063 956 427 C 953.889 429.582 951.477 431.775 949 434 C 948.34 434.66 947.68 435.32 947 436 C 946.01 435.67 945.02 435.34 944 435 C 944.99 434.34 945.98 433.68 947 433 C 948.014 431.342 949.011 429.673 950 428 C 951.591 425.913 953.259 423.97 955 422 Z " fill="rgb(230,166,159)"/><path d=" M 933 457 C 933 457.99 933 458.98 933 460 C 927.299 464.287 921.226 467.836 914 468 C 916.607 465.393 919.659 464.084 922.938 462.5 C 926.413 460.81 929.775 459.15 933 457 Z " fill="rgb(227,76,75)"/><path d=" M 868 420 C 868.66 420.33 869.32 420.66 870 421 C 864 427 864 427 861.059 427.098 C 859.266 427.08 859.266 427.08 857.438 427.063 C 855.641 427.049 855.641 427.049 853.809 427.035 C 852.882 427.024 851.955 427.012 851 427 C 850.67 426.34 850.34 425.68 850 425 C 851.195 425.087 851.195 425.087 852.414 425.176 C 859.602 425.675 859.602 425.675 865.75 422.5 C 866.493 421.675 867.235 420.85 868 420 Z " fill="rgb(234,151,154)"/><path d=" M 969 349 C 973.504 352.67 975.768 357.749 978 363 C 978 363.66 978 364.32 978 365 C 975 364 975 364 974.051 362.223 C 973.807 361.51 973.564 360.797 973.313 360.063 C 972.935 358.997 972.935 358.997 972.551 357.91 C 972 356 972 356 972 354 C 971.01 353.67 970.02 353.34 969 353 C 969 351.68 969 350.36 969 349 Z " fill="rgb(200,98,95)"/><path d=" M 903 423 C 905.148 425.148 907.283 427.298 909.375 429.5 C 912.12 432.114 914.801 433.991 918 436 C 915 437 915 437 911.625 435.5 C 907.752 433.14 905.04 430.053 903 426 C 903 425.01 903 424.02 903 423 Z " fill="rgb(217,151,159)"/><path d=" M 922 396 C 920.563 398 920.563 398 918 400 C 914.972 400.354 912.035 400.233 909 400 C 912.415 396.995 917.572 393.786 922 396 Z " fill="rgb(122,170,178)"/><path d=" M 928 368 C 932.875 368.875 932.875 368.875 934 370 C 934.041 371.666 934.043 373.334 934 375 C 931 375 931 375 928.813 373 C 928.214 372.34 927.616 371.68 927 371 C 927.33 370.01 927.66 369.02 928 368 Z " fill="rgb(217,55,72)"/><path d=" M 964 369 C 966 370 966 370 967.188 372.563 C 968.194 376.82 967.74 379.711 967 384 C 965.087 380.734 964.643 378.006 964.375 374.25 C 964.3 373.265 964.225 372.28 964.148 371.266 C 964.099 370.518 964.05 369.77 964 369 Z " fill="rgb(222,67,69)"/><path d=" M 948 465 C 948.66 465.33 949.32 465.66 950 466 C 948.438 468.938 948.438 468.938 946 472 C 942.25 472.875 942.25 472.875 939 473 C 941.825 470.07 944.788 467.498 948 465 Z " fill="rgb(215,192,199)"/><path d=" M 863 478 C 865.31 478 867.62 478 870 478 C 870.33 478.99 870.66 479.98 871 481 C 872.65 481 874.3 481 876 481 C 876 481.66 876 482.32 876 483 C 871.153 482.409 867.393 481.021 863 479 C 863 478.67 863 478.34 863 478 Z " fill="rgb(227,108,105)"/><path d=" M 843 453 C 845.125 453.938 845.125 453.938 847 455 C 846.34 456.98 845.68 458.96 845 461 C 844.34 460.34 843.68 459.68 843 459 C 843 457.68 843 456.36 843 455 C 842.34 454.67 841.68 454.34 841 454 C 841.66 453.67 842.32 453.34 843 453 Z " fill="rgb(244,94,97)"/><path d=" M 836 448 C 839.796 448.542 841.472 450.201 844 453 C 842.68 453.33 841.36 453.66 840 454 C 840 453.34 840 452.68 840 452 C 838.68 451.34 837.36 450.68 836 450 C 836 449.34 836 448.68 836 448 Z " fill="rgb(236,107,111)"/><path d=" M 805 433 C 804.528 437.248 802.111 439.268 799 442 C 798.34 442 797.68 442 797 442 C 797 441.34 797 440.68 797 440 C 797.66 439.67 798.32 439.34 799 439 C 799.33 438.01 799.66 437.02 800 436 C 802.556 433 802.556 433 805 433 Z " fill="rgb(252,158,149)"/><path d=" M 961 403 C 961 404.65 961 406.3 961 408 C 960.34 408 959.68 408 959 408 C 958.67 409.65 958.34 411.3 958 413 C 957.67 413 957.34 413 957 413 C 956.34 410.36 955.68 407.72 955 405 C 958.75 403 958.75 403 961 403 Z " fill="rgb(195,145,144)"/><path d=" M 948 332 C 952.11 333.45 955.433 335.511 959 338 C 957.438 338.75 957.438 338.75 955 339 C 952.497 337.869 950.33 336.479 948 335 C 948 334.01 948 333.02 948 332 Z " fill="rgb(228,129,128)"/><path d=" M 873 303 C 873 304.98 873 306.96 873 309 C 872.34 308.34 871.68 307.68 871 307 C 870.01 307 869.02 307 868 307 C 868 306.34 868 305.68 868 305 C 867.34 304.67 866.68 304.34 866 304 C 868.463 302.769 870.28 302.928 873 303 Z " fill="rgb(235,71,77)"/><path d=" M 956 336 C 957.65 336 959.3 336 961 336 C 961.33 336.99 961.66 337.98 962 339 C 962.66 339 963.32 339 964 339 C 964.66 340.65 965.32 342.3 966 344 C 964.517 343.047 963.039 342.088 961.563 341.125 C 960.739 340.591 959.915 340.058 959.066 339.508 C 957 338 957 338 956 336 Z " fill="rgb(209,194,194)"/><path d=" M 940 329 C 942.64 329 945.28 329 948 329 C 948 329.66 948 330.32 948 331 C 948.639 331.124 949.279 331.248 949.938 331.375 C 950.618 331.581 951.299 331.788 952 332 C 952.33 332.66 952.66 333.32 953 334 C 951.582 333.546 950.166 333.086 948.75 332.625 C 947.961 332.37 947.172 332.115 946.359 331.852 C 944.134 331.048 942.091 330.103 940 329 Z " fill="rgb(214,187,186)"/><path d=" M 868 324 C 871 326 871 326 871.512 328.383 C 871.57 329.288 871.628 330.193 871.688 331.125 C 871.753 332.035 871.819 332.945 871.887 333.883 C 871.924 334.581 871.961 335.28 872 336 C 870 335 870 335 868.875 331.688 C 868 328 868 328 868 324 Z " fill="rgb(252,106,105)"/><path d=" M 862 303 C 862.66 303 863.32 303 864 303 C 864.688 305.813 864.688 305.813 865 309 C 863.563 310.875 863.563 310.875 862 312 C 861.121 305.848 861.121 305.848 861 304 C 861.33 303.67 861.66 303.34 862 303 Z " fill="rgb(247,104,105)"/><path d=" M 784 488 C 786.463 490.463 786.768 492.274 787.625 495.625 C 787.885 496.628 788.146 497.631 788.414 498.664 C 788.607 499.435 788.801 500.206 789 501 C 785.171 497.661 785.171 497.661 784.391 494.641 C 784.344 493.852 784.298 493.063 784.25 492.25 C 784.193 491.451 784.137 490.652 784.078 489.828 C 784.052 489.225 784.027 488.622 784 488 Z " fill="rgb(217,191,188)"/><path d=" M 899 412 C 901.313 414.313 901.496 415.479 902.125 418.625 C 902.293 419.442 902.46 420.26 902.633 421.102 C 902.815 422.041 902.815 422.041 903 423 C 902.34 423 901.68 423 901 423 C 898.674 419.366 898.837 416.229 899 412 Z " fill="rgb(225,160,164)"/><path d=" M 961 402 C 961.66 402 962.32 402 963 402 C 963 405.3 963 408.6 963 412 C 962.34 412 961.68 412 961 412 C 960.67 412.66 960.34 413.32 960 414 C 960.33 410.04 960.66 406.08 961 402 Z " fill="rgb(234,130,127)"/><path d=" M 912 368 C 912 371.084 911.658 372.037 910.188 374.625 C 909.851 375.236 909.515 375.847 909.168 376.477 C 908 378 908 378 905 379 C 906.486 374.407 908.85 371.564 912 368 Z " fill="rgb(253,197,170)"/><path d=" M 786 447 C 786.33 447 786.66 447 787 447 C 787.253 452.066 786.336 456.158 785 461 C 784.67 461 784.34 461 784 461 C 783.631 451.59 783.631 451.59 786 447 Z " fill="rgb(234,154,158)"/><path d=" M 977 422 C 978.089 424.831 977.961 426.165 977.25 429.188 C 976.631 430.58 976.631 430.58 976 432 C 975.01 432.33 974.02 432.66 973 433 C 974.213 429.276 975.509 425.622 977 422 Z " fill="rgb(216,189,189)"/><path d=" M 933 421 C 934.938 421.313 934.938 421.313 937 422 C 937.33 422.99 937.66 423.98 938 425 C 935.138 426.431 933.066 425.6 930 425 C 930.99 424.67 931.98 424.34 933 424 C 933 423.01 933 422.02 933 421 Z " fill="rgb(61,92,121)"/><path d=" M 863 312 C 863.99 313.485 863.99 313.485 865 315 C 865.557 315.804 866.114 316.609 866.688 317.438 C 868 320 868 320 867.688 322.313 C 867.461 322.869 867.234 323.426 867 324 C 864.495 321.495 863.949 319.389 863 316 C 863 314.68 863 313.36 863 312 Z " fill="rgb(252,113,111)"/><path d=" M 928 456 C 928.66 456 929.32 456 930 456 C 930 457.32 930 458.64 930 460 C 928.02 460.66 926.04 461.32 924 462 C 924.66 460.68 925.32 459.36 926 458 C 926.66 458 927.32 458 928 458 C 928 457.34 928 456.68 928 456 Z " fill="rgb(253,154,147)"/><path d=" M 877 411 C 877.33 412.32 877.66 413.64 878 415 C 875.03 417.475 875.03 417.475 872 420 C 871.34 419.67 870.68 419.34 870 419 C 872.31 416.36 874.62 413.72 877 411 Z " fill="rgb(233,155,160)"/><path d=" M 922 462 C 921.67 462.99 921.34 463.98 921 465 C 919.02 465.33 917.04 465.66 915 466 C 914.67 465.34 914.34 464.68 914 464 C 919.75 462 919.75 462 922 462 Z " fill="rgb(253,155,147)"/><path d=" M 952 404 C 953.98 404.99 953.98 404.99 956 406 C 956 409.3 956 412.6 956 416 C 955.67 416 955.34 416 955 416 C 955 413.03 955 410.06 955 407 C 954.01 407 953.02 407 952 407 C 952 406.01 952 405.02 952 404 Z " fill="rgb(77,123,140)"/><path d=" M 853 324 C 853.33 324 853.66 324 854 324 C 854.144 325.052 854.289 326.104 854.438 327.188 C 854.875 330.155 855.378 333.068 856 336 C 855.01 335.34 854.02 334.68 853 334 C 852.707 331.617 852.707 331.617 852.813 328.875 C 852.84 327.965 852.867 327.055 852.895 326.117 C 852.929 325.419 852.964 324.72 853 324 Z " fill="rgb(213,189,186)"/><path d=" M 793 432 C 793.99 432 794.98 432 796 432 C 794.607 435.367 793.021 436.986 790 439 C 791.875 433.125 791.875 433.125 793 432 Z " fill="rgb(205,199,193)"/><path d=" M 955 422 C 955.33 422 955.66 422 956 422 C 956.25 424.313 956.25 424.313 956 427 C 954 428.813 954 428.813 952 430 C 952.547 426.625 953.055 424.918 955 422 Z " fill="rgb(237,159,155)"/><path d=" M 908 400 C 909 403 909 403 908 406 C 905.938 406.688 905.938 406.688 904 407 C 905.074 404.085 905.778 402.222 908 400 Z " fill="rgb(110,168,173)"/><path d=" M 963 392 C 963.33 392 963.66 392 964 392 C 964 394.97 964 397.94 964 401 C 962.02 401.99 962.02 401.99 960 403 C 960.309 402.299 960.619 401.598 960.938 400.875 C 962.033 397.911 962.564 395.123 963 392 Z " fill="rgb(245,155,140)"/><path d=" M 937 388 C 938.65 388 940.3 388 942 388 C 941.67 389.32 941.34 390.64 941 392 C 939.35 391.67 937.7 391.34 936 391 C 936.33 390.01 936.66 389.02 937 388 Z " fill="rgb(229,77,92)"/><path d=" M 921 385 C 921.99 385 922.98 385 924 385 C 923.67 386.65 923.34 388.3 923 390 C 922.01 390 921.02 390 920 390 C 920.33 388.35 920.66 386.7 921 385 Z " fill="rgb(186,68,62)"/></g></g></g></g></g></svg>