<?xml version="1.0" encoding="UTF-8" standalone="no"?>
<!-- Generator: Gravit.io -->
<svg xmlns="http://www.w3.org/2000/svg" xmlns:xlink="http://www.w3.org/1999/xlink" style="isolation:isolate;" viewBox="0 0 1024 1024" width="1024pt" height="1024pt"><g clip-path="url(#_clipPath_5KkcnazS8LWppWMwsJ8jBCIbrlZ3a6Mb)"><clipPath id="_clipPath_tdmZPQnFLFWx01DmAibJEnM3XHCYs98T"><rect x="0" y="0" width="1024" height="1024" transform="matrix(1,0,0,1,0,0)" fill=""/></clipPath><g clip-path="url(#_clipPath_tdmZPQnFLFWx01DmAibJEnM3XHCYs98T)"><g><g><path d=" M 566.938 63.813 C 576.594 70.983 583.947 79.89 586 92 C 586.125 95 586.125 95 586 97 C 586.735 97.104 587.47 97.209 588.227 97.316 C 595.921 99.213 601.133 105.967 605.492 112.18 C 609.213 119.14 610.447 125.629 610.328 133.461 C 610.326 134.332 610.324 135.203 610.322 136.101 C 610.316 137.931 610.302 139.762 610.281 141.592 C 610.25 144.361 610.24 147.129 610.234 149.898 C 610.2 157.744 610.099 165.515 609.25 173.321 C 608.697 179.258 608.619 185.231 608.438 191.188 C 608.394 192.535 608.351 193.882 608.307 195.229 C 608.202 198.486 608.099 201.743 608 205 C 609.088 205.119 610.176 205.237 611.297 205.359 C 616.776 206.307 619.653 209.096 622.813 213.563 C 626.469 221.068 626.092 232.403 624.25 240.438 C 619.933 252.74 614.287 262.303 602.203 268.184 C 598.539 269.541 594.871 269.774 591 270 C 590.907 271.106 590.814 272.212 590.719 273.352 C 590.059 278.625 588.318 283.404 586.5 288.375 C 586.179 289.276 585.858 290.177 585.527 291.105 C 583.201 297.598 583.201 297.598 582 300 C 581.849 301.447 581.751 302.899 581.684 304.352 C 581.642 305.202 581.6 306.053 581.557 306.93 C 581.517 307.819 581.478 308.709 581.438 309.625 C 581.373 310.971 581.373 310.971 581.307 312.344 C 581.2 314.562 581.098 316.781 581 319 C 579.866 319.474 578.731 319.949 577.563 320.438 C 574.243 321.636 574.243 321.636 573 323 C 573.151 328.596 573.151 328.596 576 333 C 577.988 333.398 579.989 333.738 582 334 C 582.022 335.376 582.022 335.376 582.044 336.779 C 582.106 340.227 582.18 343.675 582.262 347.123 C 582.295 348.606 582.324 350.09 582.346 351.574 C 582.579 366.237 584.65 379.166 595.625 389.875 C 603.299 396.289 612.358 401.028 621 406 C 622.049 406.611 623.099 407.223 624.18 407.853 C 633.186 413.066 642.36 417.89 651.625 422.625 C 653.05 423.356 654.474 424.088 655.898 424.82 C 666.589 430.309 677.296 435.754 688.167 440.879 C 722.358 457.023 751.944 474.261 765.979 511.605 C 767.92 517.332 769.516 523.14 771 529 C 771.327 530.265 771.655 531.529 771.992 532.832 C 774.328 542.385 775.155 551.581 775.133 561.398 C 775.134 562.834 775.134 562.834 775.136 564.298 C 775.136 566.303 775.135 568.308 775.13 570.313 C 775.125 573.387 775.13 576.461 775.137 579.535 C 775.136 581.49 775.135 583.444 775.133 585.398 C 775.135 586.317 775.137 587.236 775.139 588.182 C 775.136 589.034 775.133 589.886 775.129 590.763 C 775.128 591.885 775.128 591.885 775.127 593.029 C 775 595 775 595 774 598 C 770.534 619.59 769.415 641.327 772.766 662.963 C 773.936 670.786 774.632 678.606 775.113 686.5 C 775.157 687.21 775.201 687.92 775.246 688.651 C 776.073 702.686 776.111 716.698 776.02 730.754 C 776.01 732.38 776.01 732.38 776 734.039 C 775.937 744.16 775.853 754.282 775.733 764.403 C 774.926 797.855 774.926 797.855 780.383 830.697 C 781.319 834.191 781.974 837.725 782.625 841.281 C 782.969 843.07 782.969 843.07 783.319 844.895 C 789.105 875.529 793.116 905.863 795 937 C 795.072 938.19 795.144 939.379 795.218 940.605 C 796.012 954.413 796 968.155 796 982 C 765.31 982 734.62 982 703 982 C 701.02 967.48 699.04 952.96 697 938 C 696.257 932.782 695.515 927.564 694.75 922.188 C 690.437 890.487 689.301 858.84 693 827 C 699.128 826.676 705.257 826.383 711.388 826.12 C 713.568 826.02 715.747 825.892 717.926 825.758 C 720.708 825.64 723.255 825.537 726 826 C 728.375 828.5 728.375 828.5 730 831 C 733 831.833 733 831.833 736 831 C 738.571 828.932 738.571 828.932 740 826 C 740 822.806 739.527 821.546 737.313 819.25 C 734.55 817.757 732.103 817.353 729 817 C 728.691 817.619 728.381 818.238 728.063 818.875 C 727.375 820.25 726.688 821.625 726 823 C 715.44 823 704.88 823 694 823 C 693.134 815.358 693.134 815.358 692.25 807.563 C 690.785 794.896 689.062 782.313 686.93 769.738 C 685.057 758.359 683.787 747.022 682.852 735.531 C 682.702 733.711 682.702 733.711 682.549 731.854 C 682.132 726.78 681.718 721.706 681.328 716.63 C 681.039 712.887 680.728 709.147 680.414 705.406 C 680.332 704.265 680.249 703.123 680.164 701.946 C 679.612 695.608 678.787 691.182 675 686 C 674.34 685.67 673.68 685.34 673 685 C 672.935 685.54 672.871 686.079 672.804 686.635 C 671.353 698.578 669.646 710.452 667.625 722.313 C 663.255 748.159 659.3 773.78 658 800 C 657.944 801.133 657.887 802.266 657.829 803.434 C 657.514 809.955 650.22 827 656 827 C 659.101 840.812 661.028 854.526 662.313 868.625 C 663.571 881.853 665.29 894.99 667.198 908.139 C 668.262 915.492 669.232 922.839 670.023 930.227 C 670.827 937.73 671.863 945.174 673.063 952.625 C 673.717 956.749 674.367 960.873 675 965 C 675.113 965.737 675.227 966.474 675.343 967.233 C 676.053 972.284 676 976.772 676 982 C 666.43 982 656.86 982 647 982 C 646.402 978.37 645.804 974.74 645.188 971 C 643.475 955.082 643.475 955.082 639 940 C 638.683 938.129 638.396 936.253 638.125 934.375 C 637.306 929.222 636.029 924.795 634 920 C 632.56 921.581 632.792 915.298 633.5 910.875 C 632.913 907.5 631.702 901.103 633.438 900.188 C 635.896 898.433 636.857 897.507 637.688 894.57 C 637.948 891.699 638.004 888.883 638 886 C 638.106 884.633 638.106 884.633 638.215 883.238 C 638.484 878.839 638.49 876.712 635.938 873 C 632.543 870.689 638.574 676.077 643 676 C 643.314 674 643.626 672 643.938 670 C 644.199 668.329 644.199 668.329 644.465 666.625 C 644.641 665.429 644.818 664.233 645 663 C 645.183 661.837 645.366 660.675 645.555 659.477 C 646.322 653.14 646.197 646.748 646.188 640.375 C 646.187 639.68 646.187 638.985 646.187 638.269 C 646.152 618.71 645.579 598.987 641.727 579.766 C 640.691 574.4 640.067 569.011 639.43 563.586 C 639.006 560.048 638.517 556.525 638 553 C 637.01 552.67 636.02 552.34 635 552 C 635 550.68 635 549.36 635 548 C 634.34 548 633.68 548 633 548 C 632.865 547.368 632.729 546.737 632.59 546.086 C 631.033 539.617 628.674 534.098 625.557 528.223 C 623.154 523.593 621.744 519.106 620.703 514.012 C 620.471 513.348 620.239 512.684 620 512 C 619.01 511.67 618.02 511.34 617 511 C 614 506.667 614 506.667 614 504 C 613.34 504 612.68 504 612 504 C 611.34 502.35 610.68 500.7 610 499 C 609.34 499 608.68 499 608 499 C 606.703 497.094 606.703 497.094 605.25 494.5 C 597.834 481.782 588.386 470.449 574.074 465.5 C 568.111 464.063 562.659 464.679 557 467 C 555.958 465.535 554.917 464.07 553.875 462.605 C 550.992 460.137 547.568 459.181 544 458 C 543.782 445.158 543.757 432.677 546 420 C 546.66 420 547.32 420 548 420 C 547.938 419.196 547.876 418.391 547.813 417.563 C 548.053 412.996 549.442 409.268 551 405 C 552.753 400.037 554.216 395.139 555.375 390 C 556.763 384.333 558.937 379.927 562 375 C 567.658 365.494 572.878 355.803 578 346 C 569.222 348.065 565.216 352.975 560.507 360.333 C 554.516 370.146 548.867 380.141 545 391 C 520.225 381.019 498.246 368.721 477.773 351.481 C 475.259 349.381 472.688 347.353 470.125 345.313 C 464.721 340.863 459.744 336.148 455 331 C 454.145 330.108 453.291 329.216 452.41 328.297 C 446.589 321.566 445.328 316.841 445.307 308.272 C 445.237 302.32 443.7 298.583 440.699 293.402 C 437.035 286.065 435.182 277.883 433 270 C 431.966 269.888 431.966 269.888 430.91 269.773 C 421.456 268.451 415.272 265.076 409.188 257.688 C 401.092 246.519 398.863 234.627 400 221 C 401.399 214.607 404.018 210.245 409.023 206.059 C 411.61 204.673 414.116 204.435 417 204 C 416.955 202.782 416.955 202.782 416.908 201.539 C 416.346 186.109 415.898 170.691 415.875 155.25 C 415.87 153.979 415.866 152.708 415.861 151.398 C 415.863 150.22 415.865 149.042 415.867 147.828 C 415.868 146.796 415.869 145.764 415.871 144.7 C 415.985 142.303 416.312 140.289 417 138 C 416.113 137.773 415.226 137.546 414.313 137.313 C 410.552 135.822 408.678 133.984 406 131 C 405.505 130.505 405.505 130.505 405 130 C 404.254 121.793 406.486 114.948 411.66 108.52 C 414.941 104.821 418.592 102.279 422.813 99.75 C 423.521 99.319 424.23 98.888 424.959 98.444 C 433.212 93.533 440.418 91.58 450 91 C 449.651 90.457 449.301 89.915 448.941 89.355 C 448.486 88.64 448.031 87.925 447.563 87.188 C 447.11 86.48 446.658 85.772 446.191 85.043 C 443.761 80.876 443.373 76.718 444 72 C 446.609 66.574 449.731 64.496 455 62 C 459.463 60.763 463.877 60.938 468.465 61.043 C 470.158 61.068 471.851 61.092 473.544 61.115 C 474.425 61.128 475.306 61.14 476.214 61.153 C 494.158 61.484 494.158 61.484 511.875 59 C 529.636 55.001 550.928 53.893 566.938 63.813 Z " fill="rgb(83,109,125)"/><path d=" M 566.938 63.813 C 576.594 70.983 583.947 79.89 586 92 C 586.125 95 586.125 95 586 97 C 586.735 97.104 587.47 97.209 588.227 97.316 C 595.921 99.213 601.133 105.967 605.492 112.18 C 609.213 119.14 610.447 125.629 610.328 133.461 C 610.326 134.332 610.324 135.203 610.322 136.101 C 610.316 137.931 610.302 139.762 610.281 141.592 C 610.25 144.361 610.24 147.129 610.234 149.898 C 610.2 157.744 610.099 165.515 609.25 173.321 C 608.697 179.258 608.619 185.231 608.438 191.188 C 608.394 192.535 608.351 193.882 608.307 195.229 C 608.202 198.486 608.099 201.743 608 205 C 609.088 205.119 610.176 205.237 611.297 205.359 C 616.776 206.307 619.653 209.096 622.813 213.563 C 626.469 221.068 626.092 232.403 624.25 240.438 C 619.933 252.74 614.287 262.303 602.203 268.184 C 598.539 269.541 594.871 269.774 591 270 C 590.893 271.127 590.786 272.253 590.676 273.414 C 588.615 289.626 580.462 303.079 571 316 C 570.093 317.284 569.186 318.569 568.281 319.855 C 566.053 322.926 563.743 325.388 561 328 C 560.522 328.51 560.044 329.021 559.551 329.547 C 551.744 337.789 542.496 344.627 532 349 C 531.294 349.318 530.587 349.637 529.859 349.965 C 518.825 354.151 503.591 353.69 492.73 349.324 C 480.294 343.293 470.711 335.686 462 325 C 461.558 324.46 461.116 323.919 460.661 323.363 C 459.16 321.52 457.672 319.668 456.188 317.813 C 455.707 317.218 455.226 316.624 454.731 316.011 C 452.668 313.4 451.101 311.254 449.863 308.137 C 449.578 307.432 449.294 306.726 449 306 C 448.01 305.67 447.02 305.34 446 305 C 444.734 302.9 443.695 300.91 442.688 298.688 C 442.388 298.039 442.088 297.391 441.779 296.722 C 437.961 288.12 435.508 279.051 433 270 C 431.966 269.888 431.966 269.888 430.91 269.773 C 421.456 268.451 415.272 265.076 409.188 257.688 C 401.092 246.519 398.863 234.627 400 221 C 401.399 214.607 404.018 210.245 409.023 206.059 C 411.61 204.673 414.116 204.435 417 204 C 416.955 202.782 416.955 202.782 416.908 201.539 C 416.346 186.109 415.898 170.691 415.875 155.25 C 415.87 153.979 415.866 152.708 415.861 151.398 C 415.863 150.22 415.865 149.042 415.867 147.828 C 415.868 146.796 415.869 145.764 415.871 144.7 C 415.985 142.303 416.312 140.289 417 138 C 416.113 137.773 415.226 137.546 414.313 137.313 C 410.552 135.822 408.678 133.984 406 131 C 405.67 130.67 405.34 130.34 405 130 C 404.254 121.793 406.486 114.948 411.66 108.52 C 414.941 104.821 418.592 102.279 422.813 99.75 C 423.521 99.319 424.23 98.888 424.959 98.444 C 433.212 93.533 440.418 91.58 450 91 C 449.651 90.457 449.301 89.915 448.941 89.355 C 448.486 88.64 448.031 87.925 447.563 87.188 C 447.11 86.48 446.658 85.772 446.191 85.043 C 443.761 80.876 443.373 76.718 444 72 C 446.609 66.574 449.731 64.496 455 62 C 459.463 60.763 463.877 60.938 468.465 61.043 C 470.158 61.068 471.851 61.092 473.544 61.115 C 474.425 61.128 475.306 61.14 476.214 61.153 C 494.158 61.484 494.158 61.484 511.875 59 C 529.636 55.001 550.928 53.893 566.938 63.813 Z " fill="rgb(101,128,142)"/><path d=" M 559.64 67.409 C 569.296 74.579 576.649 83.486 578.702 95.596 C 578.827 98.596 578.827 98.596 578.702 100.596 C 579.437 100.7 580.172 100.805 580.929 100.912 C 588.623 102.809 593.835 109.563 598.194 115.776 C 601.915 122.736 603.149 129.225 603.03 137.057 C 603.028 137.928 603.026 138.799 603.024 139.697 C 603.018 141.527 603.004 143.358 602.983 145.188 C 602.952 147.957 602.942 150.725 602.936 153.494 C 602.902 161.34 602.801 169.111 601.951 176.917 C 601.399 182.854 601.321 188.827 601.139 194.784 C 601.096 196.131 601.053 197.478 601.009 198.825 C 600.904 202.082 600.801 205.339 600.702 208.596 C 602.334 208.774 602.334 208.774 603.999 208.955 C 609.478 209.903 612.355 212.692 615.514 217.159 C 619.171 224.664 618.793 235.999 616.952 244.034 C 612.635 256.336 606.989 265.899 594.905 271.78 C 591.241 273.137 587.573 273.37 583.702 273.596 C 583.609 274.702 583.516 275.808 583.421 276.948 C 582.761 282.221 581.02 287 579.202 291.971 C 578.881 292.872 578.56 293.773 578.229 294.701 C 575.903 301.194 575.903 301.194 574.702 303.596 C 574.551 305.043 574.453 306.495 574.386 307.948 C 574.344 308.798 574.302 309.649 574.259 310.526 C 574.219 311.415 574.18 312.305 574.139 313.221 C 574.096 314.118 574.053 315.015 574.009 315.94 C 573.902 318.158 573.8 320.377 573.702 322.596 C 572.568 323.07 571.433 323.545 570.264 324.034 C 566.945 325.232 566.945 325.232 565.702 326.596 C 565.853 332.192 565.853 332.192 568.702 336.596 C 570.69 336.994 572.691 337.334 574.702 337.596 C 574.724 338.972 574.724 338.972 574.746 340.375 C 574.808 343.823 574.882 347.271 574.964 350.719 C 574.997 352.202 575.026 353.686 575.048 355.17 C 575.281 369.833 577.352 382.762 588.327 393.471 C 596.001 399.885 605.06 404.624 613.702 409.596 C 615.276 410.513 615.276 410.513 616.882 411.449 C 625.888 416.662 635.062 421.487 644.327 426.221 C 645.752 426.952 647.176 427.684 648.6 428.416 C 659.291 433.905 669.998 439.35 680.868 444.475 C 715.06 460.619 744.646 477.857 758.681 515.201 C 760.622 520.928 762.218 526.736 763.702 532.596 C 764.029 533.861 764.357 535.125 764.694 536.428 C 767.03 545.981 767.857 555.177 767.835 564.994 C 767.836 565.951 767.837 566.908 767.838 567.894 C 767.838 569.899 767.837 571.904 767.833 573.909 C 767.828 576.983 767.833 580.057 767.839 583.131 C 767.838 585.086 767.837 587.04 767.835 588.994 C 767.837 589.913 767.839 590.832 767.841 591.778 C 767.838 592.63 767.835 593.482 767.831 594.359 C 767.83 595.481 767.83 595.481 767.829 596.625 C 767.702 598.596 767.702 598.596 766.702 601.596 C 763.236 623.186 762.117 644.923 765.468 666.559 C 766.638 674.382 767.334 682.202 767.815 690.096 C 767.859 690.806 767.902 691.516 767.947 692.247 C 768.775 706.282 768.812 720.294 768.721 734.35 C 768.711 735.976 768.711 735.976 768.702 737.635 C 768.639 747.756 768.555 757.878 768.434 767.999 C 767.628 801.451 767.628 801.451 773.085 834.293 C 774.021 837.787 774.676 841.321 775.327 844.877 C 775.67 846.666 775.67 846.666 776.021 848.491 C 781.807 879.125 785.818 909.459 787.702 940.596 C 787.774 941.786 787.846 942.975 787.92 944.201 C 788.713 958.009 788.702 971.751 788.702 985.596 C 758.012 985.596 727.322 985.596 695.702 985.596 C 693.722 971.076 691.742 956.556 689.702 941.596 C 688.959 936.378 688.217 931.16 687.452 925.783 C 683.139 894.083 682.002 862.436 685.702 830.596 C 691.83 830.272 685.836 818.954 684.952 811.159 C 683.487 798.492 681.764 785.909 679.631 773.334 C 677.759 761.955 676.489 750.618 675.553 739.127 C 675.403 737.307 675.403 737.307 675.251 735.45 C 674.834 730.376 674.419 725.302 674.03 720.226 C 673.741 716.483 673.43 712.743 673.116 709.002 C 673.033 707.861 672.951 706.719 672.866 705.542 C 672.314 699.204 671.489 694.778 667.702 689.596 C 667.042 689.266 666.382 688.936 665.702 688.596 C 665.637 689.136 665.572 689.675 665.506 690.231 C 664.055 702.174 662.347 714.048 660.327 725.909 C 655.957 751.755 652.002 777.376 650.702 803.596 C 650.645 804.729 650.589 805.862 650.531 807.03 C 650.216 813.551 642.922 830.596 648.702 830.596 C 651.803 844.408 653.73 858.122 655.014 872.221 C 656.273 885.449 657.991 898.586 659.9 911.735 C 660.963 919.088 661.934 926.435 662.725 933.823 C 663.529 941.326 664.565 948.77 665.764 956.221 C 666.419 960.345 667.069 964.469 667.702 968.596 C 667.815 969.333 667.928 970.07 668.045 970.829 C 668.755 975.88 668.702 980.368 668.702 985.596 C 618.542 985.596 568.382 985.596 516.702 985.596 C 516.702 975.036 498.702 974.586 498.702 985.596 C 447.222 985.596 395.742 985.596 342.702 985.596 C 342.702 977.55 342.926 970.218 344.014 962.346 C 344.293 960.233 344.572 958.119 344.85 956.006 C 345.064 954.407 345.064 954.407 345.283 952.776 C 345.683 949.738 346.061 946.697 346.428 943.655 C 347.691 933.21 349.105 922.807 350.702 912.408 C 352.12 903.134 353.24 893.872 354.139 884.533 C 355.347 871.982 357.075 859.551 358.989 847.09 C 365.151 806.911 358.878 767.408 352.702 727.596 C 352.567 726.713 352.432 725.831 352.292 724.922 C 351.583 720.293 350.845 715.671 350.047 711.057 C 349.714 709.103 349.404 707.145 349.095 705.187 C 347.702 697.541 345.534 692.822 339.702 687.596 C 338.549 691.053 338.542 693.808 338.491 697.455 C 338.465 698.88 338.439 700.304 338.412 701.729 C 338.398 702.481 338.385 703.232 338.371 704.007 C 337.809 733.567 334.744 762.898 329.112 791.936 C 328.975 792.646 328.838 793.356 328.697 794.088 C 328.028 797.546 327.344 801 326.632 804.449 C 324.184 816.8 324.543 828.256 325.702 840.721 C 326.874 854.355 322.907 885.456 325.702 885.596 C 325.779 892.017 325.806 898.288 324.889 904.659 C 324.698 906.051 324.51 907.445 324.323 908.838 C 324.221 909.597 324.119 910.356 324.014 911.138 C 323.68 913.77 323.391 916.403 323.112 919.041 C 320.757 941.31 317.666 963.362 314.702 985.596 C 284.342 985.596 253.982 985.596 222.702 985.596 C 223.857 948.638 223.857 948.638 224.604 937.119 C 224.687 935.803 224.769 934.486 224.855 933.13 C 225.025 930.427 225.199 927.725 225.376 925.022 C 225.602 921.576 225.815 918.129 226.025 914.682 C 226.231 911.327 226.45 907.974 226.667 904.619 C 226.741 903.395 226.815 902.17 226.891 900.908 C 226.968 899.77 227.044 898.633 227.123 897.461 C 227.187 896.469 227.251 895.478 227.316 894.456 C 227.739 891.319 229.924 870.232 231.241 864.248 C 231.404 863.475 231.568 862.701 231.736 861.904 C 232.083 860.268 232.435 858.634 232.79 857 C 233.314 854.593 233.824 852.184 234.331 849.774 C 235.804 842.868 237.272 835.989 239.217 829.198 C 243.325 814.612 244.549 801.185 244.436 786.084 C 244.442 783.812 244.452 781.539 244.463 779.266 C 244.488 773.344 244.479 767.423 244.46 761.501 C 244.434 750.925 244.468 740.348 244.498 729.772 C 244.5 728.649 244.503 727.526 244.505 726.369 C 244.554 706.576 245.424 687.077 247.57 667.393 C 249.606 648.703 249.602 629.384 246.194 610.831 C 244.393 600.963 244.398 591.21 244.441 581.213 C 244.452 578.234 244.441 575.255 244.428 572.276 C 244.409 548.403 247.785 525.059 258.702 503.596 C 259.004 502.987 259.307 502.378 259.619 501.75 C 264.375 492.315 270.318 485.058 277.702 477.596 C 278.296 476.941 278.89 476.286 279.502 475.612 C 292.906 461.111 313.5 452.372 331.432 444.991 C 337.152 442.551 342.656 439.679 348.196 436.861 C 351.101 435.394 354.018 433.952 356.936 432.51 C 373.888 424.127 373.888 424.127 390.41 414.941 C 392.149 413.921 393.892 412.908 395.638 411.9 C 398.959 409.979 402.269 408.039 405.577 406.096 C 406.623 405.491 407.67 404.886 408.749 404.263 C 421.281 396.822 430.63 388.861 434.702 374.596 C 434.869 374.019 435.036 373.442 435.208 372.848 C 437.932 360.411 437.169 346.43 437.534 333.761 C 437.604 331.52 437.687 329.28 437.782 327.04 C 438.82 310.855 438.82 310.855 433.254 296.073 C 430.69 291.982 429.604 287.467 428.327 282.846 C 428.067 281.946 427.808 281.047 427.541 280.12 C 426.918 277.948 426.304 275.774 425.702 273.596 C 425.012 273.521 424.322 273.447 423.612 273.37 C 414.158 272.047 407.973 268.672 401.889 261.284 C 393.794 250.115 391.565 238.223 392.702 224.596 C 394.101 218.203 396.72 213.841 401.725 209.655 C 404.311 208.27 406.818 208.031 409.702 207.596 C 409.671 206.784 409.641 205.972 409.61 205.135 C 409.048 189.705 408.599 174.287 408.577 158.846 C 408.57 156.939 408.57 156.939 408.563 154.994 C 408.565 153.816 408.567 152.638 408.569 151.424 C 408.57 150.392 408.571 149.36 408.572 148.296 C 408.687 145.899 409.013 143.885 409.701 141.596 C 408.814 141.369 407.928 141.142 407.014 140.909 C 403.253 139.418 401.379 137.58 398.701 134.596 C 398.371 134.266 398.041 133.936 397.701 133.596 C 396.955 125.389 399.187 118.544 404.361 112.116 C 407.642 108.417 411.294 105.875 415.514 103.346 C 416.222 102.915 416.931 102.484 417.661 102.04 C 425.913 97.129 433.12 95.176 442.701 94.596 C 442.352 94.053 442.003 93.511 441.643 92.952 C 441.188 92.236 440.733 91.521 440.264 90.784 C 439.811 90.076 439.359 89.368 438.893 88.639 C 436.463 84.472 436.075 80.314 436.701 75.596 C 439.31 70.17 442.432 68.092 447.701 65.596 C 452.164 64.359 456.578 64.534 461.166 64.639 C 462.859 64.665 464.552 64.689 466.246 64.711 C 467.127 64.724 468.008 64.736 468.915 64.749 C 486.86 65.08 486.86 65.08 504.577 62.596 C 522.338 58.597 543.63 57.489 559.64 67.409 Z " fill="rgb(97,124,138)"/><rect x="569.515" y="319" width="11.485" height="21.684" transform="matrix(1,0,0,1,0,0)" fill="rgb(11,30,54)"/><path d=" M 510 310 C 511.65 310 513.3 310 515 310 C 515 310.99 515 311.98 515 313 C 513.35 313.33 511.7 313.66 510 314 C 510 312.68 510 311.36 510 310 Z " fill="rgb(36,66,81)"/><path d=" M 579 303 C 579.33 303 579.66 303 580 303 C 580 306.63 580 310.26 580 314 C 578.68 314.33 577.36 314.66 576 315 C 576.508 310.682 577.197 306.967 579 303 Z " fill="rgb(4,11,27)"/><path d=" M 582 343 C 582.33 351.58 582.66 360.16 583 369 C 582.34 369 581.68 369 581 369 C 580.772 366.949 580.544 364.898 580.316 362.848 C 580.181 360.989 580.181 360.989 579 360 C 577.334 359.959 575.666 359.957 574 360 C 574.283 358.228 574.577 356.457 574.875 354.688 C 575.037 353.701 575.2 352.715 575.367 351.699 C 576 349 576 349 578 346 C 576.68 345.67 575.36 345.34 574 345 C 580.875 343 580.875 343 582 343 Z " fill="rgb(8,42,77)"/><path d=" M 580 301 C 580.33 301 580.66 301 581 301 C 581 306.94 581 312.88 581 319 C 572.25 322 572.25 322 567 322 C 568.414 317.957 570.364 314.912 572.938 311.5 C 574.993 308.765 576.942 306.098 578.691 303.156 C 579.123 302.445 579.555 301.733 580 301 Z " fill="rgb(9,22,39)"/><path d=" M 414 137 C 414.99 137.33 415.98 137.66 417 138 C 416.856 138.557 416.711 139.114 416.563 139.688 C 415.972 142.114 415.477 144.549 415 147 C 414.67 147 414.34 147 414 147 C 414 143.7 414 140.4 414 137 Z " fill="rgb(169,187,195)"/><path d=" M 513 211 C 514.98 211 516.96 211 519 211 C 519 211.99 519 212.98 519 214 C 517.02 214.33 515.04 214.66 513 215 C 513 213.68 513 212.36 513 211 Z " fill="rgb(3,20,38)"/><path d=" M 612 206 C 616.314 206.479 618.166 207.746 621 211 C 620.67 211.66 620.34 212.32 620 213 C 618.664 212.025 617.331 211.045 616 210.063 C 615.258 209.517 614.515 208.972 613.75 208.41 C 613.173 207.945 612.595 207.479 612 207 C 612 206.67 612 206.34 612 206 Z " fill="rgb(72,92,106)"/><path d=" M 449 65 C 449.66 65.33 450.32 65.66 451 66 C 450.493 66.688 450.493 66.688 449.977 67.391 C 446.637 71.982 446.637 71.982 444 77 C 444.415 71.712 445.352 68.883 449 65 Z " fill="rgb(45,63,73)"/><path d=" M 536.941 199.902 C 538.734 199.92 538.734 199.92 540.563 199.938 C 542.359 199.951 542.359 199.951 544.191 199.965 C 545.118 199.976 546.045 199.988 547 200 C 546.67 200.66 546.34 201.32 546 202 C 544.014 201.967 542.029 201.935 540.043 201.902 C 537.797 201.917 537.797 201.917 535 203 C 534.34 202.34 533.68 201.68 533 201 C 534 200 534 200 536.941 199.902 Z " fill="rgb(3,15,36)"/><path d=" M 431 211 C 431.33 211.99 431.66 212.98 432 214 C 431.67 214.66 431.34 215.32 431 216 C 431.009 218.569 431.131 221.122 431.258 223.688 C 431.173 224.451 431.088 225.214 431 226 C 430.01 226.66 429.02 227.32 428 228 C 428.114 225.916 428.242 223.833 428.375 221.75 C 428.445 220.59 428.514 219.43 428.586 218.234 C 428.962 215.293 429.477 213.501 431 211 Z " fill="rgb(121,145,159)"/><path d=" M 466 212 C 466.66 213.32 467.32 214.64 468 216 C 467.67 216.33 467.34 216.66 467 217 C 466.768 218.515 466.588 220.038 466.438 221.563 C 466.354 222.389 466.27 223.215 466.184 224.066 C 466.123 224.704 466.062 225.343 466 226 C 464 224 464 224 463.988 221.434 C 464.095 220.445 464.202 219.456 464.313 218.438 C 464.412 217.446 464.511 216.455 464.613 215.434 C 465 213 465 213 466 212 Z " fill="rgb(106,138,153)"/><path d=" M 548 208 C 551.96 208 555.92 208 560 208 C 555.5 212.5 555.5 212.5 550.75 212.75 C 549.412 212.835 549.412 212.835 548.047 212.922 C 547.371 212.948 546.696 212.973 546 213 C 547.32 212.67 548.64 212.34 550 212 C 550 211.01 550 210.02 550 209 C 549.34 208.67 548.68 208.34 548 208 Z " fill="rgb(107,141,155)"/><path d=" M 439 201 C 439 204.554 438.472 204.893 436.125 207.375 C 431.326 212.82 430.783 216.647 431.223 223.793 C 431.149 224.521 431.076 225.25 431 226 C 430.01 226.66 429.02 227.32 428 228 C 427.694 211.332 427.694 211.332 432.938 205.5 C 434.922 203.627 436.566 202.217 439 201 Z " fill="rgb(110,134,148)"/><path d=" M 476 213 C 478.875 214.625 478.875 214.625 481 217 C 481.915 221.207 481.177 222.719 478.875 226.375 C 476 229 476 229 472.938 229.625 C 469.254 228.841 468.059 228.167 466 225 C 465.182 220.929 465.346 218.006 467.625 214.5 C 470.74 212.533 472.372 212.408 476 213 Z " fill="rgb(6,19,41)"/><path d=" M 552 212.375 C 556.113 213.232 557.597 214.577 560 218 C 560.07 221.992 559.586 224.154 557.313 227.438 C 554.223 229.525 552.662 229.673 549 229 C 545.677 226.544 544.224 225.074 543.375 221 C 544.42 215.986 546.986 213.42 552 212.375 Z " fill="rgb(7,18,36)"/><path d=" M 466.504 198.699 C 467.224 198.695 467.943 198.691 468.685 198.686 C 470.202 198.681 471.719 198.68 473.236 198.684 C 475.558 198.687 477.879 198.664 480.201 198.639 C 481.677 198.636 483.153 198.636 484.629 198.637 C 485.323 198.628 486.017 198.618 486.731 198.609 C 489.622 198.637 491.557 198.696 493.976 200.359 C 495 202 495 202 494.75 204.625 C 494 207 494 207 493 208 C 490.298 208.197 487.62 208.333 484.914 208.422 C 484.101 208.45 483.289 208.478 482.451 208.506 C 480.728 208.563 479.005 208.617 477.281 208.667 C 474.643 208.749 472.005 208.853 469.367 208.957 C 467.695 209.009 466.023 209.06 464.352 209.109 C 463.561 209.144 462.77 209.178 461.955 209.213 C 456.456 209.34 456.456 209.34 453.978 207.493 C 453.655 207 453.333 206.508 453 206 C 454.457 201.387 454.457 201.387 456.609 199.855 C 459.896 198.68 463.056 198.695 466.504 198.699 Z " fill="rgb(14,25,52)"/><path d=" M 541.469 198.602 C 542.545 198.597 542.545 198.597 543.642 198.593 C 545.155 198.591 546.668 198.596 548.181 198.609 C 550.492 198.625 552.802 198.609 555.113 198.59 C 556.586 198.592 558.059 198.596 559.531 198.602 C 560.564 198.592 560.564 198.592 561.618 198.583 C 564.677 198.628 566.751 198.861 569.443 200.365 C 571 202 571 202 571.375 204.563 C 571 207 571 207 569 209 C 566.138 209.117 563.383 209.113 560.527 209.012 C 559.27 208.978 559.27 208.978 557.987 208.943 C 556.214 208.893 554.441 208.838 552.669 208.779 C 549.945 208.688 547.222 208.613 544.498 208.541 C 542.779 208.491 541.059 208.439 539.34 208.387 C 538.52 208.364 537.7 208.341 536.856 208.317 C 531.116 208.116 531.116 208.116 530 207 C 529.688 204.625 529.688 204.625 530 202 C 533.339 198.475 536.892 198.561 541.469 198.602 Z " fill="rgb(11,23,50)"/><path d=" M 547 214 C 547.66 214.33 548.32 214.66 549 215 C 548.546 215.743 548.093 216.485 547.625 217.25 C 546.314 219.469 545.117 221.68 544 224 C 543.631 218.585 543.631 218.585 545.5 215.625 C 545.995 215.089 546.49 214.553 547 214 Z " fill="rgb(14,34,52)"/><path d=" M 502.098 291.566 C 503.405 291.559 503.405 291.559 504.738 291.551 C 506.574 291.544 508.411 291.545 510.247 291.554 C 513.057 291.562 515.864 291.534 518.674 291.502 C 520.461 291.5 522.248 291.501 524.035 291.504 C 525.293 291.487 525.293 291.487 526.576 291.47 C 532.379 291.539 532.379 291.539 535.56 293.898 C 537 296 537 296 537 298.125 C 535.696 300.57 534.541 300.964 532 302 C 529.938 302.254 529.938 302.254 527.722 302.259 C 526.888 302.265 526.054 302.271 525.195 302.278 C 524.303 302.274 523.411 302.27 522.492 302.266 C 521.57 302.268 520.649 302.269 519.699 302.271 C 517.754 302.273 515.809 302.269 513.864 302.261 C 510.879 302.25 507.895 302.261 504.91 302.273 C 503.021 302.272 501.132 302.27 499.242 302.266 C 498.346 302.27 497.451 302.274 496.528 302.278 C 495.7 302.272 494.872 302.265 494.019 302.259 C 493.289 302.257 492.56 302.256 491.808 302.254 C 490 302 490 302 488 300 C 487.563 297.563 487.563 297.563 488 295 C 492.378 291.35 496.676 291.547 502.098 291.566 Z " fill="rgb(12,22,51)"/><path d=" M 566.938 63.813 C 576.594 70.983 583.947 79.89 586 92 C 586.125 95 586.125 95 586 97 C 586.735 97.104 587.47 97.209 588.227 97.316 C 595.921 99.213 601.133 105.967 605.492 112.18 C 609.213 119.14 610.447 125.629 610.328 133.461 C 610.326 134.332 610.324 135.203 610.322 136.101 C 610.316 137.931 610.302 139.762 610.281 141.592 C 610.25 144.361 610.24 147.129 610.234 149.898 C 610.2 157.717 610.069 165.435 609.227 173.213 C 608.752 179.044 608.814 184.905 608.815 190.752 C 608.813 192.996 608.794 195.24 608.775 197.484 C 608.745 205.435 608.858 213.276 611 221 C 611.33 221.33 611.66 221.66 612 222 C 611.4 228.6 611.4 228.6 609 231 C 606.539 231.406 606.539 231.406 603.625 231.5 C 602.669 231.552 601.712 231.603 600.727 231.656 C 598 231 598 231 595.668 228.523 C 593.596 224.147 593.61 220.88 593.688 216.125 C 593.599 208.555 593.599 208.555 589.688 202.25 C 588.472 201.152 587.243 200.067 586 199 C 583.641 196.047 582 193.898 582 190 C 581.34 190 580.68 190 580 190 C 578.745 187.489 578.858 185.714 578.824 182.906 C 578.8 181.875 578.777 180.844 578.752 179.781 C 578.71 177.625 578.678 175.469 578.658 173.313 C 578.428 164.672 576.199 158.316 572.313 150.688 C 571 148 571 148 570.5 145.313 C 570.207 142.948 570.207 142.948 568.563 141.563 C 566.369 139.369 565.909 136.924 565 134 C 553.371 132.755 553.371 132.755 543 137 C 541.629 138.295 540.295 139.629 539 141 C 528.344 151.424 515.607 158.718 501 162 C 500.241 162.174 499.482 162.347 498.7 162.526 C 490.752 164.177 482.908 164.393 474.813 164.375 C 474.132 164.376 473.451 164.378 472.75 164.379 C 462.244 164.377 452.964 163.363 443 160 C 443.016 160.831 443.031 161.663 443.048 162.519 C 443.099 165.645 443.137 168.77 443.165 171.896 C 443.187 173.897 443.225 175.899 443.264 177.9 C 443.332 186.914 442.985 195.024 437.063 202.25 C 436.579 202.853 436.096 203.457 435.598 204.078 C 434 206 434 206 431.875 208.191 C 429.346 211.979 429.221 215.223 428.938 219.688 C 428.746 222.515 428.443 225.191 428 228 C 424.686 230.209 423.655 230.225 419.813 230.125 C 418.911 230.107 418.01 230.089 417.082 230.07 C 416.395 230.047 415.708 230.024 415 230 C 413.634 227.268 413.872 225.018 414 222 C 414.33 221.67 414.66 221.34 415 221 C 415.864 216.181 416.118 211.548 416.098 206.659 C 416.096 205.963 416.095 205.266 416.093 204.548 C 416.089 203.048 416.083 201.548 416.075 200.048 C 416.062 197.673 416.056 195.298 416.051 192.923 C 416.04 187.886 416.02 182.849 416 177.813 C 415.976 171.963 415.956 166.114 415.944 160.264 C 415.938 157.926 415.925 155.589 415.912 153.251 C 415.909 151.818 415.905 150.385 415.902 148.952 C 415.897 147.703 415.892 146.454 415.886 145.167 C 415.98 142.563 416.222 140.467 417 138 C 416.113 137.773 415.226 137.546 414.313 137.313 C 410.552 135.822 408.678 133.984 406 131 C 405.67 130.67 405.34 130.34 405 130 C 404.254 121.793 406.486 114.948 411.66 108.52 C 414.941 104.821 418.592 102.279 422.813 99.75 C 423.521 99.319 424.23 98.888 424.959 98.444 C 433.212 93.533 440.418 91.58 450 91 C 449.651 90.457 449.301 89.915 448.941 89.355 C 448.486 88.64 448.031 87.925 447.563 87.188 C 447.11 86.48 446.658 85.772 446.191 85.043 C 443.761 80.876 443.373 76.718 444 72 C 446.609 66.574 449.731 64.496 455 62 C 459.463 60.763 463.877 60.938 468.465 61.043 C 470.158 61.068 471.851 61.092 473.544 61.115 C 474.425 61.128 475.306 61.14 476.214 61.153 C 494.158 61.484 494.158 61.484 511.875 59 C 529.636 55.001 550.928 53.893 566.938 63.813 Z " fill="rgb(20,36,60)"/><path d=" M 445 306 C 445.33 306 445.66 306 446 306 C 445.945 306.776 445.889 307.552 445.832 308.352 C 445.765 319.512 450.776 325.217 458 333 C 458.812 333.897 459.624 334.794 460.461 335.719 C 466.499 342.057 473.28 347.327 480.221 352.618 C 481.923 353.94 483.582 355.3 485.234 356.684 C 502.701 371.186 523.213 381.181 544 390 C 542.073 402.67 542.073 402.67 540 408 C 539.34 408 538.68 408 538 408 C 538.023 408.883 538.046 409.766 538.07 410.676 C 538.168 417.199 537.985 423.267 536.645 429.648 C 535.717 434.471 535.057 439.325 534.375 444.188 C 534.24 445.146 534.105 446.104 533.966 447.092 C 533.642 449.394 533.321 451.697 533 454 C 527.06 454 521.12 454 515 454 C 515 453.01 515 452.02 515 451 C 514.381 450.938 513.763 450.876 513.125 450.813 C 511 450 511 450 509.75 447.438 C 509.503 446.633 509.255 445.829 509 445 C 508.67 445 508.34 445 508 445 C 507.963 445.736 507.925 446.472 507.887 447.23 C 507.341 455.333 506.136 459.198 500 464.625 C 499.319 465.195 498.639 465.765 497.938 466.352 C 496.199 467.83 494.588 469.363 493 471 C 491.63 461.746 490.695 452.609 490.246 443.266 C 490.133 439.992 490.133 439.992 489 437 C 487.35 436.67 485.7 436.34 484 436 C 484 435.34 484 434.68 484 434 C 483.34 434 482.68 434 482 434 C 480.496 430.582 479.686 427.634 479.367 423.918 C 479.283 422.987 479.2 422.055 479.113 421.096 C 479.035 420.136 478.956 419.176 478.875 418.188 C 478.789 417.208 478.702 416.229 478.613 415.221 C 478.402 412.814 478.198 410.408 478 408 C 477.34 408 476.68 408 476 408 C 474.872 404.647 473.748 401.292 472.625 397.938 C 472.308 396.995 471.991 396.052 471.664 395.08 C 469.992 390.08 468.396 385.084 467 380 C 466.34 380 465.68 380 465 380 C 464.879 379.264 464.758 378.528 464.633 377.77 C 464.465 376.794 464.298 375.818 464.125 374.813 C 463.963 373.85 463.8 372.887 463.633 371.895 C 462.615 367.241 462.053 364.702 458 362 C 456.813 358.375 456.813 358.375 456 355 C 454.68 354.67 453.36 354.34 452 354 C 452 353.34 452 352.68 452 352 C 451.402 351.897 450.804 351.794 450.188 351.688 C 447.62 350.881 446.679 350.084 445 348 C 444.639 346.045 444.639 346.045 444.659 343.804 C 444.66 342.963 444.66 342.123 444.66 341.257 C 444.676 340.353 444.691 339.45 444.707 338.52 C 444.711 337.592 444.716 336.664 444.72 335.707 C 444.737 332.742 444.774 329.778 444.813 326.813 C 444.828 324.803 444.841 322.793 444.854 320.783 C 444.887 315.855 444.938 310.928 445 306 Z " fill="rgb(94,121,139)"/><path d=" M 580 301 C 580.33 301 580.66 301 581 301 C 581 306.94 581 312.88 581 319 C 578.69 319.99 576.38 320.98 574 322 C 573.505 322.495 573.505 322.495 573 323 C 573.151 328.596 573.151 328.596 576 333 C 578.97 333.495 578.97 333.495 582 334 C 582.33 345.55 582.66 357.1 583 369 C 582.34 369 581.68 369 581 369 C 580.772 366.949 580.544 364.898 580.316 362.848 C 580.181 360.989 580.181 360.989 579 360 C 576.533 359.942 576.533 359.942 574 361 C 572.258 363.9 572.258 363.9 571 367 C 570.34 367.66 569.68 368.32 569 369 C 568.704 369.741 568.407 370.482 568.102 371.246 C 566.396 375.51 563.87 379.262 561.461 383.16 C 559.695 386.061 559.695 386.061 560 390 C 561.65 390 563.3 390 565 390 C 564.67 390.66 564.34 391.32 564 392 C 561.36 392 558.72 392 556 392 C 555.728 387.444 556.262 384.804 558.563 380.875 C 559.114 379.916 559.666 378.957 560.234 377.969 C 561.108 376.499 561.108 376.499 562 375 C 563.106 373.126 564.21 371.251 565.313 369.375 C 566.175 367.909 566.175 367.909 567.055 366.414 C 570.878 359.704 574.424 352.844 578 346 C 569.222 348.065 565.216 352.975 560.507 360.333 C 554.516 370.146 548.867 380.141 545 391 C 520.225 381.019 498.246 368.721 477.773 351.481 C 475.259 349.381 472.688 347.353 470.125 345.313 C 464.722 340.864 459.736 336.154 455 331 C 454.134 330.073 453.268 329.146 452.375 328.191 C 446.559 321.348 445.072 316.617 445.684 307.641 C 445.84 306.334 445.84 306.334 446 305 C 450.032 306.344 450.71 308.264 453 311.813 C 458.991 320.831 466.322 328.386 474 336 C 474.504 336.513 475.008 337.026 475.527 337.555 C 487.021 348.316 501.594 351.715 516.844 351.371 C 535.456 350.407 549.423 338.671 562 326 C 562.99 324.515 562.99 324.515 564 323 C 564.66 323 565.32 323 566 323 C 566.262 322.264 566.523 321.528 566.793 320.77 C 568.014 317.968 569.376 316.036 571.313 313.688 C 574.209 310.084 576.711 306.415 579.055 302.434 C 579.523 301.724 579.523 301.724 580 301 Z " fill="rgb(11,30,54)"/><path d=" M 333.125 570.875 C 334.074 570.916 335.023 570.958 336 571 C 336.392 572.196 336.784 573.393 337.188 574.625 C 337.791 576.417 338.396 578.208 339 580 C 339.364 581.11 339.727 582.22 340.102 583.363 C 343.219 592.563 346.729 600.622 353.438 607.75 C 355.741 610.301 356 610.614 356 614.25 C 355 617 355 617 353 620 C 352.706 623.068 352.706 623.068 352.77 626.59 C 352.77 627.242 352.77 627.895 352.77 628.567 C 352.773 630.691 352.792 632.814 352.813 634.938 C 352.82 636.396 352.827 637.854 352.834 639.313 C 352.916 657.795 352.916 657.795 354.531 676.188 C 354.92 679.352 355.107 682.32 355.063 685.5 C 355.053 686.356 355.044 687.212 355.035 688.094 C 355.024 688.723 355.012 689.352 355 690 C 351.649 688.44 349.611 686.611 347 684 C 345.515 683.505 345.515 683.505 344 683 C 343.167 678.68 342.896 674.644 342.95 670.248 C 342.956 669.601 342.963 668.955 342.969 668.289 C 342.983 666.896 342.999 665.503 343.017 664.11 C 343.043 661.903 343.061 659.696 343.076 657.489 C 343.119 651.217 343.167 644.945 343.247 638.673 C 343.295 634.828 343.324 630.983 343.341 627.137 C 343.35 625.676 343.368 624.214 343.392 622.753 C 343.426 620.71 343.435 618.667 343.438 616.623 C 343.45 615.462 343.462 614.301 343.474 613.104 C 342.899 609.337 341.545 607.772 339 605 C 326.424 583.129 326.424 583.129 328 573 C 330 571 330 571 333.125 570.875 Z " fill="rgb(14,31,52)"/><path d=" M 690 570 C 696.875 570.875 696.875 570.875 698 572 C 697.631 579.097 695.842 584.981 693.25 591.563 C 692.915 592.456 692.58 593.35 692.234 594.271 C 689.464 601.445 689.464 601.445 687.772 603.47 C 682.202 610.526 683.29 619.296 683.328 627.824 C 683.318 629.575 683.305 631.326 683.289 633.077 C 683.255 637.677 683.25 642.277 683.251 646.877 C 683.249 652.432 683.216 657.988 683.183 663.544 C 683.158 667.874 683.139 672.205 683.138 676.535 C 683.123 685.411 682.862 694.158 682 703 C 680.685 700.501 679.828 698.38 679.063 695.625 C 678.042 692.143 676.647 689.219 675 686 C 675 685.34 675 684.68 675 684 C 674.34 684 673.68 684 673 684 C 673 661.56 673 639.12 673 616 C 672.01 615.67 671.02 615.34 670 615 C 670.506 610.411 672.277 608.078 675.188 604.563 C 683.201 594.386 686.803 582.374 690 570 Z " fill="rgb(14,31,52)"/><path d=" M 606.613 440.832 C 607.786 440.829 608.958 440.825 610.167 440.822 C 612.628 440.817 615.09 440.815 617.551 440.815 C 621.319 440.812 625.086 440.794 628.854 440.775 C 631.253 440.772 633.652 440.77 636.051 440.77 C 637.175 440.762 638.299 440.755 639.457 440.748 C 641.03 440.752 641.03 440.752 642.634 440.757 C 643.552 440.756 644.47 440.754 645.416 440.753 C 648.253 441.024 650.417 441.825 653 443 C 653.043 444.666 653.041 446.334 653 448 C 651.1 449.9 647.752 449.244 645.223 449.316 C 644.163 449.348 644.163 449.348 643.082 449.38 C 640.742 449.446 638.403 449.505 636.063 449.563 C 634.87 449.594 634.87 449.594 633.653 449.627 C 616.435 450.083 599.223 450.107 582 450 C 582.875 443.125 582.875 443.125 584 442 C 591.457 440.743 599.076 440.84 606.613 440.832 Z " fill="rgb(16,36,57)"/><path d=" M 421.688 440.938 C 424.058 440.943 426.428 440.947 428.799 440.951 C 434.533 440.962 440.266 440.979 446 441 C 446.381 443.326 446.713 445.661 447 448 C 442.827 452.173 427.886 450.122 422.054 450.139 C 420.362 450.136 420.362 450.136 418.637 450.133 C 417.438 450.134 416.24 450.135 415.005 450.136 C 412.503 450.136 410.002 450.135 407.5 450.13 C 403.652 450.125 399.804 450.13 395.955 450.137 C 393.516 450.136 391.076 450.135 388.637 450.133 C 387.483 450.135 386.329 450.137 385.14 450.139 C 384.084 450.136 383.028 450.133 381.94 450.129 C 381.008 450.129 380.075 450.128 379.114 450.127 C 377 450 377 450 376 449 C 375.959 446.667 375.958 444.333 376 442 C 391.237 440.975 406.421 440.88 421.688 440.938 Z " fill="rgb(15,32,55)"/><path d=" M 513 211 C 515 210.957 517 210.959 519 211 C 520.59 212.59 520.157 214.251 520.189 216.456 C 520.206 217.404 520.223 218.352 520.24 219.329 C 520.254 220.361 520.267 221.394 520.281 222.457 C 520.309 224.039 520.309 224.039 520.337 225.653 C 520.396 229.039 520.449 232.426 520.5 235.813 C 520.568 240.257 520.641 244.701 520.719 249.145 C 520.732 250.171 520.746 251.197 520.76 252.254 C 520.777 253.212 520.793 254.169 520.811 255.156 C 520.823 255.996 520.836 256.837 520.849 257.703 C 520.995 259.927 521.404 261.859 522 264 C 522.427 266.768 522.576 269.246 522 272 C 518.792 275.29 515.977 276.258 511.5 276.5 C 506.926 276.314 504.496 274.868 501 272 C 501.33 270.35 501.66 268.7 502 267 C 505.731 266.041 508.268 266.153 512 267 C 511.998 266.328 511.996 265.656 511.993 264.963 C 511.971 257.988 511.956 251.014 511.945 244.039 C 511.94 241.433 511.933 238.828 511.925 236.222 C 511.912 232.484 511.907 228.746 511.902 225.008 C 511.897 223.837 511.892 222.666 511.887 221.46 C 511.887 220.379 511.887 219.298 511.886 218.184 C 511.884 217.229 511.882 216.274 511.88 215.291 C 512 213 512 213 513 211 Z " fill="rgb(9,24,48)"/><path d=" M 354 680 C 354.33 680 354.66 680 355 680 C 355 683.3 355 686.6 355 690 C 351 688 351 688 350 686 C 350.99 686 351.98 686 353 686 C 353.33 684.02 353.66 682.04 354 680 Z " fill="rgb(39,62,78)"/><path d=" M 346 683 C 347.65 684.65 349.3 686.3 351 688 C 349.35 688 347.7 688 346 688 C 346 694.6 346 701.2 346 708 C 345.67 708 345.34 708 345 708 C 344.971 704.583 344.953 701.167 344.938 697.75 C 344.929 696.782 344.921 695.814 344.912 694.816 C 344.909 693.882 344.906 692.947 344.902 691.984 C 344.897 691.126 344.892 690.267 344.886 689.382 C 344.995 687.113 345.364 685.174 346 683 Z " fill="rgb(163,180,188)"/></g></g></g></g></svg>