<?xml version="1.0" encoding="UTF-8" standalone="no"?>
<!-- Generator: Gravit.io -->
<svg xmlns="http://www.w3.org/2000/svg" xmlns:xlink="http://www.w3.org/1999/xlink" style="isolation:isolate" viewBox="0 0 1024 1024" width="1024pt" height="1024pt"><defs><clipPath id="_clipPath_QbHMVdLCDRl4OdQ7fRRSTk0wsDSNCnqC"><rect width="1024" height="1024"/></clipPath></defs><g clip-path="url(#_clipPath_QbHMVdLCDRl4OdQ7fRRSTk0wsDSNCnqC)"><clipPath id="_clipPath_qktGo5FD6PdCLF1TDx6taAZ5Ym6PZeMi"><rect x="0" y="0" width="1024" height="1024" transform="matrix(1,0,0,1,0,0)" fill="rgb(255,255,255)"/></clipPath><g clip-path="url(#_clipPath_qktGo5FD6PdCLF1TDx6taAZ5Ym6PZeMi)"><g><g><g><path d=" M 94.063 321.5 C 95.067 321.482 96.072 321.463 97.107 321.444 C 113.274 321.577 124.29 329.931 135.32 341.02 C 137 343 137 343 138 346 C 138.66 346.33 139.32 346.66 140 347 C 140.269 346.417 140.539 345.835 140.816 345.234 C 146.485 334.533 158.421 326.345 169.762 322.836 C 181.123 320.241 194.625 320.531 205 326 C 205.834 326.413 206.668 326.825 207.527 327.25 C 219.341 333.657 228.294 344.002 232.875 356.625 C 236.26 369.598 234.604 386.22 228 398 C 227.183 397.759 227.183 397.759 226.35 397.513 C 223.652 396.924 221.167 396.838 218.405 396.795 C 217.284 396.775 216.164 396.755 215.009 396.734 C 213.804 396.718 212.6 396.701 211.359 396.684 C 209.503 396.652 209.503 396.652 207.61 396.621 C 204.329 396.566 201.047 396.516 197.766 396.468 C 194.414 396.417 191.063 396.362 187.711 396.307 C 181.141 396.2 174.57 396.098 168 396 C 167.494 394.732 166.995 393.46 166.5 392.188 C 166.222 391.48 165.943 390.772 165.656 390.043 C 165 388 165 388 165 385 C 161.665 385.744 161.665 385.744 160.098 389.281 C 159.408 390.682 158.731 392.089 158.063 393.5 C 157.532 394.591 157.532 394.591 156.992 395.704 C 154.552 400.755 152.189 405.835 150 411 C 149.608 411.846 149.216 412.691 148.813 413.563 C 148.042 415.875 147.752 417.838 147.5 420.25 C 147.335 421.488 147.17 422.725 147 424 C 146.01 424.495 146.01 424.495 145 425 C 138.958 411.743 136.661 397.101 141 383 C 141.308 378.758 141.351 375.052 140 371 C 139.34 371 138.68 371 138 371 C 135.546 376.04 133.649 380.814 132.57 386.316 C 131.801 389.934 130.838 393.492 129.875 397.063 C 129.6 398.083 129.6 398.083 129.32 399.124 C 128.882 400.749 128.441 402.375 128 404 C 127.34 404 126.68 404 126 404 C 124.082 397.242 122.724 390.515 121.612 383.585 C 119.49 369.275 119.49 369.275 114 356 C 112.515 355.505 112.515 355.505 111 355 C 110.83 355.594 110.66 356.189 110.484 356.801 C 108.873 362.313 107.04 367.689 105.035 373.07 C 103.558 377.25 102.338 381.499 101.125 385.762 C 99.774 389.651 97.841 393.317 96 397 C 81.15 397.33 66.3 397.66 51 398 C 43.433 382.866 42.025 368.659 46.742 352.48 C 48.487 347.653 50.748 343.941 54 340 C 54.621 339.219 55.243 338.438 55.883 337.633 C 60.054 332.643 64.128 328.832 70 326 C 70.768 325.608 71.537 325.216 72.328 324.813 C 79.464 321.808 86.396 321.583 94.063 321.5 Z " fill="rgb(240,36,56)"/><path d=" M 112 381 C 113.32 381 114.64 381 116 381 C 116.857 386.09 117.711 391.18 118.563 396.271 C 118.854 398.004 119.145 399.736 119.437 401.468 C 119.855 403.955 120.271 406.442 120.688 408.93 C 120.819 409.707 120.95 410.484 121.085 411.285 C 122 416.772 122 416.772 122 419 C 125.467 418.422 127.488 417.643 129.699 414.863 C 130.761 413.226 131.796 411.571 132.801 409.898 C 133.197 409.272 133.592 408.645 134 408 C 134.33 408 134.66 408 135 408 C 137 421 139 434 141 447 C 144.875 445.74 144.875 445.74 147.406 442.707 C 147.767 441.752 148.128 440.797 148.5 439.813 C 148.913 438.739 149.325 437.665 149.75 436.559 C 151.277 432.212 152.709 427.837 154.118 423.451 C 155.653 418.777 157.557 414.474 159.887 410.148 C 161.094 407.819 162.06 405.448 163 403 C 163.66 403.33 164.32 403.66 165 404 C 166.909 404.12 168.822 404.177 170.735 404.205 C 171.936 404.225 173.137 404.245 174.375 404.266 C 175.677 404.282 176.979 404.299 178.32 404.316 C 179.663 404.337 181.005 404.358 182.347 404.379 C 185.882 404.435 189.416 404.484 192.951 404.532 C 196.557 404.582 200.163 404.638 203.77 404.693 C 210.846 404.801 217.923 404.902 225 405 C 220.708 415.97 213.472 424.093 205.447 432.467 C 203.362 434.675 201.374 436.964 199.375 439.25 C 194.912 444.229 190.026 448.602 185 453 C 184.34 453.621 183.68 454.243 183 454.883 C 172.607 464.586 160.463 472.497 148.625 480.313 C 147.918 480.787 147.211 481.261 146.482 481.749 C 142.968 484.03 141.291 485 137 485 C 134.59 483.496 134.59 483.496 131.938 481.438 C 128.272 478.664 124.612 476.079 120.688 473.688 C 116.237 470.896 112.069 467.861 107.938 464.625 C 107.396 464.203 106.855 463.781 106.298 463.346 C 97.311 456.205 89.038 448.246 80.913 440.154 C 79.442 438.692 77.96 437.242 76.479 435.791 C 67.723 427.131 60.151 417.715 54 407 C 54 406.34 54 405.68 54 405 C 69.84 404.67 85.68 404.34 102 404 C 102.99 401.03 103.98 398.06 105 395 C 106.001 392.649 107.039 390.313 108.125 388 C 108.643 386.886 109.161 385.773 109.695 384.625 C 111 382 111 382 112 381 Z " fill="rgb(236,34,55)"/><path d=" M 111 355 C 112.848 355.195 112.848 355.195 115 356 C 123.41 368.803 124.316 389.117 126 404 C 126.66 404 127.32 404 128 404 C 128.186 402.793 128.186 402.793 128.375 401.563 C 129.116 397.338 130.032 393.178 131 389 C 131.217 388.01 131.433 387.02 131.656 386 C 133.038 379.993 134.602 375.156 138 370 C 138.99 370.33 139.98 370.66 141 371 C 142.694 376.082 142.572 381.141 141 386.25 C 137.813 398.201 140.122 413.216 146 424 C 146.098 423.322 146.196 422.644 146.297 421.945 C 147.784 412.686 150.529 404.923 155.695 397.094 C 158.104 393.228 160.025 389.1 162 385 C 162.99 385 163.98 385 165 385 C 165.506 386.268 166.005 387.54 166.5 388.813 C 166.778 389.52 167.057 390.228 167.344 390.957 C 168 393 168 393 168 396 C 168.693 395.996 169.385 395.991 170.099 395.987 C 177.301 395.942 184.504 395.912 191.706 395.89 C 194.395 395.881 197.084 395.867 199.772 395.849 C 203.635 395.825 207.497 395.814 211.359 395.805 C 212.564 395.794 213.768 395.784 215.009 395.773 C 216.13 395.773 217.25 395.773 218.405 395.773 C 219.884 395.766 219.884 395.766 221.393 395.759 C 224.073 396.007 225.707 396.63 228 398 C 227.67 399.98 227.34 401.96 227 404 C 207.2 404 187.4 404 167 404 C 166.67 403.34 166.34 402.68 166 402 C 164.515 401.505 164.515 401.505 163 401 C 162.851 402.522 162.851 402.522 162.699 404.074 C 161.966 408.191 160.702 411.097 158.813 414.813 C 155.602 421.311 153.215 427.895 151.13 434.833 C 149.689 439.482 148.152 443.243 145 447 C 143.68 447 142.36 447 141 447 C 138.003 434.405 135.767 421.825 134 409 C 133.578 409.638 133.157 410.276 132.723 410.934 C 132.175 411.76 131.627 412.586 131.063 413.438 C 130.517 414.261 129.972 415.085 129.41 415.934 C 128 418 128 418 127 419 C 125.334 419.041 123.666 419.043 122 419 C 120.364 411.953 119.061 404.886 117.875 397.75 C 117.693 396.688 117.511 395.626 117.324 394.531 C 117.067 392.992 117.067 392.992 116.805 391.422 C 116.65 390.5 116.495 389.578 116.335 388.628 C 116.007 386.053 115.94 383.593 116 381 C 112.951 381.91 111.365 382.435 109.606 385.155 C 109.255 386.024 108.904 386.893 108.543 387.789 C 108.153 388.73 107.763 389.671 107.361 390.641 C 106.974 391.625 106.587 392.61 106.188 393.625 C 105.781 394.618 105.374 395.61 104.955 396.633 C 103.954 399.083 102.97 401.538 102 404 C 95.04 404.025 88.08 404.043 81.12 404.055 C 78.75 404.06 76.38 404.067 74.01 404.075 C 70.612 404.088 67.214 404.093 63.816 404.098 C 62.75 404.103 61.683 404.108 60.584 404.113 C 59.603 404.113 58.622 404.113 57.612 404.114 C 56.309 404.117 56.309 404.117 54.98 404.12 C 53 404 53 404 52 403 C 52 401.02 52 399.04 52 397 C 66.52 396.67 81.04 396.34 96 396 C 99.552 387.119 102.548 379.415 104.988 370.387 C 106.573 365.081 108.743 360.05 111 355 Z " fill="rgb(252,243,240)"/><path d=" M 116 358 C 116.33 358.66 116.66 359.32 117 360 C 117.66 360 118.32 360 119 360 C 119 361.65 119 363.3 119 365 C 119.66 365 120.32 365 121 365 C 123.326 368.634 123.163 371.771 123 376 C 124.65 376 126.3 376 128 376 C 128.227 375.361 128.454 374.721 128.688 374.063 C 130 372 130 372 132.625 371.25 C 133.801 371.126 133.801 371.126 135 371 C 135 370.34 135 369.68 135 369 C 135.99 369 136.98 369 138 369 C 137.083 371.816 136.176 374.593 135 377.313 C 133.917 380.223 133.279 383.141 132.641 386.176 C 131.283 392.163 129.608 398.076 128 404 C 127.34 404 126.68 404 126 404 C 123.501 395.196 121.949 386.308 120.534 377.275 C 119.588 371.487 118.15 366.449 116 361 C 116 360.01 116 359.02 116 358 Z " fill="rgb(212,35,50)"/><path d=" M 48 349 C 49.003 352.127 48.924 353.982 48.063 357.125 C 46.957 362.173 46.77 367.042 46.75 372.188 C 46.741 372.948 46.732 373.708 46.723 374.491 C 46.748 379.335 47.565 383.338 49 388 C 49 389.32 49 390.64 49 392 C 49.66 392 50.32 392 51 392 C 51 392.99 51 393.98 51 395 C 65.52 395 80.04 395 95 395 C 95.33 393.35 95.66 391.7 96 390 C 96.66 389.34 97.32 388.68 98 388 C 98.846 384.547 99.47 381.073 100.121 377.578 C 100.993 374.029 102.243 371.191 104 368 C 104.66 368.33 105.32 368.66 106 369 C 105.284 371.796 104.553 374.586 103.813 377.375 C 103.616 378.15 103.419 378.924 103.217 379.723 C 101.48 386.189 99.126 390.747 96 397 C 81.15 397.33 66.3 397.66 51 398 C 42.55 381.1 42.625 366.564 48 349 Z " fill="rgb(210,68,82)"/><path d=" M 232 379 C 232.33 379 232.66 379 233 379 C 232.546 386.03 230.879 391.585 228 398 C 227.455 397.839 226.911 397.678 226.35 397.513 C 223.652 396.924 221.167 396.838 218.405 396.795 C 216.724 396.765 216.724 396.765 215.009 396.734 C 213.202 396.709 213.202 396.709 211.359 396.684 C 210.122 396.663 208.885 396.642 207.61 396.621 C 204.329 396.566 201.047 396.516 197.766 396.468 C 194.414 396.417 191.063 396.362 187.711 396.307 C 181.141 396.2 174.57 396.098 168 396 C 167.34 392.04 166.68 388.08 166 384 C 166.66 384 167.32 384 168 384 C 168.155 384.959 168.155 384.959 168.313 385.938 C 168.539 386.618 168.766 387.299 169 388 C 169.99 388.33 170.98 388.66 172 389 C 172 389.66 172 390.32 172 391 C 172.99 391 173.98 391 175 391 C 175.33 391.66 175.66 392.32 176 393 C 186.707 395.36 198.857 394.343 209.791 394.552 C 212.414 394.604 215.037 394.661 217.66 394.719 C 218.873 394.739 218.873 394.739 220.109 394.76 C 225.774 394.887 225.774 394.887 228 396 C 228.103 395.051 228.206 394.103 228.313 393.125 C 228.991 388.265 230.509 383.662 232 379 Z " fill="rgb(194,41,57)"/><path d=" M 163 403 C 163.99 403.495 163.99 403.495 165 404 C 166.909 404.12 168.822 404.177 170.735 404.205 C 171.936 404.225 173.137 404.245 174.375 404.266 C 176.328 404.291 176.328 404.291 178.32 404.316 C 179.663 404.337 181.005 404.358 182.347 404.379 C 185.882 404.435 189.416 404.484 192.951 404.532 C 196.557 404.582 200.163 404.638 203.77 404.693 C 210.846 404.801 217.923 404.902 225 405 C 223.926 407.915 223.222 409.778 221 412 C 221 411.01 221 410.02 221 409 C 216.728 407.948 212.605 407.886 208.234 407.938 C 207.107 407.943 207.107 407.943 205.957 407.949 C 202.767 407.965 199.578 407.993 196.389 408.021 C 185.214 408.109 174.148 407.797 163 407 C 163 405.68 163 404.36 163 403 Z " fill="rgb(197,31,50)"/><path d=" M 163 401 C 164.32 401.33 165.64 401.66 167 402 C 167 402.66 167 403.32 167 404 C 186.47 404 205.94 404 226 404 C 225.08 408.601 223.896 411.797 222 416 C 221.34 416 220.68 416 220 416 C 219.753 416.536 219.505 417.073 219.25 417.625 C 217.693 420.582 215.966 423.297 214 426 C 213.34 426 212.68 426 212 426 C 213.91 421.887 216.503 418.396 219.148 414.73 C 221.273 411.598 223.122 408.286 225 405 C 205.2 405 185.4 405 165 405 C 164.34 403.68 163.68 402.36 163 401 Z " fill="rgb(254,173,187)"/><path d=" M 122 380 C 123.782 383.333 124.488 386.245 125 390 C 125.619 389.505 126.238 389.01 126.875 388.5 C 129 387 129 387 131 387 C 131.66 385.68 132.32 384.36 133 383 C 132.301 387.722 131.198 392.278 129.938 396.875 C 129.751 397.563 129.565 398.252 129.373 398.961 C 128.918 400.641 128.459 402.321 128 404 C 127.34 404 126.68 404 126 404 C 123.742 395.99 122.427 388.312 122 380 Z " fill="rgb(163,67,75)"/><path d=" M 134 408 C 134.33 408 134.66 408 135 408 C 137 421 139 434 141 447 C 139 446 139 446 137.875 443.875 C 136.841 440.476 136.861 437.534 137 434 C 136.34 434 135.68 434 135 434 C 134.67 428.06 134.34 422.12 134 416 C 132.02 416.66 130.04 417.32 128 418 C 128.975 416.331 129.955 414.665 130.938 413 C 131.755 411.608 131.755 411.608 132.59 410.188 C 133.288 409.105 133.288 409.105 134 408 Z " fill="rgb(183,57,59)"/><path d=" M 110 322 C 112.319 322.733 114.652 323.364 117 324 C 117 324.66 117 325.32 117 326 C 116.346 325.788 115.692 325.576 115.018 325.357 C 107.864 323.2 101.385 322.539 93.938 322.625 C 92.926 322.613 91.915 322.602 90.873 322.59 C 84.112 322.616 78.352 323.689 72 326 C 72.33 325.01 72.66 324.02 73 323 C 75.453 322.088 77.717 321.407 80.25 320.813 C 80.969 320.64 81.689 320.468 82.43 320.291 C 92.189 318.111 100.797 317.875 110 322 Z " fill="rgb(210,189,190)"/><path d=" M 190 447 C 190.75 448.715 190.75 448.715 191 451 C 187.75 455.507 183.45 459.766 178.188 461.75 C 174.463 463.211 173.311 464.812 171 468 C 167.86 470.93 165.236 471.519 161 472 C 164.107 468.572 167.408 465.926 171.188 463.25 C 177.977 458.408 184.153 452.941 190 447 Z " fill="rgb(222,193,199)"/><path d=" M 112 381 C 113.32 381 114.64 381 116 381 C 118.481 392.522 118.481 392.522 117 398 C 116.67 398 116.34 398 116 398 C 115.67 393.71 115.34 389.42 115 385 C 113.68 385 112.36 385 111 385 C 110.902 385.843 110.804 386.686 110.703 387.555 C 110.554 388.65 110.404 389.746 110.25 390.875 C 110.111 391.966 109.972 393.056 109.828 394.18 C 109 397 109 397 106.969 398.219 C 106.319 398.477 105.669 398.734 105 399 C 104.188 401.555 104.188 401.555 104 404 C 103.34 404 102.68 404 102 404 C 107.707 385.293 107.707 385.293 112 381 Z " fill="rgb(184,37,45)"/><path d=" M 230 350 C 230.66 350 231.32 350 232 350 C 232.33 352.31 232.66 354.62 233 357 C 233.66 357 234.32 357 235 357 C 235.025 361.218 235.043 365.435 235.055 369.653 C 235.06 371.087 235.067 372.522 235.075 373.956 C 235.088 376.019 235.093 378.082 235.098 380.145 C 235.103 381.386 235.108 382.627 235.114 383.906 C 235 387 235 387 234 390 C 233.34 390 232.68 390 232 390 C 231.951 390.638 231.902 391.276 231.852 391.934 C 231.777 392.76 231.702 393.586 231.625 394.438 C 231.555 395.261 231.486 396.085 231.414 396.934 C 231.209 397.956 231.209 397.956 231 399 C 230.01 399.495 230.01 399.495 229 400 C 227.711 396.133 228.594 394.518 229.875 390.688 C 234.377 377.134 234.318 363.572 230 350 Z " fill="rgb(223,198,205)"/><path d=" M 198 321 C 198 321.66 198 322.32 198 323 C 200.97 323.33 203.94 323.66 207 324 C 207.33 324.99 207.66 325.98 208 327 C 209.32 327 210.64 327 212 327 C 215.189 329.733 217.241 332.223 219 336 C 218.539 335.625 218.077 335.25 217.602 334.863 C 207.885 327.24 197.949 322.919 185.563 322.375 C 184.465 322.317 184.465 322.317 183.346 322.258 C 181.564 322.165 179.782 322.081 178 322 C 178 321.67 178 321.34 178 321 C 184.626 319.641 191.407 319.299 198 321 Z " fill="rgb(211,186,188)"/><path d=" M 54 405 C 59.94 405 65.88 405 72 405 C 72 405.33 72 405.66 72 406 C 68.7 406.33 65.4 406.66 62 407 C 61.113 409.16 61.113 409.16 61 412 C 61.842 413.83 61.842 413.83 63 415.625 C 63.66 416.739 64.32 417.853 65 419 C 64.67 419.99 64.34 420.98 64 422 C 62.328 419.545 60.662 417.087 59 414.625 C 58.523 413.926 58.046 413.228 57.555 412.508 C 56.878 411.502 56.878 411.502 56.188 410.477 C 55.769 409.859 55.35 409.241 54.918 408.604 C 54 407 54 407 54 405 Z " fill="rgb(230,49,60)"/><path d=" M 134 374 C 135.205 377.614 134.696 378.544 133.313 382 C 132.979 382.866 132.645 383.733 132.301 384.625 C 130.857 387.262 129.563 388.463 127 390 C 126.34 390 125.68 390 125 390 C 124.34 387.69 123.68 385.38 123 383 C 123.66 383 124.32 383 125 383 C 125.33 383.66 125.66 384.32 126 385 C 129.092 382.47 129.909 379.775 131 376 C 131.99 376 132.98 376 134 376 C 134 375.34 134 374.68 134 374 Z " fill="rgb(165,31,42)"/><path d=" M 225 344 C 230.427 348.264 232.575 355.44 234 362 C 234.069 364.76 234.094 367.492 234.063 370.25 C 234.058 370.995 234.053 371.74 234.049 372.508 C 234.037 374.339 234.019 376.169 234 378 C 233.67 378 233.34 378 233 378 C 232.939 377.145 232.879 376.291 232.816 375.41 C 232.733 374.305 232.649 373.201 232.563 372.063 C 232.481 370.96 232.4 369.858 232.316 368.723 C 232.296 366.089 232.296 366.089 231 365 C 230.928 363.481 230.916 361.958 230.938 360.438 C 230.947 359.611 230.956 358.785 230.965 357.934 C 230.976 357.296 230.988 356.657 231 356 C 230.34 356 229.68 356 229 356 C 228.518 354.751 228.04 353.501 227.563 352.25 C 227.296 351.554 227.029 350.858 226.754 350.141 C 226.039 348.109 225.486 346.096 225 344 Z " fill="rgb(185,51,70)"/><path d=" M 212 404 C 216.62 404 221.24 404 226 404 C 225.08 408.601 223.896 411.797 222 416 C 221.34 416 220.68 416 220 416 C 219.753 416.536 219.505 417.073 219.25 417.625 C 217.693 420.582 215.966 423.297 214 426 C 213.34 426 212.68 426 212 426 C 213.487 422.798 215.312 420.048 217.375 417.188 C 220.182 413.232 222.685 409.259 225 405 C 220.71 405 216.42 405 212 405 C 212 404.67 212 404.34 212 404 Z " fill="rgb(223,167,174)"/><path d=" M 104 368 C 104.66 368.33 105.32 368.66 106 369 C 100.998 388.005 100.998 388.005 97 396 C 95.739 392.217 96.517 390.941 97.875 387.25 C 99.45 382.787 100.344 378.688 101 374 C 102.563 370.563 102.563 370.563 104 368 Z " fill="rgb(183,62,77)"/><path d=" M 166 384 C 166.66 384 167.32 384 168 384 C 168.103 384.639 168.206 385.279 168.313 385.938 C 168.539 386.618 168.766 387.299 169 388 C 169.99 388.33 170.98 388.66 172 389 C 172 389.66 172 390.32 172 391 C 172.99 391 173.98 391 175 391 C 175.33 391.66 175.66 392.32 176 393 C 178.586 393.468 178.586 393.468 181.563 393.625 C 182.574 393.7 183.586 393.775 184.629 393.852 C 185.803 393.925 185.803 393.925 187 394 C 187 394.33 187 394.66 187 395 C 182.05 395 177.1 395 172 395 C 171.67 393.68 171.34 392.36 171 391 C 169.68 390.67 168.36 390.34 167 390 C 166.67 388.02 166.34 386.04 166 384 Z " fill="rgb(206,21,45)"/><path d=" M 151 401 C 151.99 401.33 152.98 401.66 154 402 C 153.734 402.592 153.469 403.183 153.195 403.793 C 152.466 405.425 151.741 407.059 151.02 408.695 C 150.299 410.324 149.562 411.946 148.813 413.563 C 148.042 415.875 147.752 417.838 147.5 420.25 C 147.335 421.488 147.17 422.725 147 424 C 146.34 424.33 145.68 424.66 145 425 C 144.34 422.69 143.68 420.38 143 418 C 143.99 418 144.98 418 146 418 C 146.33 415.36 146.66 412.72 147 410 C 147.66 410 148.32 410 149 410 C 149.144 409.072 149.289 408.144 149.438 407.188 C 150 404 150 404 151 401 Z " fill="rgb(189,104,84)"/><path d=" M 87.641 321.902 C 89.246 321.907 89.246 321.907 90.883 321.912 C 91.994 321.92 93.105 321.929 94.25 321.938 C 95.94 321.944 95.94 321.944 97.664 321.951 C 100.443 321.963 103.221 321.979 106 322 C 106 322.33 106 322.66 106 323 C 104.891 323.061 103.783 323.121 102.641 323.184 C 101.177 323.268 99.714 323.353 98.25 323.438 C 97.52 323.477 96.791 323.516 96.039 323.557 C 92.564 323.762 89.363 324.147 86 325 C 84.251 325.066 82.5 325.086 80.75 325.063 C 79.858 325.053 78.966 325.044 78.047 325.035 C 77.371 325.024 76.696 325.012 76 325 C 79.414 321.586 82.979 321.878 87.641 321.902 Z " fill="rgb(211,63,80)"/><path d=" M 146 408 C 146.99 408 147.98 408 149 408 C 149 408.66 149 409.32 149 410 C 148.34 410 147.68 410 147 410 C 146.67 412.64 146.34 415.28 146 418 C 144.68 418 143.36 418 142 418 C 141.67 415.03 141.34 412.06 141 409 C 142.485 409.99 142.485 409.99 144 411 C 144.66 410.01 145.32 409.02 146 408 Z " fill="rgb(199,42,49)"/><path d=" M 174 322 C 171.384 323.744 169.797 324.459 166.875 325.313 C 161.864 326.909 157.5 329.309 153 332 C 153 331.01 153 330.02 153 329 C 153.66 329 154.32 329 155 329 C 155 328.34 155 327.68 155 327 C 160.264 322.924 167.437 321.577 174 322 Z " fill="rgb(217,195,194)"/><path d=" M 153 427 C 153.33 427 153.66 427 154 427 C 154.25 433.625 154.25 433.625 152 437 C 151.292 439.321 150.62 441.654 150 444 C 149.34 444 148.68 444 148 444 C 147.34 445.32 146.68 446.64 146 448 C 144.35 448 142.7 448 141 448 C 141.607 447.764 142.214 447.528 142.84 447.285 C 148.925 443.665 151.077 433.474 153 427 Z " fill="rgb(202,67,70)"/><path d=" M 94 453 C 98.788 456.536 103.465 460.145 108 464 C 107.01 464.33 106.02 464.66 105 465 C 105 464.34 105 463.68 105 463 C 104.01 463.33 103.02 463.66 102 464 C 101.753 463.361 101.505 462.721 101.25 462.063 C 100.216 459.815 100.216 459.815 98.063 459.5 C 97.382 459.335 96.701 459.17 96 459 C 94.25 456.938 94.25 456.938 93 455 C 93.33 454.34 93.66 453.68 94 453 Z " fill="rgb(215,207,207)"/><path d=" M 141 383 C 141.965 386.186 142.052 388.888 141.879 392.203 C 141.831 393.183 141.782 394.163 141.732 395.172 C 141.676 396.188 141.62 397.203 141.563 398.25 C 141.51 399.281 141.458 400.313 141.404 401.375 C 141.275 403.917 141.14 406.459 141 409 C 140.67 409 140.34 409 140 409 C 138.371 400.334 137.89 391.358 141 383 Z " fill="rgb(216,45,60)"/><path d=" M 112 381 C 113.32 381 114.64 381 116 381 C 118.481 392.522 118.481 392.522 117 398 C 116.67 398 116.34 398 116 398 C 115.67 393.71 115.34 389.42 115 385 C 113.35 385 111.7 385 110 385 C 110.66 383.68 111.32 382.36 112 381 Z " fill="rgb(202,92,82)"/><path d=" M 132 383 C 133.377 386.718 132.462 388.427 131 392 C 130.427 394.096 129.886 396.201 129.375 398.313 C 128.984 399.915 128.984 399.915 128.586 401.551 C 128.296 402.763 128.296 402.763 128 404 C 127.34 404 126.68 404 126 404 C 126.66 399.38 127.32 394.76 128 390 C 128.66 390 129.32 390 130 390 C 130.66 387.69 131.32 385.38 132 383 Z " fill="rgb(180,128,116)"/><path d=" M 65 329 C 65.66 329.33 66.32 329.66 67 330 C 65.719 331.707 64.382 333.374 63 335 C 62.34 335 61.68 335 61 335 C 60.34 336.65 59.68 338.3 59 340 C 57.68 339.67 56.36 339.34 55 339 C 56.1 337.705 57.205 336.414 58.313 335.125 C 58.927 334.406 59.542 333.686 60.176 332.945 C 62 331 62 331 65 329 Z " fill="rgb(218,76,83)"/><path d=" M 162 403 C 162.33 403.66 162.66 404.32 163 405 C 162.363 406.848 162.363 406.848 161.313 409.063 C 160.943 409.857 160.573 410.651 160.191 411.469 C 159.798 412.304 159.405 413.139 159 414 C 158.246 415.686 157.496 417.373 156.75 419.063 C 156.167 420.375 155.583 421.688 155 423 C 153.876 419.696 154.104 417.949 155.438 414.75 C 155.725 414.044 156.012 413.337 156.309 412.609 C 156.537 412.078 156.765 411.547 157 411 C 157.66 411 158.32 411 159 411 C 159.124 410.423 159.248 409.845 159.375 409.25 C 160.006 406.977 160.889 405.075 162 403 Z " fill="rgb(254,232,221)"/><path d=" M 204 324 C 205.32 324.33 206.64 324.66 208 325 C 208 325.66 208 326.32 208 327 C 209.32 327 210.64 327 212 327 C 215.189 329.733 217.241 332.223 219 336 C 218.504 335.613 218.007 335.227 217.496 334.828 C 213.151 331.497 208.814 328.607 204 326 C 204 325.34 204 324.68 204 324 Z " fill="rgb(210,194,200)"/><path d=" M 109 465 C 110.796 466.096 112.587 467.202 114.375 468.313 C 115.373 468.927 116.37 469.542 117.398 470.176 C 120 472 120 472 122 475 C 120.35 475 118.7 475 117 475 C 117 474.01 117 473.02 117 472 C 116.237 471.918 115.474 471.835 114.688 471.75 C 111.453 470.847 110.649 469.864 109 467 C 109 466.34 109 465.68 109 465 Z " fill="rgb(221,202,205)"/><path d=" M 211 426 C 211 430.033 209.391 431.835 207 435 C 206.34 435 205.68 435 205 435 C 204.67 435.99 204.34 436.98 204 438 C 203.34 437.67 202.68 437.34 202 437 C 203.408 433.785 205.103 431.678 207.625 429.25 C 208.257 428.636 208.888 428.023 209.539 427.391 C 210.262 426.702 210.262 426.702 211 426 Z " fill="rgb(218,189,196)"/><path d=" M 54 405 C 59.94 405 65.88 405 72 405 C 72 405.33 72 405.66 72 406 C 67.05 406 62.1 406 57 406 C 57.66 408.31 58.32 410.62 59 413 C 55.918 410.216 55.048 409.192 54 405 Z " fill="rgb(187,62,69)"/><path d=" M 111 385 C 112.32 385 113.64 385 115 385 C 115.33 388.63 115.66 392.26 116 396 C 114 392 114 392 114 388 C 113.34 388.66 112.68 389.32 112 390 C 111 391 110 392 109 393 C 109.66 390.36 110.32 387.72 111 385 Z " fill="rgb(216,30,37)"/><path d=" M 100 457 C 106.702 458.936 106.702 458.936 109 462 C 109 462.66 109 463.32 109 464 C 109.639 464.289 110.279 464.578 110.938 464.875 C 113 466 113 466 114 468 C 110.5 466.438 107.728 464.337 104.75 461.938 C 103.858 461.225 102.966 460.512 102.047 459.777 C 101.371 459.191 100.696 458.604 100 458 C 100 457.67 100 457.34 100 457 Z " fill="rgb(207,64,79)"/><path d=" M 67 424 C 68.938 424.375 68.938 424.375 71 425 C 71.33 425.66 71.66 426.32 72 427 C 72.99 427.33 73.98 427.66 75 428 C 75.33 429.98 75.66 431.96 76 434 C 74.868 433.092 73.745 432.173 72.625 431.25 C 71.999 430.74 71.372 430.229 70.727 429.703 C 68.917 427.918 67.999 426.321 67 424 Z " fill="rgb(218,55,70)"/><path d=" M 145 336 C 145.99 336.33 146.98 336.66 148 337 C 147.506 337.554 147.013 338.109 146.504 338.68 C 145.543 339.766 145.543 339.766 144.563 340.875 C 143.924 341.594 143.286 342.314 142.629 343.055 C 140.95 344.908 140.95 344.908 140 347 C 139.01 346.67 138.02 346.34 137 346 C 137.33 345.01 137.66 344.02 138 343 C 138.99 343 139.98 343 141 343 C 141 342.01 141 341.02 141 340 C 143 337.813 143 337.813 145 336 Z " fill="rgb(219,213,210)"/><path d=" M 171.188 465.375 C 172.085 465.684 172.085 465.684 173 466 C 169.004 469.711 166.629 471.598 161 472 C 167.985 464.826 167.985 464.826 171.188 465.375 Z " fill="rgb(218,204,209)"/><path d=" M 102 404 C 102.66 404 103.32 404 104 404 C 104 405.32 104 406.64 104 408 C 97.07 407.67 90.14 407.34 83 407 C 83 406.67 83 406.34 83 406 C 89.27 406 95.54 406 102 406 C 102 405.34 102 404.68 102 404 Z " fill="rgb(228,30,45)"/><path d=" M 109 354 C 110.65 354 112.3 354 114 354 C 113.01 354.33 112.02 354.66 111 355 C 110.045 357.265 110.045 357.265 109.438 359.938 C 108.199 364.801 108.199 364.801 106 367 C 106.115 365.582 106.243 364.166 106.375 362.75 C 106.445 361.961 106.514 361.172 106.586 360.359 C 107.015 357.914 107.786 356.152 109 354 Z " fill="rgb(213,74,81)"/><path d=" M 168.328 324.316 C 168.88 324.542 169.432 324.768 170 325 C 168.427 326.036 166.841 327.053 165.25 328.063 C 164.368 328.631 163.487 329.199 162.578 329.785 C 160 331 160 331 157.672 330.684 C 156.844 330.345 156.844 330.345 156 330 C 157.573 328.964 159.159 327.947 160.75 326.938 C 161.632 326.369 162.513 325.801 163.422 325.215 C 166 324 166 324 168.328 324.316 Z " fill="rgb(209,65,79)"/><path d=" M 159 472 C 159.66 472.33 160.32 472.66 161 473 C 160.01 474.485 160.01 474.485 159 476 C 158.01 476 157.02 476 156 476 C 156 476.99 156 477.98 156 479 C 153.69 479.33 151.38 479.66 149 480 C 151.079 477.819 153.219 476.036 155.688 474.313 C 156.31 473.876 156.933 473.439 157.574 472.988 C 158.045 472.662 158.515 472.336 159 472 Z " fill="rgb(219,192,198)"/><path d=" M 120 410 C 120.33 410 120.66 410 121 410 C 121.33 412.97 121.66 415.94 122 419 C 123.98 418.67 125.96 418.34 128 418 C 128 418.66 128 419.32 128 420 C 125.674 420.381 123.339 420.713 121 421 C 120 420 120 420 119.902 417.715 C 119.914 416.798 119.926 415.882 119.938 414.938 C 119.947 414.018 119.956 413.099 119.965 412.152 C 119.976 411.442 119.988 410.732 120 410 Z " fill="rgb(199,84,92)"/><path d=" M 141 404 C 142.98 404.99 144.96 405.98 147 407 C 145.515 409.475 145.515 409.475 144 412 C 142.5 410.813 142.5 410.813 141 409 C 140.813 406.313 140.813 406.313 141 404 Z " fill="rgb(225,23,41)"/><path d=" M 167 390 C 168.938 390.313 168.938 390.313 171 391 C 171.33 391.99 171.66 392.98 172 394 C 174 395.209 174 395.209 176 396 C 173.36 396 170.72 396 168 396 C 167.67 394.02 167.34 392.04 167 390 Z " fill="rgb(149,28,39)"/><path d=" M 64 422 C 67.919 425.804 71.491 429.816 75 434 C 71.613 432.561 69.641 430.779 67.25 428 C 66.636 427.299 66.023 426.598 65.391 425.875 C 64 424 64 424 64 422 Z " fill="rgb(225,190,192)"/><path d=" M 134 408 C 134.33 408 134.66 408 135 408 C 135 409.98 135 411.96 135 414 C 134.01 414 133.02 414 132 414 C 132 414.99 132 415.98 132 417 C 130.68 417.33 129.36 417.66 128 418 C 128.975 416.331 129.955 414.665 130.938 413 C 131.755 411.608 131.755 411.608 132.59 410.188 C 133.288 409.105 133.288 409.105 134 408 Z " fill="rgb(146,71,67)"/><path d=" M 126 477 C 127.483 477.785 128.961 478.578 130.438 479.375 C 131.673 480.036 131.673 480.036 132.934 480.711 C 135 482 135 482 136 484 C 129.51 483.51 129.51 483.51 127.063 481.063 C 126 479 126 479 126 477 Z " fill="rgb(222,192,197)"/><path d=" M 150 408 C 150.33 408 150.66 408 151 408 C 151 410.64 151 413.28 151 416 C 150.01 416.33 149.02 416.66 148 417 C 147.67 417.99 147.34 418.98 147 420 C 147.508 415.682 148.197 411.967 150 408 Z " fill="rgb(243,229,205)"/><path d=" M 173 391 C 173.66 391 174.32 391 175 391 C 175.33 391.66 175.66 392.32 176 393 C 178.586 393.468 178.586 393.468 181.563 393.625 C 183.08 393.737 183.08 393.737 184.629 393.852 C 185.803 393.925 185.803 393.925 187 394 C 187 394.33 187 394.66 187 395 C 182.71 395 178.42 395 174 395 C 173.67 393.68 173.34 392.36 173 391 Z " fill="rgb(215,27,48)"/><path d=" M 117 404 C 119.354 406.551 119.983 407.71 120.188 411.25 C 120.126 412.158 120.064 413.065 120 414 C 119.01 413.67 118.02 413.34 117 413 C 117 410.03 117 407.06 117 404 Z " fill="rgb(203,31,39)"/><path d=" M 231 388 C 232.155 391.934 231.836 394.973 231 399 C 230.01 399.495 230.01 399.495 229 400 C 227.84 396.521 228.225 395.658 229.438 392.313 C 229.869 391.1 229.869 391.1 230.309 389.863 C 230.537 389.248 230.765 388.634 231 388 Z " fill="rgb(218,180,187)"/><path d=" M 129 378 C 129.66 378.33 130.32 378.66 131 379 C 129.196 382.265 128.166 383.889 125 386 C 125 382 125 382 127 379.75 C 127.99 378.884 127.99 378.884 129 378 Z " fill="rgb(207,21,41)"/><path d=" M 151 333 C 151.66 333.33 152.32 333.66 153 334 C 151.813 336.438 151.813 336.438 150 339 C 147.313 339.813 147.313 339.813 145 340 C 146.98 337.69 148.96 335.38 151 333 Z " fill="rgb(209,85,90)"/><path d=" M 59 413 C 59.66 413 60.32 413 61 413 C 63.188 415.813 63.188 415.813 65 419 C 64.67 419.99 64.34 420.98 64 422 C 63.161 420.879 62.329 419.753 61.5 418.625 C 61.036 417.999 60.572 417.372 60.094 416.727 C 59 415 59 415 59 413 Z " fill="rgb(213,71,86)"/><path d=" M 163 401 C 164.32 401.33 165.64 401.66 167 402 C 167 402.66 167 403.32 167 404 C 168.98 404 170.96 404 173 404 C 173 404.33 173 404.66 173 405 C 170.36 405 167.72 405 165 405 C 164.34 403.68 163.68 402.36 163 401 Z " fill="rgb(244,205,209)"/><path d=" M 132 387 C 132.33 387 132.66 387 133 387 C 133.188 390.375 133.188 390.375 133 394 C 132.01 394.66 131.02 395.32 130 396 C 130.875 389.25 130.875 389.25 132 387 Z " fill="rgb(245,239,223)"/><path d=" M 60 335 C 60.33 335.66 60.66 336.32 61 337 C 60.01 338.485 60.01 338.485 59 340 C 57.68 339.67 56.36 339.34 55 339 C 57 336 57 336 60 335 Z " fill="rgb(223,57,74)"/></g></g></g></g></g></svg>