<?xml version="1.0" encoding="UTF-8" standalone="no"?>
<!-- Generator: Gravit.io -->
<svg xmlns="http://www.w3.org/2000/svg" xmlns:xlink="http://www.w3.org/1999/xlink" style="isolation:isolate" viewBox="0 0 1024 1024" width="1024pt" height="1024pt"><defs><clipPath id="_clipPath_4PA8EKvre8qUQhak3yOggwHH15kxG8HD"><rect width="1024" height="1024"/></clipPath></defs><g clip-path="url(#_clipPath_4PA8EKvre8qUQhak3yOggwHH15kxG8HD)"><clipPath id="_clipPath_WVMs1aepB8PPGWTBoVlwEeIazFobm74X"><rect x="0" y="0" width="1024" height="1024" transform="matrix(1,0,0,1,0,0)" fill="rgb(255,255,255)"/></clipPath><g clip-path="url(#_clipPath_WVMs1aepB8PPGWTBoVlwEeIazFobm74X)"><g><g><g><path d=" M 130 566 C 135.28 566 140.56 566 146 566 C 146.03 569.141 146.03 569.141 146.06 572.346 C 146.127 579.272 146.205 586.197 146.288 593.122 C 146.337 597.32 146.384 601.517 146.422 605.716 C 146.459 609.768 146.505 613.82 146.558 617.873 C 146.577 619.418 146.592 620.963 146.603 622.508 C 146.62 624.674 146.649 626.84 146.681 629.007 C 146.694 630.239 146.708 631.471 146.722 632.741 C 146.995 635.938 147.546 638.155 149 641 C 155.366 645.908 163.216 647.104 171 648 C 170.578 646.819 170.157 645.638 169.723 644.422 C 169.169 642.865 168.616 641.307 168.063 639.75 C 167.785 638.973 167.507 638.195 167.221 637.395 C 166.819 636.263 166.819 636.263 166.41 635.109 C 166.041 634.072 166.041 634.072 165.664 633.015 C 163.245 625.678 162.305 616.76 165.563 609.563 C 168.929 603.915 173.781 600.051 180 598 C 188.842 596.848 195.521 598.596 202.57 603.953 C 208.138 608.707 212.389 613.646 216 620 C 216.659 621.102 216.659 621.102 217.332 622.227 C 226.984 639.665 227.529 661.628 222.973 680.703 C 220.137 690.315 216.723 699.753 207.879 705.34 C 201.512 708.623 195.502 710.422 188.465 708.199 C 180.823 704.845 177.116 700.125 173.973 692.512 C 171.402 684.895 171.392 677.841 173 670 C 172.022 671.445 171.069 672.907 170.125 674.375 C 169.591 675.187 169.058 675.999 168.508 676.836 C 164.667 684.895 164.721 693.585 164.805 702.352 C 164.808 703.492 164.81 704.632 164.813 705.806 C 164.824 709.413 164.849 713.019 164.875 716.625 C 164.885 719.085 164.894 721.544 164.902 724.004 C 164.924 730.003 164.958 736.001 165 742 C 162.563 741.625 162.563 741.625 160 741 C 154.682 730.365 156.777 713.127 156.701 701.297 C 156.692 699.905 156.678 698.513 156.659 697.121 C 156.541 687.39 156.548 677.364 163.063 669.5 C 163.569 668.871 164.076 668.242 164.598 667.594 C 165.687 666.355 166.834 665.166 168 664 C 169.32 664 170.64 664 172 664 C 172 663.34 172 662.68 172 662 C 170.989 661.918 169.979 661.835 168.938 661.75 C 164.57 661.215 160.368 660.136 156.125 659 C 155.458 658.822 154.792 658.644 154.105 658.46 C 149.28 657.14 149.28 657.14 147 656 C 147.002 656.957 147.004 657.914 147.007 658.901 C 147.027 667.948 147.042 676.996 147.052 686.044 C 147.057 690.694 147.064 695.345 147.075 699.996 C 147.086 704.489 147.092 708.983 147.095 713.476 C 147.097 715.185 147.1 716.894 147.106 718.603 C 147.156 735.092 147.156 735.092 146 743 C 140.06 743 134.12 743 128 743 C 128 710.66 128 678.32 128 645 C 127.34 644.67 126.68 644.34 126 644 C 125.505 645.485 125.505 645.485 125 647 C 116.039 654.89 101.893 661.856 90 663 C 90.482 663.941 90.964 664.882 91.461 665.852 C 92.099 667.109 92.737 668.367 93.375 669.625 C 93.692 670.242 94.009 670.86 94.336 671.496 C 97.755 678.263 99.362 684.031 99.313 691.688 C 99.31 692.558 99.307 693.429 99.304 694.325 C 99.165 703.806 98.405 713.243 97.625 722.688 C 97.562 723.479 97.499 724.271 97.434 725.087 C 97.25 727.355 97.054 729.621 96.852 731.887 C 96.769 732.92 96.769 732.92 96.684 733.974 C 96.231 738.769 96.231 738.769 94 741 C 92.68 741 91.36 741 90 741 C 89.971 737.125 89.953 733.25 89.938 729.375 C 89.929 728.281 89.921 727.186 89.912 726.059 C 89.909 724.995 89.906 723.932 89.902 722.836 C 89.897 721.862 89.892 720.888 89.886 719.884 C 90.006 716.847 90.492 713.995 91 711 C 93 688.63 93 688.63 84 669 C 83.991 669.564 83.981 670.128 83.972 670.709 C 83.917 673.307 83.834 675.903 83.75 678.5 C 83.736 679.387 83.722 680.274 83.707 681.188 C 83.395 689.674 80.543 696.11 74.824 702.391 C 70.188 706.481 64.65 709.223 58.438 709.625 C 51.108 709.122 45.726 705.072 40.75 699.938 C 28.704 685.376 27.526 664.115 29 646 C 30.772 631.681 37.486 614.25 49 605 C 58.191 599.497 66.756 596.102 77.512 598.578 C 83.866 600.952 86.945 605.076 90 611 C 94.274 623.822 89.4 636.952 85 649 C 95.205 647.442 95.205 647.442 104.75 643.75 C 105.823 643.173 106.895 642.595 108 642 C 109.485 642.495 109.485 642.495 111 643 C 111 643.99 111 644.98 111 646 C 112.661 644.643 114.303 643.264 115.938 641.875 C 116.854 641.109 117.771 640.344 118.715 639.555 C 121.331 636.629 121.737 634.858 122 631 C 124.31 631 126.62 631 129 631 C 128.995 630.381 128.99 629.762 128.984 629.125 C 128.833 608.066 129.375 587.047 130 566 Z " fill="rgb(23,40,65)"/><path d=" M 81.988 600.523 C 86.501 603.836 89.255 608.764 91 614 C 92.259 626.753 89.344 637.107 85 649 C 95.205 647.442 95.205 647.442 104.75 643.75 C 105.823 643.173 106.895 642.595 108 642 C 109.485 642.495 109.485 642.495 111 643 C 109.926 645.915 109.222 647.778 107 650 C 100.793 652.769 94.766 654.489 88 655 C 88 655.66 88 656.32 88 657 C 87.34 657 86.68 657 86 657 C 86 658.32 86 659.64 86 661 C 86.585 661.017 87.17 661.034 87.773 661.051 C 91.328 662.566 92.182 665.82 93.625 669.188 C 93.924 669.848 94.223 670.509 94.531 671.189 C 97.614 678.099 99.362 684.038 99.313 691.688 C 99.31 692.558 99.307 693.429 99.304 694.325 C 99.165 703.806 98.405 713.243 97.625 722.688 C 97.562 723.479 97.499 724.271 97.434 725.087 C 97.25 727.355 97.054 729.621 96.852 731.887 C 96.769 732.92 96.769 732.92 96.684 733.974 C 96.231 738.769 96.231 738.769 94 741 C 92.68 741 91.36 741 90 741 C 89.971 737.125 89.953 733.25 89.938 729.375 C 89.929 728.281 89.921 727.186 89.912 726.059 C 89.909 724.995 89.906 723.932 89.902 722.836 C 89.897 721.862 89.892 720.888 89.886 719.884 C 90.006 716.847 90.492 713.995 91 711 C 93 688.63 93 688.63 84 669 C 83.991 669.564 83.981 670.128 83.972 670.709 C 83.917 673.307 83.834 675.903 83.75 678.5 C 83.736 679.387 83.722 680.274 83.707 681.188 C 83.395 689.674 80.543 696.11 74.824 702.391 C 70.188 706.481 64.65 709.223 58.438 709.625 C 51.108 709.122 45.726 705.072 40.75 699.938 C 28.704 685.376 27.526 664.115 29 646 C 30.772 631.681 37.486 614.25 49 605 C 59.429 598.756 70.395 594.737 81.988 600.523 Z " fill="rgb(22,39,63)"/><path d=" M 129 646 C 131.255 647.242 133.504 648.493 135.75 649.75 C 136.384 650.098 137.018 650.446 137.672 650.805 C 138.291 651.153 138.909 651.501 139.547 651.859 C 140.112 652.174 140.678 652.488 141.261 652.812 C 143.584 654.399 145.217 655.79 147 658 C 147.488 661.306 147.488 661.306 147.47 665.288 C 147.472 666.015 147.474 666.743 147.477 667.492 C 147.479 669.895 147.453 672.297 147.426 674.699 C 147.421 676.376 147.418 678.053 147.416 679.729 C 147.408 683.246 147.388 686.762 147.357 690.278 C 147.317 694.766 147.299 699.253 147.289 703.741 C 147.279 708.039 147.26 712.338 147.238 716.637 C 147.235 717.448 147.231 718.26 147.228 719.096 C 147.188 727.116 147.13 735.042 146 743 C 140.06 743 134.12 743 128 743 C 127.977 730.5 127.959 718.001 127.948 705.501 C 127.943 699.698 127.936 693.894 127.925 688.091 C 127.914 682.495 127.908 676.9 127.905 671.304 C 127.903 669.164 127.9 667.024 127.894 664.885 C 127.887 661.898 127.886 658.912 127.886 655.926 C 127.883 655.032 127.879 654.138 127.876 653.217 C 127.886 647.114 127.886 647.114 129 646 Z " fill="rgb(232,26,49)"/><path d=" M 130 566 C 135.28 566 140.56 566 146 566 C 146.02 568.094 146.04 570.189 146.06 572.346 C 146.127 579.272 146.205 586.197 146.288 593.122 C 146.337 597.32 146.384 601.517 146.422 605.716 C 146.459 609.768 146.505 613.82 146.558 617.873 C 146.577 619.418 146.592 620.963 146.603 622.508 C 146.62 624.674 146.649 626.84 146.681 629.007 C 146.694 630.239 146.708 631.471 146.722 632.741 C 146.995 635.938 147.546 638.155 149 641 C 154.745 645.429 161.587 646.744 168.629 647.641 C 171 648 171 648 172 649 C 172.041 651 172.043 653 172 655 C 155.095 652.231 145.193 648.221 133 636 C 132.289 635.388 131.579 634.775 130.846 634.144 C 128.559 631.488 128.519 630.283 128.574 626.82 C 128.582 625.764 128.59 624.707 128.598 623.618 C 128.627 622.465 128.657 621.313 128.688 620.125 C 128.703 618.926 128.718 617.727 128.734 616.491 C 128.786 613.093 128.858 609.696 128.943 606.298 C 129.004 603.853 129.06 601.407 129.116 598.962 C 129.369 587.973 129.672 576.987 130 566 Z " fill="rgb(231,17,42)"/><path d=" M 123 647 C 123.782 649.762 124.117 652.182 124.082 655.05 C 124.075 655.846 124.068 656.642 124.061 657.463 C 124.048 658.328 124.035 659.192 124.022 660.083 C 124.012 661 124.003 661.918 123.993 662.863 C 123.96 665.893 123.919 668.923 123.879 671.953 C 123.855 674.055 123.831 676.157 123.807 678.258 C 123.745 683.789 123.675 689.319 123.605 694.849 C 123.534 700.493 123.47 706.137 123.404 711.781 C 123.275 722.854 123.14 733.927 123 745 C 120.854 745.027 118.708 745.046 116.563 745.063 C 115.368 745.074 114.173 745.086 112.941 745.098 C 110 745 110 745 109 744 C 108.905 741.231 108.874 738.486 108.886 735.717 C 108.886 734.848 108.886 733.98 108.886 733.086 C 108.887 730.202 108.895 727.318 108.902 724.434 C 108.904 722.44 108.906 720.446 108.907 718.452 C 108.91 713.193 108.92 707.933 108.931 702.674 C 108.942 697.312 108.946 691.95 108.951 686.588 C 108.962 676.059 108.979 665.529 109 655 C 110.013 654.511 110.013 654.511 111.047 654.012 C 111.939 653.575 112.831 653.138 113.75 652.688 C 114.632 652.258 115.513 651.829 116.422 651.387 C 118.816 650.099 120.878 648.691 123 647 Z " fill="rgb(23,150,198)"/><path d=" M 123 565 C 123.046 573.484 123.082 581.969 123.104 590.453 C 123.114 594.393 123.128 598.334 123.151 602.274 C 123.173 606.08 123.185 609.886 123.19 613.692 C 123.193 615.14 123.201 616.589 123.211 618.037 C 123.226 620.074 123.228 622.11 123.227 624.147 C 123.231 625.304 123.236 626.461 123.241 627.653 C 122.871 632.801 122.104 636.771 118.617 640.652 C 117.26 641.783 117.26 641.783 115.875 642.938 C 114.965 643.71 114.055 644.482 113.117 645.277 C 112.419 645.846 111.72 646.414 111 647 C 110.34 646.67 109.68 646.34 109 646 C 109 619.333 109 592.667 109 566 C 113.724 565.348 118.22 564.88 123 565 Z " fill="rgb(16,152,202)"/><path d=" M 122 631 C 125.125 630.645 125.125 630.645 129 631 C 131.328 632.862 133.063 634.489 135 636.688 C 136.049 637.799 137.101 638.907 138.156 640.012 C 138.651 640.537 139.146 641.062 139.656 641.603 C 144.87 647.024 150.353 649.015 157.523 651.105 C 160 652 160 652 161 654 C 163.81 654.692 163.81 654.692 167.063 655.125 C 168.167 655.293 169.272 655.46 170.41 655.633 C 171.692 655.815 171.692 655.815 173 656 C 173 657.65 173 659.3 173 661 C 168.126 662.521 164.231 661.401 159.438 660.188 C 158.683 660.009 157.928 659.83 157.15 659.646 C 153.544 658.766 150.231 657.894 147 656 C 146.67 656.66 146.34 657.32 146 658 C 145.515 657.625 145.031 657.25 144.531 656.863 C 140.397 653.707 136.205 650.811 131.766 648.102 C 129.752 646.845 127.86 645.473 126 644 C 125.67 644.99 125.34 645.98 125 647 C 116.716 654.295 103.153 661.673 92.016 662.16 C 89.917 661.993 88.022 661.578 86 661 C 86 659.68 86 658.36 86 657 C 86.66 657 87.32 657 88 657 C 88 656.34 88 655.68 88 655 C 88.857 654.746 89.714 654.492 90.598 654.23 C 102.381 650.684 112.744 646.602 121 637 C 121.727 633.892 121.727 633.892 122 631 Z " fill="rgb(14,27,66)"/><path d=" M 170.625 663.875 C 171.409 663.916 172.193 663.958 173 664 C 173.886 669.611 171.606 672.647 168.508 677.047 C 164.505 684.887 164.723 693.743 164.805 702.352 C 164.808 703.492 164.81 704.632 164.813 705.806 C 164.824 709.413 164.849 713.019 164.875 716.625 C 164.885 719.085 164.894 721.544 164.902 724.004 C 164.924 730.003 164.958 736.001 165 742 C 162.563 741.625 162.563 741.625 160 741 C 154.682 730.365 156.777 713.127 156.701 701.297 C 156.692 699.905 156.678 698.513 156.659 697.121 C 156.541 687.39 156.548 677.364 163.063 669.5 C 163.569 668.871 164.076 668.242 164.598 667.594 C 167.749 664.012 167.749 664.012 170.625 663.875 Z " fill="rgb(10,27,50)"/><path d=" M 83 663 C 85.31 663 87.62 663 90 663 C 91.13 665.206 92.254 667.414 93.375 669.625 C 93.692 670.242 94.009 670.86 94.336 671.496 C 97.755 678.263 99.362 684.031 99.313 691.688 C 99.308 692.993 99.308 692.993 99.304 694.325 C 99.165 703.806 98.405 713.243 97.625 722.688 C 97.562 723.479 97.499 724.271 97.434 725.087 C 97.25 727.355 97.054 729.621 96.852 731.887 C 96.796 732.575 96.741 733.264 96.684 733.974 C 96.231 738.769 96.231 738.769 94 741 C 92.68 741 91.36 741 90 741 C 89.971 737.125 89.953 733.25 89.938 729.375 C 89.929 728.281 89.921 727.186 89.912 726.059 C 89.909 724.995 89.906 723.932 89.902 722.836 C 89.897 721.862 89.892 720.888 89.886 719.884 C 90.006 716.847 90.492 713.995 91 711 C 92.94 690.185 92.94 690.185 85.629 671.41 C 83.724 668.592 83.346 666.352 83 663 Z " fill="rgb(14,30,56)"/><path d=" M 68 602 C 68 602.66 68 603.32 68 604 C 68.66 604 69.32 604 70 604 C 68.532 607.73 66.663 609.136 63.313 611.25 C 49.294 620.837 44.213 634.744 41.154 650.858 C 40.206 656.22 39.553 661.585 39 667 C 36.525 667.495 36.525 667.495 34 668 C 33.515 655.618 34.215 644.827 38 633 C 38.289 632.067 38.578 631.133 38.875 630.172 C 42.917 618.695 50.978 610.062 60.688 603.063 C 63.311 601.857 65.145 601.755 68 602 Z " fill="rgb(214,228,232)"/><path d=" M 130 566 C 135.28 566 140.56 566 146 566 C 146.02 568.094 146.04 570.189 146.06 572.346 C 146.127 579.272 146.205 586.197 146.288 593.122 C 146.337 597.32 146.384 601.517 146.422 605.716 C 146.459 609.768 146.505 613.82 146.558 617.873 C 146.577 619.418 146.592 620.963 146.603 622.508 C 146.62 624.674 146.649 626.84 146.681 629.007 C 146.694 630.239 146.708 631.471 146.722 632.741 C 146.995 635.938 147.546 638.155 149 641 C 154.745 645.429 161.587 646.744 168.629 647.641 C 171 648 171 648 172 649 C 172.041 651 172.043 653 172 655 C 155.095 652.231 145.193 648.221 133 636 C 132.289 635.388 131.579 634.775 130.846 634.144 C 128.559 631.488 128.519 630.283 128.574 626.82 C 128.582 625.764 128.59 624.707 128.598 623.618 C 128.627 622.465 128.657 621.313 128.688 620.125 C 128.703 618.926 128.718 617.727 128.734 616.491 C 128.786 613.093 128.858 609.696 128.943 606.298 C 129.004 603.853 129.06 601.407 129.116 598.962 C 129.369 587.973 129.672 576.987 130 566 Z  M 131 567 C 130.907 574.85 130.836 582.699 130.793 590.549 C 130.772 594.195 130.744 597.84 130.698 601.485 C 130.655 605.006 130.631 608.527 130.62 612.048 C 130.61 614.038 130.578 616.029 130.547 618.02 C 130.423 626.861 130.423 626.861 135 634 C 135.66 634 136.32 634 137 634 C 137 634.66 137 635.32 137 636 C 137.66 636 138.32 636 139 636 C 139.33 637.65 139.66 639.3 140 641 C 140.99 641 141.98 641 143 641 C 144.688 642.5 144.688 642.5 146 644 C 145.934 643.205 145.869 642.409 145.801 641.59 C 144.771 627.441 144.67 613.267 144.468 599.088 C 144.417 595.574 144.362 592.06 144.307 588.547 C 144.2 581.698 144.099 574.849 144 568 C 141.355 566.678 139.322 566.903 136.375 566.938 C 134.871 566.951 134.871 566.951 133.336 566.965 C 132.18 566.982 132.18 566.982 131 567 Z " fill="rgb(192,22,43)"/><path d=" M 147 565 C 147 565.33 147 565.66 147 566 C 141.39 566 135.78 566 130 566 C 130.012 568.43 130.023 570.86 130.035 573.363 C 130.106 592.604 129.941 611.778 129 631 C 127.02 631 125.04 631 123 631 C 123.33 609.22 123.66 587.44 124 565 C 142 563 142 563 147 565 Z " fill="rgb(215,229,221)"/><path d=" M 129 646 C 131.255 647.242 133.504 648.493 135.75 649.75 C 136.384 650.098 137.018 650.446 137.672 650.805 C 138.291 651.153 138.909 651.501 139.547 651.859 C 140.112 652.174 140.678 652.488 141.261 652.812 C 143.584 654.399 145.217 655.79 147 658 C 147.488 661.306 147.488 661.306 147.47 665.288 C 147.472 666.015 147.474 666.743 147.477 667.492 C 147.479 669.895 147.453 672.297 147.426 674.699 C 147.421 676.376 147.418 678.053 147.416 679.729 C 147.408 683.246 147.388 686.762 147.357 690.278 C 147.317 694.766 147.299 699.253 147.289 703.741 C 147.279 708.039 147.26 712.338 147.238 716.637 C 147.235 717.448 147.231 718.26 147.228 719.096 C 147.188 727.116 147.13 735.042 146 743 C 140.06 743 134.12 743 128 743 C 127.977 730.5 127.959 718.001 127.948 705.501 C 127.943 699.698 127.936 693.894 127.925 688.091 C 127.914 682.495 127.908 676.9 127.905 671.304 C 127.903 669.164 127.9 667.024 127.894 664.885 C 127.887 661.898 127.886 658.912 127.886 655.926 C 127.883 655.032 127.879 654.138 127.876 653.217 C 127.886 647.114 127.886 647.114 129 646 Z  M 130 651 C 129.977 662.717 129.959 674.435 129.948 686.152 C 129.943 691.592 129.936 697.032 129.925 702.472 C 129.914 707.718 129.908 712.963 129.905 718.209 C 129.903 720.215 129.9 722.221 129.894 724.227 C 129.887 727.026 129.886 729.825 129.886 732.625 C 129.883 733.463 129.879 734.301 129.876 735.164 C 129.523 738.885 129.523 738.885 131 742 C 133.353 742.073 135.708 742.084 138.063 742.063 C 139.353 742.053 140.643 742.044 141.973 742.035 C 142.972 742.024 143.971 742.012 145 742 C 145.07 731.986 145.123 721.971 145.155 711.956 C 145.171 707.306 145.192 702.655 145.226 698.004 C 145.259 693.511 145.277 689.018 145.285 684.524 C 145.29 682.815 145.301 681.106 145.317 679.397 C 145.573 666.868 145.573 666.868 142 655 C 138.356 651.714 134.835 650.809 130 651 Z " fill="rgb(209,68,83)"/><path d=" M 123 565 C 123.046 573.484 123.082 581.969 123.104 590.453 C 123.114 594.393 123.128 598.334 123.151 602.274 C 123.173 606.08 123.185 609.886 123.19 613.692 C 123.193 615.14 123.201 616.589 123.211 618.037 C 123.226 620.074 123.228 622.11 123.227 624.147 C 123.231 625.304 123.236 626.461 123.241 627.653 C 122.871 632.801 122.104 636.771 118.617 640.652 C 117.26 641.783 117.26 641.783 115.875 642.938 C 114.965 643.71 114.055 644.482 113.117 645.277 C 112.419 645.846 111.72 646.414 111 647 C 110.34 646.67 109.68 646.34 109 646 C 109 619.333 109 592.667 109 566 C 113.724 565.348 118.22 564.88 123 565 Z  M 113 567 C 110.691 568.877 110.691 568.877 110.759 571.936 C 110.764 573.193 110.768 574.45 110.773 575.745 C 110.773 576.437 110.772 577.13 110.772 577.844 C 110.773 580.138 110.789 582.432 110.805 584.727 C 110.808 586.316 110.811 587.905 110.813 589.493 C 110.821 593.679 110.841 597.865 110.863 602.05 C 110.883 606.32 110.892 610.59 110.902 614.859 C 110.924 623.24 110.958 631.62 111 640 C 112.65 640.33 114.3 640.66 116 641 C 116.33 639.68 116.66 638.36 117 637 C 118.98 636.505 118.98 636.505 121 636 C 121 613.23 121 590.46 121 567 C 118.36 567 115.72 567 113 567 Z " fill="rgb(43,151,186)"/><path d=" M 126 644 C 126.99 644.33 127.98 644.66 129 645 C 128.975 645.654 128.95 646.308 128.924 646.982 C 128.111 669.003 127.759 691.03 127.438 713.063 C 127.426 713.823 127.415 714.584 127.404 715.368 C 127.265 724.912 127.131 734.456 127 744 C 126.01 744 125.02 744 124 744 C 123.954 731.405 123.918 718.809 123.896 706.214 C 123.886 700.366 123.872 694.517 123.849 688.669 C 123.827 683.028 123.815 677.387 123.81 671.746 C 123.807 669.591 123.799 667.436 123.789 665.281 C 123.774 662.269 123.772 659.257 123.773 656.245 C 123.766 655.349 123.759 654.452 123.751 653.529 C 123.754 652.709 123.757 651.888 123.759 651.043 C 123.757 649.974 123.757 649.974 123.754 648.884 C 124 647 124 647 126 644 Z " fill="rgb(214,230,223)"/><path d=" M 147 658 C 149.134 662.267 149.085 664.35 149 669 C 149.33 669.99 149.66 670.98 150 672 C 150.099 673.926 150.138 675.856 150.145 677.785 C 150.152 678.973 150.158 680.161 150.165 681.385 C 150.166 682.67 150.167 683.954 150.168 685.277 C 150.171 686.595 150.175 687.913 150.178 689.271 C 150.184 692.061 150.186 694.851 150.185 697.641 C 150.185 701.214 150.199 704.786 150.216 708.358 C 150.23 711.769 150.229 715.179 150.23 718.59 C 150.238 719.872 150.245 721.155 150.252 722.476 C 150.249 723.667 150.246 724.858 150.243 726.086 C 150.244 727.134 150.246 728.182 150.247 729.261 C 150 732 150 732 149.047 733.87 C 147.456 736.813 147.456 736.813 147 744 C 140.4 744 133.8 744 127 744 C 127 722.22 127 700.44 127 678 C 127.33 678 127.66 678 128 678 C 128 699.45 128 720.9 128 743 C 133.94 743 139.88 743 146 743 C 146.33 714.95 146.66 686.9 147 658 Z " fill="rgb(233,198,202)"/><path d=" M 109 656 C 109.33 685.04 109.66 714.08 110 744 C 112.702 745.351 115.118 745.339 118.125 745.563 C 119.769 745.688 119.769 745.688 121.445 745.816 C 122.288 745.877 123.131 745.938 124 746 C 124 746.33 124 746.66 124 747 C 119.05 747 114.1 747 109 747 C 106.858 742.717 106.694 739.656 106.681 735.019 C 106.671 734.218 106.661 733.418 106.651 732.593 C 106.62 729.953 106.603 727.312 106.586 724.672 C 106.567 722.839 106.548 721.006 106.527 719.174 C 106.476 714.354 106.436 709.533 106.399 704.713 C 106.359 699.793 106.308 694.873 106.258 689.953 C 106.161 680.302 106.077 670.651 106 661 C 105.01 661.66 104.02 662.32 103 663 C 102.01 663 101.02 663 100 663 C 99.01 663.495 99.01 663.495 98 664 C 97.34 664.144 96.68 664.289 96 664.438 C 93.791 664.883 93.791 664.883 92 667 C 91.01 665.35 90.02 663.7 89 662 C 89.869 661.818 90.738 661.636 91.633 661.449 C 96.56 660.374 104.349 656 109 656 Z " fill="rgb(172,228,234)"/><path d=" M 123 647 C 123.782 649.762 124.117 652.182 124.082 655.05 C 124.075 655.846 124.068 656.642 124.061 657.463 C 124.048 658.328 124.035 659.192 124.022 660.083 C 124.012 661 124.003 661.918 123.993 662.863 C 123.96 665.893 123.919 668.923 123.879 671.953 C 123.855 674.055 123.831 676.157 123.807 678.258 C 123.745 683.789 123.675 689.319 123.605 694.849 C 123.534 700.493 123.47 706.137 123.404 711.781 C 123.275 722.854 123.14 733.927 123 745 C 120.854 745.027 118.708 745.046 116.563 745.063 C 115.368 745.074 114.173 745.086 112.941 745.098 C 110 745 110 745 109 744 C 108.906 742.159 108.883 740.314 108.886 738.47 C 108.887 737.289 108.887 736.108 108.887 734.891 C 108.892 733.606 108.897 732.32 108.902 730.996 C 108.904 729.688 108.905 728.38 108.907 727.032 C 108.91 723.548 108.92 720.065 108.931 716.581 C 108.942 713.029 108.946 709.476 108.951 705.924 C 108.962 698.949 108.979 691.975 109 685 C 109.33 685 109.66 685 110 685 C 110.33 688.3 110.66 691.6 111 695 C 111.33 695 111.66 695 112 695 C 112.025 699.407 112.043 703.813 112.055 708.22 C 112.06 709.711 112.067 711.203 112.075 712.694 C 112.136 723.173 111.784 733.55 111 744 C 114.63 744 118.26 744 122 744 C 122 713.64 122 683.28 122 652 C 120.35 652 118.7 652 117 652 C 117.804 651.361 118.609 650.721 119.438 650.063 C 121.275 648.594 121.275 648.594 123 647 Z " fill="rgb(29,136,168)"/><path d=" M 45 629 C 44.292 636.313 42.985 643.358 41.461 650.539 C 40.324 656.02 39.539 661.427 39 667 C 36.525 667.495 36.525 667.495 34 668 C 33.469 654.422 34.699 642.904 39 630 C 41.1 629.255 42.774 629 45 629 Z " fill="rgb(219,231,235)"/><path d=" M 83 663 C 85.31 663 87.62 663 90 663 C 91.148 665.27 92.294 667.541 93.438 669.813 C 93.763 670.455 94.088 671.098 94.424 671.76 C 97.328 677.539 98.135 681.785 98.063 688.188 C 98.058 688.937 98.053 689.687 98.049 690.459 C 98.037 692.306 98.019 694.153 98 696 C 97.67 696 97.34 696 97 696 C 96.67 694.02 96.34 692.04 96 690 C 95.34 690 94.68 690 94 690 C 94 692.97 94 695.94 94 699 C 93.67 699 93.34 699 93 699 C 92.937 697.924 92.874 696.847 92.809 695.738 C 92.089 686.431 90.598 679.826 85.559 671.832 C 83.901 668.821 83.367 666.396 83 663 Z " fill="rgb(8,15,32)"/><path d=" M 130 566 C 135.28 566 140.56 566 146 566 C 146 583.82 146 601.64 146 620 C 145.67 620 145.34 620 145 620 C 145 602.51 145 585.02 145 567 C 140.38 567 135.76 567 131 567 C 131.063 574.867 131.138 582.734 131.236 590.601 C 131.28 594.254 131.32 597.907 131.346 601.561 C 131.372 605.088 131.413 608.615 131.463 612.143 C 131.488 614.139 131.498 616.136 131.508 618.133 C 131.527 619.354 131.547 620.575 131.568 621.833 C 131.579 622.905 131.59 623.978 131.601 625.083 C 132.055 628.406 133.026 630.311 135 633 C 135.66 633.33 136.32 633.66 137 634 C 137 634.66 137 635.32 137 636 C 137.66 636 138.32 636 139 636 C 139.33 637.32 139.66 638.64 140 640 C 135.725 639.215 133.405 637.378 130.453 634.262 C 127.604 629.826 128.252 625.035 128.5 619.938 C 128.529 618.752 128.558 617.566 128.588 616.345 C 128.656 613.706 128.738 611.072 128.84 608.435 C 129.025 603.527 129.138 598.617 129.25 593.707 C 129.465 584.47 129.724 575.235 130 566 Z " fill="rgb(197,51,71)"/><path d=" M 141 654 C 143.468 655.152 145.048 656.048 147 658 C 147.188 660.439 147.252 662.764 147.227 665.204 C 147.227 665.945 147.228 666.687 147.228 667.451 C 147.227 669.907 147.211 672.364 147.195 674.82 C 147.192 676.521 147.189 678.222 147.187 679.924 C 147.179 684.405 147.159 688.887 147.137 693.368 C 147.117 697.939 147.108 702.511 147.098 707.082 C 147.076 716.055 147.042 725.027 147 734 C 146.01 734.495 146.01 734.495 145 735 C 144.994 734.133 144.988 733.265 144.982 732.372 C 144.924 724.163 144.852 715.955 144.764 707.746 C 144.72 703.527 144.68 699.308 144.654 695.089 C 144.627 691.01 144.587 686.932 144.537 682.854 C 144.52 681.305 144.509 679.755 144.502 678.206 C 144.465 669.748 144.171 661.984 141 654 Z " fill="rgb(198,82,95)"/><path d=" M 150.813 651.188 C 153.26 651.595 155.392 652.134 157.75 652.938 C 162.718 654.562 167.842 655.215 173 656 C 173 657.65 173 659.3 173 661 C 168.186 662.475 164.369 661.478 159.625 660.313 C 158.895 660.151 158.166 659.989 157.414 659.822 C 152.351 658.615 148.41 656.764 144 654 C 146.025 650.836 146.973 650.999 150.813 651.188 Z " fill="rgb(10,81,110)"/><path d=" M 108 642 C 108.99 642.33 109.98 642.66 111 643 C 109.926 645.915 109.222 647.778 107 650 C 99.764 653.119 91.929 656 84 656 C 84 653.36 84 650.72 84 648 C 85.052 648.083 86.104 648.165 87.188 648.25 C 94.3 648.275 102.104 645.93 108 642 Z " fill="rgb(219,42,64)"/><path d=" M 124 564 C 124 582.48 124 600.96 124 620 C 123.67 620 123.34 620 123 620 C 123 601.85 123 583.7 123 565 C 121.02 565.33 119.04 565.66 117 566 C 114.36 566 111.72 566 109 566 C 109 587.12 109 608.24 109 630 C 108.67 630 108.34 630 108 630 C 108 608.55 108 587.1 108 565 C 119.455 561.727 119.455 561.727 124 564 Z " fill="rgb(142,206,220)"/><path d=" M 98 683 C 98.33 683 98.66 683 99 683 C 99.229 695.196 99.072 706.956 97 719 C 96.67 719 96.34 719 96 719 C 95.67 716.69 95.34 714.38 95 712 C 94.01 712 93.02 712 92 712 C 92 704.08 92 696.16 92 688 C 92.66 688.66 93.32 689.32 94 690 C 94.99 689.67 95.98 689.34 97 689 C 97.33 687.02 97.66 685.04 98 683 Z " fill="rgb(15,27,49)"/><path d=" M 105 651 C 106.32 651 107.64 651 109 651 C 109.33 651.66 109.66 652.32 110 653 C 110.99 653.33 111.98 653.66 113 654 C 97.083 663.555 97.083 663.555 87.723 661.5 C 87.154 661.335 86.586 661.17 86 661 C 86 659.68 86 658.36 86 657 C 86.54 656.854 87.08 656.708 87.636 656.557 C 90.071 655.896 92.504 655.229 94.938 654.563 C 95.788 654.332 96.638 654.102 97.514 653.865 C 98.727 653.532 98.727 653.532 99.965 653.191 C 100.714 652.987 101.463 652.783 102.234 652.573 C 104.005 652.146 104.005 652.146 105 651 Z " fill="rgb(8,65,134)"/><path d=" M 128 566 C 128.66 566 129.32 566 130 566 C 130.113 587.694 130.061 609.326 129 631 C 126.634 627.451 126.754 625.968 126.77 621.762 C 126.771 620.48 126.772 619.198 126.773 617.877 C 126.786 616.48 126.799 615.084 126.813 613.688 C 126.819 612.261 126.826 610.835 126.832 609.408 C 126.92 594.93 127.409 580.465 128 566 Z " fill="rgb(238,201,198)"/><path d=" M 33 630 C 33.66 630.99 34.32 631.98 35 633 C 34.34 633 33.68 633 33 633 C 33.33 633.66 33.66 634.32 34 635 C 35.32 634.67 36.64 634.34 38 634 C 37.795 634.897 37.59 635.794 37.379 636.719 C 35.338 646.169 34.368 655.345 34 665 C 33.67 665 33.34 665 33 665 C 32.67 659.39 32.34 653.78 32 648 C 31.34 648 30.68 648 30 648 C 30 654.27 30 660.54 30 667 C 29.67 667 29.34 667 29 667 C 28.507 653.99 29.055 642.452 33 630 Z " fill="rgb(39,58,77)"/><path d=" M 125 583 C 125.33 583 125.66 583 126 583 C 126.33 584.65 126.66 586.3 127 588 C 127.33 588 127.66 588 128 588 C 128 602.19 128 616.38 128 631 C 125 628 125 628 124.639 625.931 C 124.646 625.138 124.653 624.345 124.659 623.529 C 124.66 622.628 124.66 621.727 124.66 620.799 C 124.676 619.83 124.691 618.861 124.707 617.863 C 124.711 616.869 124.716 615.874 124.72 614.849 C 124.737 611.67 124.774 608.492 124.813 605.313 C 124.828 603.158 124.841 601.004 124.854 598.85 C 124.887 593.566 124.937 588.283 125 583 Z " fill="rgb(215,226,212)"/><path d=" M 109 566 C 109.33 566 109.66 566 110 566 C 110.33 590.75 110.66 615.5 111 641 C 112.32 641.33 113.64 641.66 115 642 C 115 642.66 115 643.32 115 644 C 113 645.625 113 645.625 111 647 C 110.34 646.67 109.68 646.34 109 646 C 109 619.333 109 592.667 109 566 Z " fill="rgb(31,128,161)"/><path d=" M 124 566 C 124.33 566 124.66 566 125 566 C 125.01 566.77 125.021 567.54 125.031 568.334 C 125.129 575.588 125.232 582.842 125.339 590.096 C 125.395 593.825 125.448 597.555 125.497 601.284 C 125.545 604.883 125.597 608.482 125.653 612.08 C 125.673 613.454 125.692 614.827 125.709 616.201 C 125.733 618.123 125.764 620.046 125.795 621.968 C 125.81 623.063 125.826 624.158 125.842 625.285 C 125.887 628.096 125.887 628.096 127 631 C 125.68 631 124.36 631 123 631 C 123.33 609.55 123.66 588.1 124 566 Z " fill="rgb(204,235,231)"/><path d=" M 146 655 C 147.134 655.413 148.269 655.825 149.438 656.25 C 156.802 658.725 164.43 660.288 172 662 C 172 662.66 172 663.32 172 664 C 169.69 664.66 167.38 665.32 165 666 C 165 665.01 165 664.02 165 663 C 164.196 663.021 163.391 663.041 162.563 663.063 C 160 663 160 663 159 662 C 157.151 661.766 155.295 661.587 153.438 661.438 C 152.426 661.354 151.414 661.27 150.371 661.184 C 149.197 661.093 149.197 661.093 148 661 C 147.34 659.02 146.68 657.04 146 655 Z " fill="rgb(177,229,225)"/><path d=" M 165 687 C 167 689 167 689 167.203 690.949 C 167.18 691.744 167.158 692.539 167.135 693.358 C 167.115 694.259 167.095 695.159 167.074 696.088 C 167.042 697.062 167.01 698.036 166.977 699.039 C 166.952 700.035 166.927 701.031 166.901 702.057 C 166.818 705.247 166.722 708.436 166.625 711.625 C 166.567 713.784 166.509 715.943 166.453 718.102 C 166.313 723.401 166.161 728.701 166 734 C 165.67 734 165.34 734 165 734 C 164.374 722.606 163.898 711.226 163.875 699.813 C 163.87 698.875 163.866 697.938 163.861 696.972 C 163.863 696.101 163.865 695.23 163.867 694.332 C 163.868 693.566 163.869 692.8 163.871 692.011 C 164 690 164 690 165 687 Z " fill="rgb(177,200,207)"/><path d=" M 68 599 C 68 599.66 68 600.32 68 601 C 66.969 601.413 65.938 601.825 64.875 602.25 C 62.17 603.387 60.265 604.519 57.813 606.25 C 55 608 55 608 52.625 607.75 C 52.089 607.503 51.552 607.255 51 607 C 51.242 605.141 51.242 605.141 52 603 C 56.952 599.557 62.093 598.497 68 599 Z " fill="rgb(19,36,57)"/><path d=" M 112.063 646.938 C 113.517 646.968 113.517 646.968 115 647 C 114.67 648.65 114.34 650.3 114 652 C 114.66 652.33 115.32 652.66 116 653 C 113.69 653.33 111.38 653.66 109 654 C 109 653.01 109 652.02 109 651 C 108.322 651.277 107.644 651.554 106.945 651.84 C 100.577 654.318 94.828 655.704 88 656 C 90.781 654.146 92.594 653.43 95.75 652.563 C 101.017 651.043 106.939 647.042 112.063 646.938 Z " fill="rgb(24,44,102)"/><path d=" M 146 636 C 146.206 636.578 146.413 637.155 146.625 637.75 C 148.498 640.814 150.97 642.155 154 644 C 153.01 644.33 152.02 644.66 151 645 C 150.34 644.67 149.68 644.34 149 644 C 149.998 646.993 150.752 647.948 153 650 C 146.407 648.764 142.755 645.619 138 641 C 140 640 140 640 144 640 C 144.33 640.33 144.66 640.66 145 641 C 145.33 639.35 145.66 637.7 146 636 Z " fill="rgb(195,34,59)"/><path d=" M 113 644 C 113.66 644.33 114.32 644.66 115 645 C 115.33 644.67 115.66 644.34 116 644 C 117.32 644 118.64 644 120 644 C 120 644.66 120 645.32 120 646 C 120.66 646 121.32 646 122 646 C 122.33 645.34 122.66 644.68 123 644 C 123.99 644.66 124.98 645.32 126 646 C 124.568 647.008 123.129 648.006 121.688 649 C 120.887 649.557 120.086 650.114 119.262 650.688 C 117 652 117 652 114 652 C 114 650.68 114 649.36 114 648 C 112.68 647.67 111.36 647.34 110 647 C 110.99 646.01 111.98 645.02 113 644 Z " fill="rgb(7,37,85)"/><path d=" M 33 647 C 33.061 648.253 33.121 649.506 33.184 650.797 C 33.268 652.448 33.353 654.099 33.438 655.75 C 33.477 656.575 33.516 657.4 33.557 658.25 C 33.599 659.049 33.64 659.848 33.684 660.672 C 33.72 661.405 33.757 662.138 33.795 662.894 C 34.001 665.012 34.431 666.952 35 669 C 34.01 669.33 33.02 669.66 32 670 C 29.983 662.563 29.786 655.684 30 648 C 32 647 32 647 33 647 Z " fill="rgb(17,27,52)"/><path d=" M 124 651 C 124.99 651 125.98 651 127 651 C 127.115 657.923 126.675 664.674 126 671.563 C 125.905 672.571 125.809 673.58 125.711 674.619 C 125.478 677.08 125.241 679.54 125 682 C 124.67 682 124.34 682 124 682 C 124 671.77 124 661.54 124 651 Z " fill="rgb(231,246,248)"/><path d=" M 170.625 663.875 C 171.409 663.916 172.193 663.958 173 664 C 173.313 666.688 173.313 666.688 173 670 C 170.5 672.875 170.5 672.875 168 675 C 167.876 674.361 167.753 673.721 167.625 673.063 C 167.419 672.382 167.213 671.701 167 671 C 166.34 670.67 165.68 670.34 165 670 C 165.761 666.197 166.348 664.079 170.625 663.875 Z " fill="rgb(7,21,32)"/><path d=" M 147 658 C 149.139 661.817 149.079 664.634 149 669 C 149.33 669.99 149.66 670.98 150 672 C 150.016 673.848 149.967 675.697 149.879 677.543 C 149.831 678.616 149.782 679.689 149.732 680.795 C 149.676 681.914 149.62 683.034 149.563 684.188 C 149.51 685.319 149.458 686.45 149.404 687.615 C 149.275 690.41 149.14 693.205 149 696 C 148.67 696 148.34 696 148 696 C 147.069 683.318 146.888 670.714 147 658 Z " fill="rgb(208,222,221)"/><path d=" M 122 652 C 122 655.96 122 659.92 122 664 C 121.67 664 121.34 664 121 664 C 120.34 660.7 119.68 657.4 119 654 C 114.779 656.274 114.779 656.274 112.188 660.063 C 112.126 660.702 112.064 661.341 112 662 C 111.67 662.99 111.34 663.98 111 665 C 110 664 110 664 109.902 661.934 C 109.914 661.11 109.926 660.286 109.938 659.438 C 109.947 658.611 109.956 657.785 109.965 656.934 C 109.976 656.296 109.988 655.657 110 655 C 114.632 652.353 116.35 652 122 652 Z " fill="rgb(45,168,205)"/><path d=" M 68 602 C 68 602.66 68 603.32 68 604 C 68.66 604 69.32 604 70 604 C 68.951 606.622 68.351 607.794 65.875 609.25 C 65.256 609.498 64.638 609.745 64 610 C 63.567 609.546 63.134 609.093 62.688 608.625 C 60.892 606.8 60.892 606.8 58 605 C 61.512 602.592 63.727 601.634 68 602 Z " fill="rgb(201,218,219)"/><path d=" M 126 644 C 126.99 644.33 127.98 644.66 129 645 C 128.67 655.89 128.34 666.78 128 678 C 127.67 678 127.34 678 127 678 C 127 669.09 127 660.18 127 651 C 126.01 651 125.02 651 124 651 C 124.875 646.25 124.875 646.25 126 644 Z " fill="rgb(252,221,230)"/><path d=" M 93 708 C 96.172 711.435 96.458 714.153 96.688 718.75 C 96.753 719.92 96.819 721.091 96.887 722.297 C 96.924 723.189 96.961 724.081 97 725 C 96.67 725 96.34 725 96 725 C 95.34 722.03 94.68 719.06 94 716 C 93.34 716 92.68 716 92 716 C 91.67 719.3 91.34 722.6 91 726 C 90.67 726 90.34 726 90 726 C 89.738 712.893 89.738 712.893 93 708 Z " fill="rgb(33,49,74)"/><path d=" M 121 610 C 121.33 610 121.66 610 122 610 C 122.204 614.374 122.328 618.747 122.438 623.125 C 122.496 624.363 122.555 625.6 122.615 626.875 C 122.785 635.91 122.785 635.91 120.411 639.206 C 118.672 640.696 117.008 641.908 115 643 C 114.34 642.34 113.68 641.68 113 641 C 113.99 641 114.98 641 116 641 C 116.103 640.361 116.206 639.721 116.313 639.063 C 116.539 638.382 116.766 637.701 117 637 C 117.99 636.67 118.98 636.34 120 636 C 120.33 627.42 120.66 618.84 121 610 Z " fill="rgb(46,144,183)"/><path d=" M 158.5 653.063 C 159.325 653.372 160.15 653.681 161 654 C 161 654.33 161 654.66 161 655 C 155.72 655 150.44 655 145 655 C 145 654.01 145 653.02 145 652 C 149.058 649.971 154.341 651.8 158.5 653.063 Z " fill="rgb(4,50,87)"/><path d=" M 129 646 C 134.94 649.465 134.94 649.465 141 653 C 139 654 139 654 136.836 653.441 C 136.024 653.151 135.212 652.861 134.375 652.563 C 133.558 652.275 132.74 651.988 131.898 651.691 C 131.272 651.463 130.645 651.235 130 651 C 130 653.31 130 655.62 130 658 C 128 656 128 656 127.77 653.871 C 127.791 652.666 127.791 652.666 127.813 651.438 C 127.819 650.632 127.825 649.826 127.832 648.996 C 128 647 128 647 129 646 Z " fill="rgb(197,59,86)"/><path d=" M 109 616 C 109.33 616 109.66 616 110 616 C 110.33 624.25 110.66 632.5 111 641 C 112.32 641.33 113.64 641.66 115 642 C 115 642.66 115 643.32 115 644 C 113 645.625 113 645.625 111 647 C 110.34 646.67 109.68 646.34 109 646 C 109 636 109 626 109 616 Z " fill="rgb(79,119,152)"/><path d=" M 84 670 C 88.952 674.952 88.952 674.952 90 678 C 89.625 680.25 89.625 680.25 89 682 C 88.67 681.01 88.34 680.02 88 679 C 87.34 678.67 86.68 678.34 86 678 C 85.67 680.97 85.34 683.94 85 687 C 84.67 687 84.34 687 84 687 C 84 681.39 84 675.78 84 670 Z " fill="rgb(205,228,234)"/><path d=" M 97 655 C 96.01 655.495 96.01 655.495 95 656 C 95 656.66 95 657.32 95 658 C 94.01 658 93.02 658 92 658 C 91.67 659.32 91.34 660.64 91 662 C 89.35 661.67 87.7 661.34 86 661 C 86 659.68 86 658.36 86 657 C 89.823 655.577 92.913 654.76 97 655 Z " fill="rgb(4,47,119)"/><path d=" M 141 654 C 144.875 655.875 144.875 655.875 146 657 C 146.087 658.562 146.107 660.127 146.098 661.691 C 146.094 662.636 146.091 663.58 146.088 664.553 C 146.08 665.546 146.071 666.539 146.063 667.563 C 146.058 668.56 146.053 669.557 146.049 670.584 C 146.037 673.056 146.021 675.528 146 678 C 145.67 678 145.34 678 145 678 C 144.963 677.105 144.925 676.211 144.887 675.289 C 144.478 667.774 143.593 661.078 141 654 Z " fill="rgb(178,28,46)"/><path d=" M 149 641 C 150.32 641 151.64 641 153 641 C 153 641.66 153 642.32 153 643 C 156.655 643.752 160.317 644.4 164 645 C 164 645.66 164 646.32 164 647 C 167.465 646.505 167.465 646.505 171 646 C 171 646.66 171 647.32 171 648 C 164.025 648.526 158.308 647.047 152 644 C 150.176 642.363 150.176 642.363 149 641 Z " fill="rgb(219,194,199)"/><path d=" M 111 643 C 109.926 645.915 109.222 647.778 107 650 C 105.012 650.398 103.011 650.738 101 651 C 103.052 648.752 104.007 647.998 107 647 C 107.33 646.34 107.66 645.68 108 645 C 107.423 645.351 106.845 645.701 106.25 646.063 C 103.602 647.166 102.668 646.802 100 646 C 101.264 645.3 102.537 644.616 103.813 643.938 C 104.52 643.555 105.228 643.172 105.957 642.777 C 108 642 108 642 111 643 Z " fill="rgb(179,59,91)"/><path d=" M 160 647 C 161.813 647.14 163.625 647.287 165.438 647.438 C 166.952 647.559 166.952 647.559 168.496 647.684 C 171 648 171 648 172 649 C 172.041 651 172.043 653 172 655 C 169.36 654.67 166.72 654.34 164 654 C 164 653.67 164 653.34 164 653 C 165.65 653 167.3 653 169 653 C 168.67 652.01 168.34 651.02 168 650 C 166.126 649.198 166.126 649.198 163.938 648.813 C 163.204 648.654 162.471 648.495 161.715 648.332 C 161.149 648.222 160.583 648.113 160 648 C 160 647.67 160 647.34 160 647 Z " fill="rgb(174,42,62)"/><path d=" M 104 655 C 104 655.66 104 656.32 104 657 C 102.753 657.508 101.503 658.006 100.25 658.5 C 99.554 658.778 98.858 659.057 98.141 659.344 C 96 660 96 660 92 660 C 92 659.34 92 658.68 92 658 C 92.99 658 93.98 658 95 658 C 95 657.34 95 656.68 95 656 C 97.957 654.522 100.742 654.94 104 655 Z " fill="rgb(1,60,150)"/><path d=" M 110 566 C 113.96 566 117.92 566 122 566 C 122 566.33 122 566.66 122 567 C 121.043 567.091 121.043 567.091 120.066 567.184 C 119.24 567.267 118.414 567.351 117.563 567.438 C 116.327 567.559 116.327 567.559 115.066 567.684 C 113.013 567.789 113.013 567.789 112 569 C 111.763 571.859 111.578 574.699 111.438 577.563 C 111.394 578.369 111.351 579.175 111.307 580.006 C 111.2 582.004 111.1 584.002 111 586 C 110.67 586 110.34 586 110 586 C 110 579.4 110 572.8 110 566 Z " fill="rgb(18,135,180)"/><path d=" M 147 565 C 147 565.33 147 565.66 147 566 C 141.39 566 135.78 566 130 566 C 130 565.34 130 564.68 130 564 C 131.894 563.776 133.79 563.572 135.688 563.375 C 137.271 563.201 137.271 563.201 138.887 563.023 C 142.137 562.999 144.102 563.591 147 565 Z " fill="rgb(219,208,217)"/><path d=" M 161.066 648.902 C 162.302 648.92 162.302 648.92 163.563 648.938 C 164.389 648.947 165.215 648.956 166.066 648.965 C 166.704 648.976 167.343 648.988 168 649 C 168.33 650.32 168.66 651.64 169 653 C 164.944 652.532 161.534 652.12 158 650 C 159 649 159 649 161.066 648.902 Z " fill="rgb(225,11,44)"/><path d=" M 94 728 C 94.33 728 94.66 728 95 728 C 95 731.96 95 735.92 95 740 C 93.68 740.33 92.36 740.66 91 741 C 91.479 736.286 91.968 732.334 94 728 Z " fill="rgb(5,19,46)"/><path d=" M 86 650 C 88.64 650 91.28 650 94 650 C 94 650.99 94 651.98 94 653 C 91.36 653.33 88.72 653.66 86 654 C 86 652.68 86 651.36 86 650 Z " fill="rgb(241,22,37)"/><path d=" M 49 605 C 49.66 605 50.32 605 51 605 C 51 605.66 51 606.32 51 607 C 51.99 607.33 52.98 607.66 54 608 C 52.68 609.32 51.36 610.64 50 612 C 50 611.34 50 610.68 50 610 C 48.35 610 46.7 610 45 610 C 46.281 608.293 47.618 606.626 49 605 Z " fill="rgb(31,44,64)"/><path d=" M 124 632 C 126.875 631.875 126.875 631.875 130 632 C 130.66 632.66 131.32 633.32 132 634 C 131.67 634.99 131.34 635.98 131 637 C 128.69 636.67 126.38 636.34 124 636 C 124 634.68 124 633.36 124 632 Z " fill="rgb(9,11,42)"/><path d=" M 122 563 C 122.66 563.66 123.32 564.32 124 565 C 118.615 565.917 113.458 566.111 108 566 C 112.834 563.499 116.505 562.7 122 563 Z " fill="rgb(165,221,233)"/><path d=" M 173 669 C 174.316 671.633 173.748 672.802 173.063 675.625 C 172.868 676.442 172.673 677.26 172.473 678.102 C 172.239 679.041 172.239 679.041 172 680 C 171.67 679.34 171.34 678.68 171 678 C 170.01 677.67 169.02 677.34 168 677 C 171.875 670.125 171.875 670.125 173 669 Z " fill="rgb(181,198,205)"/><path d=" M 146 655 C 147.418 655.454 148.834 655.914 150.25 656.375 C 151.433 656.758 151.433 656.758 152.641 657.148 C 154.866 657.952 156.909 658.897 159 660 C 157.014 659.967 155.029 659.935 153.043 659.902 C 150.797 659.917 150.797 659.917 148 661 C 147.34 659.02 146.68 657.04 146 655 Z " fill="rgb(152,223,222)"/><path d=" M 163 655 C 166.3 655.33 169.6 655.66 173 656 C 173 657.65 173 659.3 173 661 C 172.01 661.495 172.01 661.495 171 662 C 170.794 661.381 170.588 660.763 170.375 660.125 C 168.452 657.153 166.334 656.87 163 656 C 163 655.67 163 655.34 163 655 Z " fill="rgb(4,49,93)"/><path d=" M 149 644 C 151.97 644.495 151.97 644.495 155 645 C 155 645.66 155 646.32 155 647 C 155.99 647.33 156.98 647.66 158 648 C 155.188 648.625 155.188 648.625 152 649 C 151.01 648.34 150.02 647.68 149 647 C 149 646.01 149 645.02 149 644 Z " fill="rgb(217,10,36)"/><path d=" M 64 598 C 67.63 598 71.26 598 75 598 C 74.216 598.619 73.433 599.238 72.625 599.875 C 70.032 601.899 70.032 601.899 68 604 C 68 603.34 68 602.68 68 602 C 66.68 601.67 65.36 601.34 64 601 C 65.32 601 66.64 601 68 601 C 68 600.34 68 599.68 68 599 C 66.68 598.67 65.36 598.34 64 598 Z " fill="rgb(32,48,68)"/><path d=" M 84 648 C 86.475 648.495 86.475 648.495 89 649 C 88.01 649.33 87.02 649.66 86 650 C 86 651.32 86 652.64 86 654 C 87.65 654 89.3 654 91 654 C 88 656 88 656 84 656 C 84 653.36 84 650.72 84 648 Z " fill="rgb(180,59,78)"/><path d=" M 126 644 C 126.99 644.33 127.98 644.66 129 645 C 128.67 646.98 128.34 648.96 128 651 C 126.68 651 125.36 651 124 651 C 124.875 646.25 124.875 646.25 126 644 Z " fill="rgb(182,211,222)"/><path d=" M 35 628 C 35.99 628.33 36.98 628.66 38 629 C 38 630.65 38 632.3 38 634 C 36.35 634.66 34.7 635.32 33 636 C 33.875 629.125 33.875 629.125 35 628 Z " fill="rgb(15,33,59)"/><path d=" M 138 640 C 139.98 640 141.96 640 144 640 C 145.333 642.667 146.667 645.333 148 648 C 144.052 646.33 141.182 643.82 138 641 C 138 640.67 138 640.34 138 640 Z " fill="rgb(174,39,69)"/><path d=" M 170 664 C 170.99 664 171.98 664 173 664 C 173 665.98 173 667.96 173 670 C 171.063 669.688 171.063 669.688 169 669 C 168.67 668.01 168.34 667.02 168 666 C 168.66 666 169.32 666 170 666 C 170 665.34 170 664.68 170 664 Z " fill="rgb(1,11,24)"/><path d=" M 163 662 C 165.97 662 168.94 662 172 662 C 172 662.66 172 663.32 172 664 C 169.69 664.66 167.38 665.32 165 666 C 165 665.01 165 664.02 165 663 C 164.34 662.67 163.68 662.34 163 662 Z " fill="rgb(187,229,232)"/><path d=" M 148 655 C 152.485 655.656 156.669 656.701 161 658 C 161 658.33 161 658.66 161 659 C 159.395 658.913 157.791 658.804 156.188 658.688 C 154.848 658.6 154.848 658.6 153.48 658.512 C 150.694 657.937 149.759 657.179 148 655 Z " fill="rgb(5,82,96)"/><path d=" M 68 599 C 68 599.66 68 600.32 68 601 C 63.545 601.495 63.545 601.495 59 602 C 59 601.34 59 600.68 59 600 C 61.957 598.522 64.742 598.94 68 599 Z " fill="rgb(8,23,42)"/><path d=" M 32 656 C 32.33 656 32.66 656 33 656 C 33.66 660.29 34.32 664.58 35 669 C 34.01 669.33 33.02 669.66 32 670 C 32 665.38 32 660.76 32 656 Z " fill="rgb(12,25,42)"/><path d=" M 33 647 C 33.188 649.875 33.188 649.875 33 653 C 32.01 653.66 31.02 654.32 30 655 C 30 652.69 30 650.38 30 648 C 32 647 32 647 33 647 Z " fill="rgb(22,33,58)"/><path d=" M 89 662 C 91.97 662 94.94 662 98 662 C 97.381 662.454 96.763 662.908 96.125 663.375 C 93.941 664.971 93.941 664.971 92 667 C 91.01 665.35 90.02 663.7 89 662 Z " fill="rgb(197,235,241)"/><path d=" M 150 654 C 154.29 654.33 158.58 654.66 163 655 C 163 655.33 163 655.66 163 656 C 161.587 656.251 160.169 656.475 158.75 656.688 C 157.961 656.815 157.172 656.943 156.359 657.074 C 154 657 154 657 150 654 Z " fill="rgb(1,63,103)"/><path d=" M 123 647 C 123.563 648.938 123.563 648.938 124 651 C 123 652 123 652 119.938 652.063 C 118.483 652.032 118.483 652.032 117 652 C 117.804 651.361 118.609 650.721 119.438 650.063 C 121.275 648.594 121.275 648.594 123 647 Z " fill="rgb(38,131,164)"/><path d=" M 43 622 C 44.033 625.1 44.178 626.056 43 629 C 42.01 629.33 41.02 629.66 40 630 C 41.875 623.125 41.875 623.125 43 622 Z " fill="rgb(202,220,237)"/><path d=" M 53 620 C 53.66 620 54.32 620 55 620 C 54.25 622.438 54.25 622.438 53 625 C 50.875 625.813 50.875 625.813 49 626 C 51.875 621.125 51.875 621.125 53 620 Z " fill="rgb(37,46,57)"/><path d=" M 132 635 C 133.149 635.954 134.294 636.914 135.438 637.875 C 136.076 638.409 136.714 638.942 137.371 639.492 C 139 641 139 641 140 643 C 136.638 641.559 134.408 639.752 132 637 C 132 636.34 132 635.68 132 635 Z " fill="rgb(37,17,54)"/></g></g></g></g></g></svg>