<?xml version="1.0" encoding="UTF-8" standalone="no"?>
<!-- Generator: Gravit.io -->
<svg xmlns="http://www.w3.org/2000/svg" xmlns:xlink="http://www.w3.org/1999/xlink" style="isolation:isolate" viewBox="0 0 1024 1024" width="1024pt" height="1024pt"><defs><clipPath id="_clipPath_YOI390IbI2yGrza68DQsFg1UDp2smZjb"><rect width="1024" height="1024"/></clipPath></defs><g clip-path="url(#_clipPath_YOI390IbI2yGrza68DQsFg1UDp2smZjb)"><clipPath id="_clipPath_RHhA4mEWbS7LWCSWBgYqmzcprqrtuLeq"><rect x="0" y="0" width="1024" height="1024" transform="matrix(1,0,0,1,0,0)" fill="rgb(255,255,255)"/></clipPath><g clip-path="url(#_clipPath_RHhA4mEWbS7LWCSWBgYqmzcprqrtuLeq)"><g><g><g><path d=" M 599 666 C 605.102 666.626 610.832 667.844 616.75 669.438 C 618.005 669.763 618.005 669.763 619.285 670.096 C 623.094 671.107 626.506 672.142 630 674 C 629.34 674.33 628.68 674.66 628 675 C 628.205 675.753 628.41 676.506 628.621 677.281 C 632.784 693.693 633.91 710.461 626 726 C 625.011 727.341 624.01 728.674 623 730 C 621.71 732.269 620.496 734.569 619.281 736.879 C 618 739 618 739 616.469 740.527 C 614.893 741.94 614.893 741.94 614.09 743.953 C 611.752 748.344 606.9 751.055 603 754 C 602.068 754.712 601.136 755.423 600.176 756.156 C 595.61 759.57 591.179 762.712 585.949 765.016 C 583.816 766.024 583.816 766.024 581.426 767.906 C 577.177 770.779 572.409 771.94 567.5 773.25 C 566.521 773.512 565.542 773.773 564.534 774.043 C 552.437 777.105 541.96 776.865 530 773 C 529.136 772.722 528.273 772.443 527.383 772.156 C 519.591 769.34 512.928 764.819 506.938 759.125 C 503.082 756.336 499.748 755.421 495 756 C 490.71 758.984 488.326 762.983 487 768 C 486.491 771.661 486.194 775.31 486 779 C 483.731 779.135 481.459 779.232 479.188 779.313 C 477.923 779.371 476.658 779.429 475.355 779.488 C 472 779 472 779 470.086 776.891 C 467.633 770.362 467.901 763.225 470.137 756.664 C 475.105 746.311 481.037 739.954 491.266 734.875 C 494.824 733.736 497.958 733.772 501.688 733.813 C 502.702 733.813 502.702 733.813 503.736 733.814 C 508.718 733.859 508.718 733.859 511 735 C 518.394 735.361 525.673 734.994 533 734 C 533.495 732.515 533.495 732.515 534 731 C 535.891 729.676 535.891 729.676 538.25 728.313 C 543.052 725.218 545.573 722.13 548 717 C 548.46 716.07 548.46 716.07 548.93 715.121 C 550.845 710.462 551.091 706.219 551.149 701.249 C 551.31 691.097 551.31 691.097 553.414 687.75 C 555.523 686.153 557.597 685.105 560 684 C 561.878 682.838 563.752 681.671 565.625 680.5 C 576.329 674.405 587.483 669 600 669 C 599.67 668.01 599.34 667.02 599 666 Z " fill="rgb(254,190,90)"/><path d=" M 554 688 C 554.66 688 555.32 688 556 688 C 556 688.99 556 689.98 556 691 C 555.34 691 554.68 691 554 691 C 554.142 692.417 554.289 693.834 554.438 695.25 C 554.519 696.039 554.6 696.828 554.684 697.641 C 554.976 699.824 555.421 701.877 556 704 C 556.99 703.67 557.98 703.34 559 703 C 559 700.69 559 698.38 559 696 C 559.66 696 560.32 696 561 696 C 559.338 708.534 556.576 718.489 548 728 C 546.85 729.307 546.85 729.307 545.676 730.641 C 538.904 737.913 532.72 741.927 522.688 742.625 C 515.775 742.407 509.995 739.202 504 736 C 504 735.34 504 734.68 504 734 C 504.887 734.165 505.774 734.33 506.688 734.5 C 515.407 735.738 524.309 735.178 533 734 C 533.33 733.01 533.66 732.02 534 731 C 535.891 729.676 535.891 729.676 538.25 728.313 C 543.052 725.218 545.573 722.13 548 717 C 548.307 716.38 548.614 715.76 548.93 715.121 C 551.438 709.018 551.463 702.632 551.622 696.12 C 551.8 690.2 551.8 690.2 554 688 Z " fill="rgb(251,175,78)"/><path d=" M 499.313 733.875 C 500.637 733.902 500.637 733.902 501.988 733.93 C 502.984 733.964 502.984 733.964 504 734 C 504 734.66 504 735.32 504 736 C 504.846 736.268 505.691 736.536 506.563 736.813 C 510.139 738.048 513.539 739.477 517 741 C 513.306 742.231 510.794 741.644 507 741 C 507.33 742.65 507.66 744.3 508 746 C 507.01 745.67 506.02 745.34 505 745 C 498.381 744.348 493.548 744.74 487.793 748.109 C 485.179 749.408 482.854 749.285 480 749 C 479.438 745.875 479.438 745.875 480 742 C 485.308 736.976 491.979 733.679 499.313 733.875 Z " fill="rgb(252,233,185)"/><path d=" M 625 674 C 625.99 674.33 626.98 674.66 628 675 C 628.33 677.64 628.66 680.28 629 683 C 628.67 682.01 628.34 681.02 628 680 C 627.34 680 626.68 680 626 680 C 625.67 678.02 625.34 676.04 625 674 Z " fill="rgb(235,114,76)"/><path d=" M 562 725 C 562.813 726.625 562.813 726.625 563 729 C 561.532 731.246 559.841 733.024 558 735 C 557.34 734.67 556.68 734.34 556 734 C 556.433 733.629 556.866 733.258 557.313 732.875 C 559.462 730.487 560.648 727.898 562 725 Z " fill="rgb(246,199,118)"/><path d=" M 584 677 C 584.66 677.33 585.32 677.66 586 678 C 584.02 679.98 582.04 681.96 580 684 C 579.01 683.67 578.02 683.34 577 683 C 577.474 682.546 577.949 682.093 578.438 681.625 C 580.09 680.067 580.09 680.067 581 678 C 581.99 677.67 582.98 677.34 584 677 Z " fill="rgb(252,156,59)"/><path d=" M 536 731 C 531.378 733.219 528.232 734.383 523 734 C 523 733.67 523 733.34 523 733 C 524.412 732.466 525.83 731.948 527.25 731.438 C 528.039 731.147 528.828 730.857 529.641 730.559 C 532.191 729.955 533.553 730.153 536 731 Z " fill="rgb(101,119,120)"/><path d=" M 570 704 C 570.33 704 570.66 704 571 704 C 571.286 712.571 571.286 712.571 569 716 C 568.34 716 567.68 716 567 716 C 567.99 712.04 568.98 708.08 570 704 Z " fill="rgb(246,194,117)"/><path d=" M 599 666 C 603.814 666.481 606.602 666.801 611 669 C 607.37 669 603.74 669 600 669 C 599.67 668.01 599.34 667.02 599 666 Z " fill="rgb(220,88,76)"/><path d=" M 581 685 C 580.67 686.32 580.34 687.64 580 689 C 580 688.01 580 687.02 580 686 C 578.928 686.516 577.855 687.031 576.75 687.563 C 574.285 688.632 573.279 689.036 570.563 688.688 C 570.047 688.461 569.531 688.234 569 688 C 573.105 685.015 575.977 684.705 581 685 Z " fill="rgb(255,236,190)"/><path d=" M 579 690 C 579.813 691.688 579.813 691.688 580 694 C 577.563 696.75 577.563 696.75 575 699 C 574.188 697.313 574.188 697.313 574 695 C 576.438 692.25 576.438 692.25 579 690 Z " fill="rgb(251,200,114)"/><path d=" M 546 729 C 546.33 730.32 546.66 731.64 547 733 C 544.69 734.65 542.38 736.3 540 738 C 539.34 737.67 538.68 737.34 538 737 C 540.64 734.36 543.28 731.72 546 729 Z " fill="rgb(254,236,187)"/><path d=" M 554 688 C 554.66 688 555.32 688 556 688 C 556 688.99 556 689.98 556 691 C 555.01 691 554.02 691 553 691 C 553 696.61 553 702.22 553 708 C 552.67 708 552.34 708 552 708 C 551.946 705.041 551.906 702.084 551.875 699.125 C 551.858 698.283 551.841 697.441 551.824 696.574 C 551.818 695.769 551.811 694.963 551.805 694.133 C 551.789 693.017 551.789 693.017 551.773 691.879 C 552 690 552 690 554 688 Z " fill="rgb(225,167,100)"/><path d=" M 576 685 C 575.313 685.41 574.626 685.82 573.918 686.242 C 572.566 687.05 572.566 687.05 571.188 687.875 C 569.848 688.676 569.848 688.676 568.48 689.492 C 566.627 690.619 564.805 691.797 563 693 C 563.33 691.35 563.66 689.7 564 688 C 565.32 688 566.64 688 568 688 C 568.33 687.01 568.66 686.02 569 685 C 572.133 683.956 572.99 684.066 576 685 Z " fill="rgb(231,145,53)"/><path d=" M 611 671 C 605.182 673.909 596.253 671.944 590 671 C 590 670.67 590 670.34 590 670 C 596.718 668.547 604.877 667.364 611 671 Z " fill="rgb(233,138,63)"/><path d=" M 551 708 C 551.33 708 551.66 708 552 708 C 552.59 713.754 550.823 718.094 548 723 C 546.44 724.909 544.878 726.383 543 728 C 542.34 727.67 541.68 727.34 541 727 C 541.646 726.441 541.646 726.441 542.305 725.871 C 544.474 723.477 545.7 720.959 547.125 718.063 C 547.902 716.502 547.902 716.502 548.695 714.91 C 549.747 712.565 550.505 710.506 551 708 Z " fill="rgb(198,156,111)"/><path d=" M 592 666 C 594.64 666.33 597.28 666.66 600 667 C 600 667.66 600 668.32 600 669 C 598.234 669.441 596.469 669.883 594.703 670.324 C 593.976 670.506 593.249 670.688 592.5 670.875 C 591.094 671.227 589.688 671.578 588.281 671.93 C 587.581 672.105 586.881 672.28 586.16 672.46 C 585.447 672.638 584.734 672.816 584 673 C 583.236 673.191 582.471 673.382 581.684 673.579 C 580.953 673.762 580.222 673.945 579.469 674.133 C 578.324 674.419 577.179 674.705 576 675 C 577.834 671.333 582.266 670.259 586 669 C 588.459 668.705 590.516 668.789 593 669 C 592.67 668.01 592.34 667.02 592 666 Z " fill="rgb(48,25,30)"/><path d=" M 614 682 C 614.66 682 615.32 682 616 682 C 615.885 684.855 615.758 687.708 615.625 690.563 C 615.594 691.362 615.563 692.162 615.531 692.986 C 614.94 705.06 614.94 705.06 611 709 C 612 700 613 691 614 682 Z " fill="rgb(239,116,24)"/><path d=" M 558 704 C 559.448 709.79 557.521 713.716 555 719 C 552.887 722.204 550.631 725.203 548 728 C 547.67 728 547.34 728 547 728 C 546.634 723.483 546.634 723.483 548.375 721.188 C 550 720 550 720 552 720 C 552.33 718.68 552.66 717.36 553 716 C 553.66 716 554.32 716 555 716 C 555.99 712.04 556.98 708.08 558 704 Z " fill="rgb(232,163,77)"/><path d=" M 564 692 C 564.33 692 564.66 692 565 692 C 565 693.65 565 695.3 565 697 C 564.34 697 563.68 697 563 697 C 563 697.99 563 698.98 563 700 C 562.34 700 561.68 700 561 700 C 561.023 700.568 561.046 701.137 561.07 701.723 C 561.191 706.896 560.915 711.162 559 716 C 558.01 716.33 557.02 716.66 556 717 C 556.569 714.142 557.154 711.29 557.75 708.438 C 557.907 707.638 558.065 706.838 558.227 706.014 C 559.364 700.655 561.048 696.621 564 692 Z " fill="rgb(253,235,189)"/><path d=" M 625 726 C 625 732.754 621.226 739.828 617 745 C 614.135 747.538 611.138 749.812 608 752 C 607.34 751.67 606.68 751.34 606 751 C 606.471 750.625 606.941 750.25 607.426 749.863 C 611.114 746.832 613.72 744.25 616 740 C 616.822 738.846 617.656 737.701 618.5 736.563 C 620.706 733.525 622.384 730.394 624 727 C 624.33 726.67 624.66 726.34 625 726 Z " fill="rgb(137,100,82)"/><path d=" M 496 732 C 502.125 731.805 507.911 731.864 513.938 733.063 C 520.416 734.29 526.488 733.777 533 733 C 528.082 736.279 523.04 736.138 517.25 736.125 C 515.556 736.129 515.556 736.129 513.828 736.133 C 511 736 511 736 509 735 C 506.629 734.77 504.253 734.589 501.875 734.438 C 500.594 734.354 499.312 734.27 497.992 734.184 C 496.511 734.093 496.511 734.093 495 734 C 495.33 733.34 495.66 732.68 496 732 Z " fill="rgb(130,128,116)"/><path d=" M 590 671 C 590 671.66 590 672.32 590 673 C 589.131 673.219 588.262 673.438 587.367 673.664 C 580.159 675.647 575.818 677.27 571 683 C 570.34 683 569.68 683 569 683 C 568.67 683.66 568.34 684.32 568 685 C 568 684.34 568 683.68 568 683 C 567.484 683.66 566.969 684.32 566.438 685 C 563.2 687.656 561.074 687.313 557 687 C 563.825 679.445 579.671 671 590 671 Z " fill="rgb(213,139,75)"/><path d=" M 583 675 C 583.66 675.33 584.32 675.66 585 676 C 584.67 676.66 584.34 677.32 584 678 C 583.01 678 582.02 678 581 678 C 580.803 678.739 580.606 679.477 580.402 680.238 C 578.568 683.851 575.98 685.271 572.563 687.188 C 571.397 687.868 570.232 688.549 569.066 689.23 C 568.054 689.814 567.043 690.398 566 691 C 565.01 691.66 564.02 692.32 563 693 C 563.33 691.35 563.66 689.7 564 688 C 565.32 688 566.64 688 568 688 C 568.278 686.979 568.278 686.979 568.563 685.938 C 570.579 681.817 573.222 678.636 577 676 C 580.438 676.063 580.438 676.063 583 677 C 583 676.34 583 675.68 583 675 Z " fill="rgb(250,137,48)"/><path d=" M 599 666 C 605.102 666.626 610.832 667.844 616.75 669.438 C 618.005 669.763 618.005 669.763 619.285 670.096 C 623.094 671.107 626.506 672.142 630 674 C 629.01 674.495 629.01 674.495 628 675 C 628.33 677.64 628.66 680.28 629 683 C 628.67 682.01 628.34 681.02 628 680 C 627.34 680 626.68 680 626 680 C 626 678.68 626 677.36 626 676 C 624.02 676 622.04 676 620 676 C 620 675.01 620 674.02 620 673 C 618.453 672.814 618.453 672.814 616.875 672.625 C 613.359 672.058 610.363 671.121 607 670 C 604.673 669.625 602.34 669.281 600 669 C 599.67 668.01 599.34 667.02 599 666 Z " fill="rgb(252,107,76)"/><path d=" M 551 708 C 551.33 708 551.66 708 552 708 C 552.521 713.079 551.153 716.305 549.004 720.762 C 547.836 723.191 547.836 723.191 547.063 726.75 C 545.755 730.749 544.389 732.515 541 735 C 537.188 735.313 537.188 735.313 534 735 C 533.67 734.01 533.34 733.02 533 732 C 533.664 731.588 534.328 731.175 535.012 730.75 C 544.308 724.67 547.997 718.548 551 708 Z " fill="rgb(220,156,83)"/><path d=" M 513.938 733.063 C 520.416 734.29 526.488 733.777 533 733 C 528.082 736.279 523.04 736.138 517.25 736.125 C 515.556 736.129 515.556 736.129 513.828 736.133 C 511 736 511 736 509 735 C 499.548 734.173 492.032 734.555 484 740 C 482.928 740.722 481.855 741.444 480.75 742.188 C 474.333 748.75 469.74 756.856 469.824 766.127 C 469.849 767.209 469.849 767.209 469.875 768.313 C 469.884 769.053 469.893 769.794 469.902 770.557 C 469.926 772.371 469.962 774.186 470 776 C 469.34 775.67 468.68 775.34 468 775 C 465.786 767.914 466.345 758.893 469 752 C 471.563 749.125 471.563 749.125 474 747 C 474.33 746.01 474.66 745.02 475 744 C 484.875 732.635 499.903 730.3 513.938 733.063 Z " fill="rgb(120,108,92)"/><path d=" M 583 675 C 583.66 675.33 584.32 675.66 585 676 C 584.67 676.66 584.34 677.32 584 678 C 583.01 678 582.02 678 581 678 C 580.801 678.743 580.603 679.485 580.398 680.25 C 578.51 683.964 576.237 684.987 572.625 687 C 568.005 689.586 565.255 691.87 562 696 C 561.01 696 560.02 696 559 696 C 559 698.31 559 700.62 559 703 C 557.02 703.99 557.02 703.99 555 705 C 553.794 700.328 553.906 695.785 554 691 C 554.66 691 555.32 691 556 691 C 556 689.68 556 688.36 556 687 C 558.64 687 561.28 687 564 687 C 564.34 686.041 564.34 686.041 564.688 685.063 C 565.121 684.382 565.554 683.701 566 683 C 566.743 682.876 567.485 682.753 568.25 682.625 C 571.393 681.911 571.884 681.224 573.938 678.875 C 575.441 677.234 575.441 677.234 577 676 C 580.375 676.125 580.375 676.125 583 677 C 583 676.34 583 675.68 583 675 Z " fill="rgb(248,158,55)"/><path d=" M 599 666 C 605.102 666.626 610.832 667.844 616.75 669.438 C 617.587 669.655 618.423 669.872 619.285 670.096 C 623.094 671.107 626.506 672.142 630 674 C 629.34 674.33 628.68 674.66 628 675 C 628.495 678.96 628.495 678.96 629 683 C 628.505 681.515 628.505 681.515 628 680 C 627.34 680 626.68 680 626 680 C 626 678.68 626 677.36 626 676 C 624.02 676 622.04 676 620 676 C 620 675.01 620 674.02 620 673 C 616.339 672.566 612.676 672.282 609 672 C 607.084 671.776 607.084 671.776 605.129 671.547 C 599.379 671.041 594.763 670.784 589.801 674.207 C 588.284 675.612 586.865 677.073 585.453 678.584 C 580.921 683.407 576.177 685.703 570.129 688.27 C 565.756 690.688 562.929 693.391 561.257 698.087 C 560.641 700.443 560.124 702.804 559.625 705.188 C 556.212 719.41 547.962 731.722 535.391 739.645 C 528.142 742.911 520.871 743.459 513.414 740.648 C 510.22 739.187 507.097 737.655 504 736 C 504 735.34 504 734.68 504 734 C 504.887 734.165 505.774 734.33 506.688 734.5 C 515.407 735.738 524.309 735.178 533 734 C 533.495 732.515 533.495 732.515 534 731 C 535.891 729.676 535.891 729.676 538.25 728.313 C 543.052 725.218 545.573 722.13 548 717 C 548.307 716.38 548.614 715.76 548.93 715.121 C 550.845 710.462 551.091 706.219 551.149 701.249 C 551.31 691.097 551.31 691.097 553.414 687.75 C 555.523 686.153 557.597 685.105 560 684 C 561.878 682.838 563.752 681.671 565.625 680.5 C 576.329 674.405 587.483 669 600 669 C 599.505 667.515 599.505 667.515 599 666 Z " fill="rgb(250,139,56)"/><path d=" M 581 685 C 580.58 689.898 578.471 691.694 575 695 C 572.234 698.973 570.891 703.146 569.563 707.75 C 564.786 723.587 557.551 738.56 542.41 746.781 C 541.615 747.183 540.819 747.586 540 748 C 539.401 748.34 538.801 748.681 538.184 749.031 C 531.436 752.292 522.313 752.238 515 751 C 512.154 749.694 509.864 748.172 507.328 746.352 C 503.075 743.882 498.732 744.134 494 745 C 491.804 745.888 489.835 746.914 487.793 748.109 C 485.179 749.408 482.854 749.285 480 749 C 479.438 745.875 479.438 745.875 480 742 C 485.308 736.976 491.979 733.679 499.313 733.875 C 500.196 733.893 501.079 733.911 501.988 733.93 C 502.652 733.953 503.316 733.976 504 734 C 504 734.66 504 735.32 504 736 C 504.846 736.268 505.691 736.536 506.563 736.813 C 510 738 510 738 513.188 739.625 C 519.465 742.321 526.528 741.78 532.938 739.75 C 542.682 735.367 552.057 724.8 556 715 C 557.154 710.992 558.165 706.949 559.002 702.863 C 560.624 695.589 564.134 690.613 570.438 686.563 C 574.278 684.878 576.854 684.662 581 685 Z " fill="rgb(252,248,225)"/><path d=" M 611 671 C 612.481 671.281 613.96 671.575 615.438 671.875 C 616.261 672.037 617.085 672.2 617.934 672.367 C 618.956 672.68 618.956 672.68 620 673 C 620.495 673.99 620.495 673.99 621 675 C 623.527 675.656 623.527 675.656 626 676 C 626 677.32 626 678.64 626 680 C 626.66 680 627.32 680 628 680 C 633.656 691.803 633.077 706.585 629.078 718.82 C 627.474 723.054 625.743 726.401 623 730 C 621.71 732.269 620.496 734.569 619.281 736.879 C 618 739 618 739 616.469 740.527 C 614.893 741.94 614.893 741.94 614.09 743.953 C 611.752 748.344 606.9 751.055 603 754 C 601.602 755.067 601.602 755.067 600.176 756.156 C 595.61 759.57 591.179 762.712 585.949 765.016 C 583.816 766.024 583.816 766.024 581.426 767.906 C 577.177 770.779 572.409 771.94 567.5 773.25 C 566.521 773.512 565.542 773.773 564.534 774.043 C 549.105 777.949 534.309 776.262 520 769 C 517.375 766.75 517.375 766.75 516 765 C 516.99 764.505 516.99 764.505 518 764 C 519.134 761.983 519.134 761.983 520 760 C 520.99 760.165 521.98 760.33 523 760.5 C 532.587 761.681 542.754 761.972 552 759 C 553.332 758.68 554.665 758.368 556 758.063 C 558.85 757.361 561.52 756.452 564.25 755.375 C 568 754 568 754 572 754 C 572 753.34 572 752.68 572 752 C 572.75 751.66 573.5 751.319 574.273 750.969 C 591.314 742.899 601.989 731.766 608.484 714.07 C 613.024 700.559 614.094 684.975 611 671 Z " fill="rgb(249,139,38)"/><path d=" M 504 734 C 505.441 734.426 506.878 734.866 508.313 735.313 C 509.113 735.556 509.914 735.8 510.738 736.051 C 513.1 737.042 514.339 738.081 516 740 C 511.435 739.457 508.027 738.205 504 736 C 504 735.34 504 734.68 504 734 Z " fill="rgb(248,203,124)"/><path d=" M 514 738 C 520.055 737.805 520.055 737.805 522 738 C 522.66 738.66 523.32 739.32 524 740 C 523 741 523 741 519.438 741.063 C 518.303 741.042 517.169 741.021 516 741 C 516 740.34 516 739.68 516 739 C 515.34 738.67 514.68 738.34 514 738 Z " fill="rgb(251,184,90)"/><path d=" M 487 737 C 487.66 737.33 488.32 737.66 489 738 C 488.381 738.722 487.763 739.444 487.125 740.188 C 485.163 742.784 484.047 744.947 483 748 C 484.65 747.67 486.3 747.34 488 747 C 486 749 486 749 482.875 749.125 C 481.452 749.063 481.452 749.063 480 749 C 479.563 745.813 479.563 745.813 480 742 C 482.085 739.888 484.412 738.433 487 737 Z " fill="rgb(246,215,150)"/><path d=" M 540 735 C 536.083 739.733 531.387 741.467 525.492 742.395 C 517.302 742.908 511.106 739.796 504 736 C 504 735.34 504 734.68 504 734 C 504.887 734.165 505.774 734.33 506.688 734.5 C 514.948 735.656 522.944 735.454 530.988 733.313 C 534.365 732.788 536.85 733.794 540 735 Z " fill="rgb(238,185,107)"/><path d=" M 479 743 C 479.33 743 479.66 743 480 743 C 480 744.98 480 746.96 480 749 C 481.65 749 483.3 749 485 749 C 484.795 749.592 484.59 750.183 484.379 750.793 C 481.725 758.578 480.695 763.002 483 771 C 483.33 771 483.66 771 484 771 C 484 773.31 484 775.62 484 778 C 482.209 778.081 480.417 778.139 478.625 778.188 C 477.128 778.24 477.128 778.24 475.602 778.293 C 474.743 778.196 473.885 778.1 473 778 C 468.91 771.864 470.078 762.135 471 755 C 472.798 750.096 475.342 746.658 479 743 Z " fill="rgb(254,183,66)"/><path d=" M 479 743 C 479.33 743 479.66 743 480 743 C 480 744.98 480 746.96 480 749 C 481.65 749 483.3 749 485 749 C 484.67 749.66 484.34 750.32 484 751 C 483.34 751 482.68 751 482 751 C 481.67 751.99 481.34 752.98 481 754 C 480.67 753.34 480.34 752.68 480 752 C 480.33 751.34 480.66 750.68 481 750 C 479.35 750.33 477.7 750.66 476 751 C 476.103 751.722 476.206 752.444 476.313 753.188 C 475.876 757.12 473.899 758.463 471 761 C 469.984 754.562 473.48 750.07 477 745 C 477.66 744.34 478.32 743.68 479 743 Z " fill="rgb(245,187,96)"/><path d=" M 486 761 C 487.554 764.107 486.585 766.742 486.063 770.125 C 485.771 772.047 485.771 772.047 485.473 774.008 C 485.317 774.995 485.161 775.983 485 777 C 484.34 776.67 483.68 776.34 483 776 C 482.129 772.686 481.846 769.42 482 766 C 483.938 762.875 483.938 762.875 486 761 Z " fill="rgb(252,159,39)"/><path d=" M 479 743 C 479.33 743 479.66 743 480 743 C 480 744.98 480 746.96 480 749 C 481.65 749 483.3 749 485 749 C 484.67 749.66 484.34 750.32 484 751 C 483.34 751 482.68 751 482 751 C 481.67 751.99 481.34 752.98 481 754 C 480.67 753.34 480.34 752.68 480 752 C 480.33 751.34 480.66 750.68 481 750 C 479.35 750 477.7 750 476 750 C 476.75 745.25 476.75 745.25 479 743 Z " fill="rgb(248,204,116)"/><path d=" M 488 758 C 488.99 758.33 489.98 758.66 491 759 C 490.529 759.674 490.059 760.348 489.574 761.043 C 487.72 764.526 487.287 767.406 486.813 771.313 C 486.654 772.567 486.495 773.821 486.332 775.113 C 486.222 776.066 486.113 777.019 486 778 C 485.34 777.67 484.68 777.34 484 777 C 484.284 774.77 484.577 772.541 484.875 770.313 C 485.037 769.071 485.2 767.83 485.367 766.551 C 485.925 763.422 486.69 760.879 488 758 Z " fill="rgb(239,146,56)"/><path d=" M 484 751 C 483.813 753.375 483.813 753.375 483 756 C 480.438 757.313 480.438 757.313 478 758 C 478.628 754.355 479.853 751 484 751 Z " fill="rgb(253,192,74)"/><path d=" M 507 746 C 507.608 746.361 508.217 746.722 508.844 747.094 C 517.349 751.596 524.653 751.528 534 751 C 534 751.99 534 752.98 534 754 C 532.371 755.379 530.703 756.713 529 758 C 528.67 758.66 528.34 759.32 528 760 C 533.28 760.33 538.56 760.66 544 761 C 544 761.33 544 761.66 544 762 C 527.107 762.185 527.107 762.185 520 761 C 519.34 762.32 518.68 763.64 518 765 C 517.34 765 516.68 765 516 765 C 515.67 764.34 515.34 763.68 515 763 C 513.68 762.34 512.36 761.68 511 761 C 511 757.7 511 754.4 511 751 C 509.68 750.34 508.36 749.68 507 749 C 507 748.01 507 747.02 507 746 Z " fill="rgb(252,179,61)"/><path d=" M 508 746 C 514.875 746.875 514.875 746.875 516 748 C 517.562 748.087 519.127 748.107 520.691 748.098 C 521.636 748.094 522.58 748.091 523.553 748.088 C 524.546 748.08 525.539 748.071 526.563 748.063 C 527.56 748.058 528.557 748.053 529.584 748.049 C 532.056 748.037 534.528 748.021 537 748 C 536 750 536 750 534.179 750.61 C 530.697 751.233 527.214 751.267 523.688 751.313 C 522.953 751.342 522.219 751.371 521.463 751.4 C 515.843 751.465 512.665 750.124 508 747 C 508 746.67 508 746.34 508 746 Z " fill="rgb(254,237,195)"/><path d=" M 496 754 C 502.766 753.154 502.766 753.154 506.172 755.488 C 507.525 756.717 508.851 757.978 510.141 759.273 C 512.003 761.002 513.685 761.986 516 763 C 516 763.66 516 764.32 516 765 C 512.498 763.939 510.307 762.463 507.688 760 C 503.997 756.667 500.855 755.852 496 755 C 496 754.67 496 754.34 496 754 Z " fill="rgb(216,150,88)"/><path d=" M 520 760 C 519.34 761.65 518.68 763.3 518 765 C 517.34 765 516.68 765 516 765 C 515.67 764.34 515.34 763.68 515 763 C 514.01 762.34 513.02 761.68 512 761 C 514.709 759.646 517.009 759.935 520 760 Z " fill="rgb(252,164,52)"/><path d=" M 516 765 C 518.475 765.495 518.475 765.495 521 766 C 521 766.66 521 767.32 521 768 C 522.031 768.103 523.063 768.206 524.125 768.313 C 528 769 528 769 530.75 770.438 C 541.805 775.753 554.279 773.954 566 772 C 557.963 777.358 548.046 777.004 538.777 775.465 C 520.907 771.245 520.907 771.245 516 765 Z " fill="rgb(207,144,76)"/></g></g></g></g></g></svg>