<?xml version="1.0" encoding="UTF-8" standalone="no"?>
<!-- Generator: Gravit.io -->
<svg xmlns="http://www.w3.org/2000/svg" xmlns:xlink="http://www.w3.org/1999/xlink" style="isolation:isolate" viewBox="0 0 1024 1024" width="1024pt" height="1024pt"><defs><clipPath id="_clipPath_30HsmnoSopFAkm2xF7iKrlSBCDYuVtU4"><rect width="1024" height="1024"/></clipPath></defs><g clip-path="url(#_clipPath_30HsmnoSopFAkm2xF7iKrlSBCDYuVtU4)"><clipPath id="_clipPath_lNe74M5ih87DbpfcEuAsXw6PsntwfyI9"><rect x="0" y="0" width="1024" height="1024" transform="matrix(1,0,0,1,0,0)" fill="rgb(255,255,255)"/></clipPath><g clip-path="url(#_clipPath_lNe74M5ih87DbpfcEuAsXw6PsntwfyI9)"><g><g><g><path d=" M 331 240 C 333.957 241.339 334.862 242.356 337 245 C 337.188 248.5 337.188 248.5 336 252 C 335.167 252.736 334.335 253.472 333.477 254.23 C 330.393 257.679 330.226 260.389 330.188 264.813 C 330.162 265.505 330.137 266.198 330.111 266.912 C 330.053 268.607 330.023 270.304 330 272 C 331.027 272.112 332.055 272.224 333.113 272.34 C 336.873 272.978 339.732 273.994 343.188 275.563 C 346.936 277.261 348.813 278 353 278 C 356.302 276.21 358.827 274.068 361 271 C 361.383 267.477 360.88 264.416 360 261 C 364.019 258.321 367.276 258.304 372 259 C 374.87 260.794 376.491 261.983 378 265 C 378.466 272.343 378.466 272.343 376.742 274.773 C 374.498 276.354 373.548 276.085 370.875 275.688 C 366.268 275.468 364.319 276.949 360.938 280 C 359.604 281.313 358.284 282.64 357 284 C 357.848 288.231 359.869 291.621 361.941 295.367 C 363 298 363 298 363 304 C 368.28 304 373.56 304 379 304 C 379.66 302.35 380.32 300.7 381 299 C 383.878 297.864 385.336 297.76 388.25 298.813 C 390 300 390 300 391 302 C 391.174 303.953 391.267 305.914 391.313 307.875 C 391.369 309.449 391.369 309.449 391.426 311.055 C 390.902 314.679 389.852 315.785 387 318 C 384.563 318.625 384.563 318.625 382 318 C 381.361 317.031 380.721 316.061 380.063 315.063 C 378.057 312.277 377.048 312.009 373.57 311.379 C 370.04 311.148 366.538 311.01 363 311 C 362.907 312.918 362.907 312.918 362.813 314.875 C 362.308 319.867 360.413 323.471 357.863 327.738 C 356.741 329.956 356.741 329.956 357.699 332.055 C 358.343 333.018 358.343 333.018 359 334 C 359.382 334.646 359.763 335.292 360.156 335.957 C 361.653 338.023 362.898 339.537 365 341 C 367.686 341.055 370.075 340.634 372.715 340.164 C 375 340 375 340 377.688 342 C 379.41 345.938 379.245 347.898 378 352 C 375.81 354.583 374.032 356.484 371 358 C 369.504 358.12 368.001 358.175 366.5 358.188 C 365.706 358.202 364.912 358.216 364.094 358.23 C 362 358 362 358 360 356 C 359.945 353.977 359.945 353.977 360.125 351.625 C 360.25 347.895 360.25 347.895 358.313 344.75 C 357.549 344.173 356.786 343.595 356 343 C 355.175 342.093 354.35 341.185 353.5 340.25 C 351.065 337.554 351.065 337.554 347 338 C 344.974 339.293 342.975 340.63 341 342 C 337.15 343.925 334.269 344.07 330 344 C 330.006 346.567 330.054 349.122 330.125 351.688 C 330.122 352.409 330.12 353.13 330.117 353.873 C 330.231 358.065 330.231 358.065 332.385 361.512 C 333.906 362.697 335.452 363.85 337 365 C 337.25 368.5 337.25 368.5 336 372 C 332.878 375.579 330.714 377.29 325.938 377.625 C 321.282 376.886 319.906 375.61 317 372 C 316.67 371.67 316.34 371.34 316 371 C 316.188 367.688 316.188 367.688 317 364 C 317.661 363.424 318.323 362.848 319.004 362.254 C 321.754 359.149 321.668 356.213 321.75 352.25 C 321.78 351.553 321.809 350.855 321.84 350.137 C 321.91 348.425 321.957 346.713 322 345 C 321.443 344.914 320.886 344.827 320.313 344.738 C 315.819 343.911 312.517 342.888 308.75 340.25 C 305.896 338.265 305.896 338.265 302.5 338.25 C 301.675 338.828 300.85 339.405 300 340 C 299.325 340.46 298.649 340.92 297.953 341.395 C 293.621 344.637 293.621 344.637 291.371 349.391 C 291.151 351.785 291.151 351.785 291.23 354.082 C 291.154 354.715 291.078 355.348 291 356 C 287.425 358.383 286.214 358.648 282 358 C 278.78 355.853 275.748 353.497 274 350 C 273.716 346.738 273.714 344.604 275.125 341.625 C 277 340 277 340 279.875 339.688 C 283 340 283 340 285.395 340.797 C 288.167 341.304 288.167 341.304 290.457 339.129 C 291.234 338.282 292.012 337.435 292.813 336.563 C 293.603 335.718 294.393 334.874 295.207 334.004 C 295.799 333.343 296.39 332.681 297 332 C 295.461 328.049 293.694 324.27 291.805 320.477 C 291 318 291 318 291 311 C 285.39 311 279.78 311 274 311 C 273.67 312.32 273.34 313.64 273 315 C 269.531 317.313 268.078 317.425 264 317 C 261.761 315.361 261.084 314.444 260.566 311.695 C 260.56 307.512 260.666 304.667 262.563 300.875 C 265.861 298.338 267.939 298.474 272 299 C 274 301 274 301 274 304 C 279.28 304 284.56 304 290 304 C 290 302.02 290 300.04 290 298 C 291.531 295.078 291.531 295.078 293.5 292.25 C 296.108 288.91 296.108 288.91 297 285 C 295.315 283.295 295.315 283.295 293.188 281.563 C 290.689 279.455 288.276 277.348 286 275 C 285.01 275.495 285.01 275.495 284 276 C 277.704 276.572 277.704 276.572 275 274.375 C 273.602 271.056 273.904 269.426 275 266 C 276.906 263.138 278.871 260.564 282 259 C 289.074 258.551 289.074 258.551 292.063 260 C 293 262 293 262 292.063 265.563 C 291.54 267.695 291.54 267.695 292 270 C 294.952 273.773 298.371 276.887 302 280 C 304.137 278.941 306.259 277.863 308.367 276.746 C 309.195 276.314 310.022 275.882 310.875 275.438 C 311.697 275.003 312.52 274.569 313.367 274.121 C 316 273 316 273 322 272 C 322 266.72 322 261.44 322 256 C 320.68 255.34 319.36 254.68 318 254 C 316 251 316 251 316.063 247.563 C 317 244 317 244 319 241.563 C 323.117 239.418 326.452 239.092 331 240 Z " fill="rgb(22,39,63)"/><path d=" M 321 344 C 321.99 344 322.98 344 324 344 C 324.195 345.953 324.391 347.906 324.586 349.859 C 324.979 352.407 324.979 352.407 327 356 C 327.66 352.37 328.32 348.74 329 345 C 329.33 345 329.66 345 330 345 C 330.003 346.025 330.005 347.05 330.008 348.105 C 329.832 355.403 329.832 355.403 332.438 361.863 C 332.994 362.238 333.551 362.614 334.125 363 C 335.074 363.66 336.023 364.32 337 365 C 337.25 368.5 337.25 368.5 336 372 C 332.878 375.579 330.714 377.29 325.938 377.625 C 321.282 376.886 319.906 375.61 317 372 C 316.67 371.67 316.34 371.34 316 371 C 316.188 367.688 316.188 367.688 317 364 C 318.007 363.151 318.007 363.151 319.035 362.285 C 321.861 358.999 321.439 355.862 321.25 351.75 C 321.232 351.005 321.214 350.26 321.195 349.492 C 321.148 347.661 321.077 345.83 321 344 Z " fill="rgb(13,32,54)"/><path d=" M 357 333 C 362 338 362 338 363.359 339.707 C 364.959 341.257 364.959 341.257 367.34 340.898 C 368.197 340.726 369.054 340.553 369.938 340.375 C 374.668 339.753 374.668 339.753 377.688 342 C 379.41 345.938 379.245 347.898 378 352 C 375.81 354.583 374.032 356.484 371 358 C 369.504 358.12 368.001 358.175 366.5 358.188 C 365.706 358.202 364.912 358.216 364.094 358.23 C 362 358 362 358 360 356 C 359.945 353.977 359.945 353.977 360.125 351.625 C 360.25 347.895 360.25 347.895 358.313 344.75 C 357.168 343.884 357.168 343.884 356 343 C 351.114 338.227 351.114 338.227 350 336 C 350.784 336.062 351.568 336.124 352.375 336.188 C 353.241 336.126 354.108 336.064 355 336 C 355.66 335.01 356.32 334.02 357 333 Z " fill="rgb(18,30,54)"/><path d=" M 272 299 C 274 301 274 301 274 304 C 279.28 304 284.56 304 290 304 C 290.33 303.01 290.66 302.02 291 301 C 291.847 306.081 292.09 310.848 292 316 C 291.67 316 291.34 316 291 316 C 291 314.35 291 312.7 291 311 C 285.39 311 279.78 311 274 311 C 273.67 312.32 273.34 313.64 273 315 C 269.531 317.313 268.078 317.425 264 317 C 261.761 315.361 261.084 314.444 260.566 311.695 C 260.56 307.512 260.666 304.667 262.563 300.875 C 265.861 298.338 267.939 298.474 272 299 Z " fill="rgb(20,35,61)"/><path d=" M 297 332 C 297.99 332.33 298.98 332.66 300 333 C 299.34 334.32 298.68 335.64 298 337 C 299.98 336.67 301.96 336.34 304 336 C 299.502 340.634 299.502 340.634 297.145 342.352 C 293.305 345.118 293.305 345.118 291.438 349.313 C 291.218 351.724 291.218 351.724 291.266 354.047 C 291.178 354.691 291.09 355.336 291 356 C 287.425 358.383 286.214 358.648 282 358 C 278.78 355.853 275.748 353.497 274 350 C 273.716 346.738 273.714 344.604 275.125 341.625 C 277 340 277 340 279.875 339.688 C 283 340 283 340 285.395 340.797 C 288.167 341.304 288.167 341.304 290.457 339.129 C 291.234 338.282 292.012 337.435 292.813 336.563 C 293.603 335.718 294.393 334.874 295.207 334.004 C 295.799 333.343 296.39 332.681 297 332 Z " fill="rgb(14,28,61)"/><path d=" M 331 240 C 333.957 241.339 334.862 242.356 337 245 C 337.188 248.5 337.188 248.5 336 252 C 335.175 252.743 334.35 253.485 333.5 254.25 C 329.772 258.351 330.103 262.628 330 268 C 329.34 268 328.68 268 328 268 C 327.67 265.69 327.34 263.38 327 261 C 325.346 262.654 325.365 264.809 324.938 267.063 C 324.673 268.441 324.673 268.441 324.402 269.848 C 324.27 270.558 324.137 271.268 324 272 C 323.67 272 323.34 272 323 272 C 322.973 269.562 322.953 267.125 322.938 264.688 C 322.929 263.997 322.921 263.307 322.912 262.596 C 322.897 259.452 322.998 257.006 324 254 C 322.577 254.093 322.577 254.093 321.125 254.188 C 320.094 254.126 319.063 254.064 318 254 C 316 251 316 251 316.063 247.563 C 317 244 317 244 319 241.563 C 323.117 239.418 326.452 239.092 331 240 Z " fill="rgb(11,28,52)"/><path d=" M 290 259 C 292.063 260 292.063 260 293 262 C 292.691 263.176 292.381 264.351 292.063 265.563 C 291.54 267.7 291.54 267.7 292 270 C 294.371 272.953 296.948 275.384 299.777 277.898 C 300.511 278.592 301.244 279.285 302 280 C 302 280.66 302 281.32 302 282 C 299.69 281.34 297.38 280.68 295 280 C 295.33 280.33 295.66 280.66 296 281 C 295.01 281.33 294.02 281.66 293 282 C 291.02 279.69 289.04 277.38 287 275 C 286.01 275.33 285.02 275.66 284 276 C 277.693 276.563 277.693 276.563 275 274.375 C 273.602 271.056 273.904 269.426 275 266 C 279.102 259.84 282.631 258.218 290 259 Z " fill="rgb(20,37,61)"/><path d=" M 372 259 C 374.87 260.794 376.491 261.983 378 265 C 378.466 272.339 378.466 272.339 376.77 274.746 C 374.492 276.36 373.197 276.28 370.438 276.125 C 367.088 275.895 367.088 275.895 364 277 C 363.237 276.918 362.474 276.835 361.688 276.75 C 357.837 277.108 356.552 279.241 354 282 C 353.34 282 352.68 282 352 282 C 352.367 279.264 352.725 278.229 354.883 276.43 C 355.623 275.917 356.363 275.404 357.125 274.875 C 360.356 272.248 360.356 272.248 361.305 268.324 C 361.028 265.816 360.629 263.443 360 261 C 364.019 258.321 367.276 258.304 372 259 Z " fill="rgb(15,27,51)"/><path d=" M 382 298 C 384.932 298.255 387.228 298.456 389.668 300.176 C 391.566 302.775 391.434 304.749 391.438 307.938 C 391.467 309.498 391.467 309.498 391.496 311.09 C 390.889 314.652 389.807 315.798 387 318 C 384.625 318.688 384.625 318.688 382 318 C 381.108 316.884 380.258 315.732 379.438 314.563 C 377.341 311.819 376.379 311.085 372.949 310.313 C 369.953 310.087 367.004 309.966 364 310 C 364 309.34 364 308.68 364 308 C 364.66 308 365.32 308 366 308 C 366 307.34 366 306.68 366 306 C 366.687 305.939 367.374 305.879 368.082 305.816 C 368.983 305.733 369.884 305.649 370.813 305.563 C 372.152 305.441 372.152 305.441 373.52 305.316 C 376.127 305.065 376.127 305.065 379 304 C 380.155 301.529 380.155 301.529 381 299 C 381.33 298.67 381.66 298.34 382 298 Z " fill="rgb(13,28,59)"/><path d=" M 313.438 296.688 C 314.611 296.662 314.611 296.662 315.809 296.637 C 318 297 318 297 319.793 298.301 C 321 300 321 300 320.875 303.5 C 320 307 320 307 318.813 308.938 C 316.078 310.541 314.11 310.381 311 310 C 308.625 309 308.625 309 307 307 C 306.534 304.153 306.721 301.932 307 299 C 309.415 296.585 310.127 296.704 313.438 296.688 Z " fill="rgb(238,244,248)"/><path d=" M 340.027 297.734 C 342 298 342 298 345 300 C 345.779 307.011 345.779 307.011 343.375 310.063 C 340.183 311.322 338.276 310.906 335 310 C 334.01 309.34 333.02 308.68 332 308 C 331.637 306.125 331.637 306.125 331.688 304 C 331.693 302.948 331.693 302.948 331.699 301.875 C 332.463 297.117 336.02 297.764 340.027 297.734 Z " fill="rgb(237,242,246)"/><path d=" M 297 332 C 297.99 332.33 298.98 332.66 300 333 C 299.34 334.32 298.68 335.64 298 337 C 299.98 336.67 301.96 336.34 304 336 C 299.502 340.634 299.502 340.634 297.145 342.352 C 293.298 345.166 293.298 345.166 291.332 349.383 C 291.091 351.609 290.965 353.762 291 356 C 289.68 356.33 288.36 356.66 287 357 C 287.33 356.484 287.66 355.969 288 355.438 C 289.317 352.227 289.064 349.442 289 346 C 289.33 345.34 289.66 344.68 290 344 C 288.68 343.67 287.36 343.34 286 343 C 289.63 339.37 293.26 335.74 297 332 Z " fill="rgb(15,34,59)"/><path d=" M 289 267 C 289.33 267.99 289.66 268.98 290 270 C 291.322 270.69 292.657 271.352 294 272 C 295.463 273.282 296.879 274.619 298.25 276 C 298.956 276.701 299.663 277.403 300.391 278.125 C 302 280 302 280 302 282 C 299.69 281.34 297.38 280.68 295 280 C 295.33 280.33 295.66 280.66 296 281 C 295.01 281.33 294.02 281.66 293 282 C 292.59 281.518 292.18 281.036 291.758 280.539 C 291.219 279.907 290.68 279.276 290.125 278.625 C 289.591 277.999 289.058 277.372 288.508 276.727 C 287.386 275.442 286.206 274.206 285 273 C 285.66 273 286.32 273 287 273 C 287.217 272.072 287.217 272.072 287.438 271.125 C 288 269 288 269 289 267 Z " fill="rgb(13,27,47)"/><path d=" M 290 301 C 290.33 301 290.66 301 291 301 C 291.847 306.081 292.09 310.848 292 316 C 291.67 316 291.34 316 291 316 C 291 314.35 291 312.7 291 311 C 286.05 310.67 281.1 310.34 276 310 C 279.607 308.197 282.084 307.534 286 307 C 284.992 305.767 284.992 305.767 282.934 305.902 C 281.698 305.92 281.698 305.92 280.438 305.938 C 279.198 305.951 279.198 305.951 277.934 305.965 C 276.976 305.982 276.976 305.982 276 306 C 276 305.67 276 305.34 276 305 C 280.763 304.047 285.167 303.917 290 304 C 290 303.01 290 302.02 290 301 Z " fill="rgb(5,16,42)"/><path d=" M 379 303 C 379.33 303.66 379.66 304.32 380 305 C 379.34 306.98 378.68 308.96 378 311 C 371.07 310.505 371.07 310.505 364 310 C 364 309.34 364 308.68 364 308 C 364.66 308 365.32 308 366 308 C 366 307.34 366 306.68 366 306 C 367.031 305.927 367.031 305.927 368.082 305.852 C 369.434 305.739 369.434 305.739 370.813 305.625 C 371.706 305.555 372.599 305.486 373.52 305.414 C 376.244 305.134 376.244 305.134 379 303 Z " fill="rgb(10,15,43)"/><path d=" M 273 304 C 274.417 303.973 275.833 303.953 277.25 303.938 C 278.433 303.92 278.433 303.92 279.641 303.902 C 281.907 303.996 283.829 304.368 286 305 C 286 305.66 286 306.32 286 307 C 286.99 307.33 287.98 307.66 289 308 C 281.08 308.495 281.08 308.495 273 309 C 272.67 308.34 272.34 307.68 272 307 C 272.33 306.01 272.66 305.02 273 304 Z " fill="rgb(12,21,58)"/><path d=" M 362 265 C 364 267 364 267 364.125 270.125 C 364.084 271.074 364.043 272.023 364 273 C 363.072 273.124 363.072 273.124 362.125 273.25 C 359.856 273.786 359.856 273.786 359 275.813 C 358.67 276.534 358.34 277.256 358 278 C 356 280.25 356 280.25 354 282 C 353.34 282 352.68 282 352 282 C 352.534 278.176 353.985 276.918 357 274.625 C 359.992 272.152 360.883 271.402 362 267.563 C 362 266.717 362 265.871 362 265 Z " fill="rgb(12,25,39)"/><path d=" M 292 282 C 294.475 282.99 294.475 282.99 297 284 C 297 288.344 296.371 289.5 294.125 293.063 C 293.324 294.348 293.324 294.348 292.508 295.66 C 291.354 297.45 290.181 299.228 289 301 C 289.549 296.429 290.417 292.326 292 288 C 292.99 288 293.98 288 295 288 C 293.515 285.03 293.515 285.03 292 282 Z " fill="rgb(203,228,230)"/><path d=" M 290 339 C 291.738 341.607 292.502 343.013 293 346 C 292.67 346.33 292.34 346.66 292 347 C 291.768 348.515 291.588 350.038 291.438 351.563 C 291.354 352.389 291.27 353.215 291.184 354.066 C 291.123 354.704 291.062 355.343 291 356 C 289.68 356.33 288.36 356.66 287 357 C 287.33 356.484 287.66 355.969 288 355.438 C 289.317 352.227 289.064 349.442 289 346 C 289.33 345.34 289.66 344.68 290 344 C 288.68 343.67 287.36 343.34 286 343 C 287.32 341.68 288.64 340.36 290 339 Z " fill="rgb(9,26,46)"/><path d=" M 280.188 337.438 C 281.58 337.716 281.58 337.716 283 338 C 283.66 338.99 284.32 339.98 285 341 C 282.982 340.902 280.964 340.805 278.945 340.707 C 278.303 340.804 277.661 340.9 277 341 C 274.661 344.509 274.587 345.871 275 350 C 276.389 352.818 276.389 352.818 278 355 C 277.34 355.66 276.68 356.32 276 357 C 273.148 354.62 272.45 352.85 272 349.188 C 271.739 345.554 271.866 343.334 274.063 340.375 C 277 338 277 338 280.188 337.438 Z " fill="rgb(200,221,224)"/><path d=" M 282 259 C 288.055 258.805 288.055 258.805 290 259 C 290.66 259.66 291.32 260.32 292 261 C 289 263 289 263 285 263 C 282.75 262 282.75 262 281 261 C 281.33 260.34 281.66 259.68 282 259 Z " fill="rgb(14,30,45)"/><path d=" M 377 344 C 377.66 344.33 378.32 344.66 379 345 C 378.738 349.457 378.423 351.515 375.438 354.938 C 374.633 355.618 373.829 356.299 373 357 C 372.67 356.01 372.34 355.02 372 354 C 372.66 354 373.32 354 374 354 C 374 353.34 374 352.68 374 352 C 374.66 351.67 375.32 351.34 376 351 C 376.407 348.678 376.744 346.343 377 344 Z " fill="rgb(31,47,67)"/><path d=" M 336 242 C 339 244 339 244 339.688 247.125 C 339.791 248.074 339.894 249.023 340 250 C 338.35 251.32 336.7 252.64 335 254 C 335.072 253.385 335.144 252.77 335.219 252.137 C 335.358 250.924 335.358 250.924 335.5 249.688 C 335.593 248.887 335.686 248.086 335.781 247.262 C 336.048 244.881 336.048 244.881 336 242 Z " fill="rgb(198,220,227)"/><path d=" M 339 344 C 336 345.5 336 345.5 333 347 C 332.535 348.895 332.535 348.895 332.375 351.063 C 332.251 352.362 332.128 353.661 332 355 C 331.67 355 331.34 355 331 355 C 331 351.37 331 347.74 331 344 C 336 343 336 343 339 344 Z " fill="rgb(208,227,230)"/><path d=" M 319 242 C 319.99 242.33 320.98 242.66 322 243 C 321.546 243.743 321.093 244.485 320.625 245.25 C 319.314 247.469 318.117 249.68 317 252 C 316.67 251.67 316.34 251.34 316 251 C 316.6 244.4 316.6 244.4 319 242 Z " fill="rgb(11,22,36)"/><path d=" M 264 300 C 264.66 300.33 265.32 300.66 266 301 C 265.711 301.701 265.423 302.403 265.125 303.125 C 263.979 306.055 262.974 309.009 262 312 C 261.67 312 261.34 312 261 312 C 260.631 304.615 260.631 304.615 262.5 301.5 C 262.995 301.005 263.49 300.51 264 300 Z " fill="rgb(12,27,46)"/><path d=" M 293 261 C 293.66 261.33 294.32 261.66 295 262 C 294.794 263.093 294.588 264.186 294.375 265.313 C 293.597 269.084 293.597 269.084 296 272 C 294.68 271.67 293.36 271.34 292 271 C 290.533 267.185 291.567 264.71 293 261 Z " fill="rgb(193,217,223)"/><path d=" M 391 303 C 391.33 303 391.66 303 392 303 C 393.517 313.558 393.517 313.558 391 318 C 389.68 317.67 388.36 317.34 387 317 C 387.481 316.622 387.962 316.245 388.457 315.855 C 390.537 313.355 390.498 311.527 390.688 308.313 C 390.753 307.319 390.819 306.325 390.887 305.301 C 390.924 304.542 390.961 303.782 391 303 Z " fill="rgb(145,164,177)"/><path d=" M 280 339.75 C 283 340 283 340 285 342 C 283.886 342.309 282.773 342.619 281.625 342.938 C 278.205 343.823 278.205 343.823 276 345 C 275.67 344.01 275.34 343.02 275 342 C 277 340 277 340 280 339.75 Z " fill="rgb(23,41,59)"/><path d=" M 362 265 C 364 267 364 267 364.125 270.125 C 364.084 271.074 364.043 272.023 364 273 C 362.35 273.33 360.7 273.66 359 274 C 359.66 273.01 360.32 272.02 361 271 C 361.39 269.01 361.732 267.01 362 265 Z " fill="rgb(5,20,32)"/><path d=" M 377 353 C 377.33 353.99 377.66 354.98 378 356 C 376.35 357.32 374.7 358.64 373 360 C 372.34 359.67 371.68 359.34 371 359 C 371 358.34 371 357.68 371 357 C 372.961 355.611 374.962 354.274 377 353 Z " fill="rgb(191,208,214)"/><path d=" M 297 332 C 297.99 332.33 298.98 332.66 300 333 C 298.688 335.5 298.688 335.5 297 338 C 296.01 338 295.02 338 294 338 C 294.573 335.133 294.861 334.139 297 332 Z " fill="rgb(9,24,41)"/><path d=" M 330 264 C 330.99 264.495 330.99 264.495 332 265 C 332.186 266.207 332.186 266.207 332.375 267.438 C 332.726 270.16 332.726 270.16 335.063 271.313 C 335.702 271.539 336.341 271.766 337 272 C 334.69 272 332.38 272 330 272 C 330 269.36 330 266.72 330 264 Z " fill="rgb(206,230,236)"/><path d=" M 374 259 C 377 260 377 260 378.688 262.75 C 379.94 265.85 380.29 267.717 380 271 C 379.753 270.464 379.505 269.928 379.25 269.375 C 377.958 266.813 377.958 266.813 375.875 263.875 C 374 261 374 261 374 259 Z " fill="rgb(200,216,223)"/><path d=" M 291 355 C 291.66 355 292.32 355 293 355 C 292.34 356.32 291.68 357.64 291 359 C 287.7 359 284.4 359 281 359 C 281 358.67 281 358.34 281 358 C 281.957 357.801 281.957 357.801 282.934 357.598 C 283.76 357.421 284.586 357.244 285.438 357.063 C 286.261 356.888 287.085 356.714 287.934 356.535 C 289.977 356.192 289.977 356.192 291 355 Z " fill="rgb(200,219,221)"/><path d=" M 357 272 C 357 275 357 275 355.625 276.688 C 354 278 354 278 352 278 C 352 276.68 352 275.36 352 274 C 353.65 273.34 355.3 272.68 357 272 Z " fill="rgb(197,221,219)"/><path d=" M 273 348 C 276.875 352.75 276.875 352.75 278 355 C 277.34 355.66 276.68 356.32 276 357 C 274.5 355.875 274.5 355.875 273 354 C 272.813 350.813 272.813 350.813 273 348 Z " fill="rgb(193,214,215)"/><path d=" M 382 298 C 384.97 298.495 384.97 298.495 388 299 C 388 299.33 388 299.66 388 300 C 386.02 300.33 384.04 300.66 382 301 C 381.67 301.99 381.34 302.98 381 304 C 380.34 303.34 379.68 302.68 379 302 C 379.99 300.68 380.98 299.36 382 298 Z " fill="rgb(33,50,63)"/><path d=" M 289 348 C 289.66 348 290.32 348 291 348 C 291 350.64 291 353.28 291 356 C 289.68 356.33 288.36 356.66 287 357 C 287.33 356.443 287.66 355.886 288 355.313 C 289.131 352.697 289.157 350.819 289 348 Z " fill="rgb(4,19,40)"/><path d=" M 358 327 C 358.33 327 358.66 327 359 327 C 359.33 329.64 359.66 332.28 360 335 C 358.68 334.01 357.36 333.02 356 332 C 356.66 330.35 357.32 328.7 358 327 Z " fill="rgb(193,214,225)"/><path d=" M 360 266 C 360.66 266 361.32 266 362 266 C 362 267.65 362 269.3 362 271 C 360.02 271.99 360.02 271.99 358 273 C 358.66 270.69 359.32 268.38 360 266 Z " fill="rgb(192,213,209)"/></g></g></g></g></g></svg>